<?xml version="1.0" encoding="utf-8"?>
<!-- Generator: Adobe Illustrator 28.3.0, SVG Export Plug-In . SVG Version: 6.00 Build 0)  -->
<svg version="1.1" id="Layer_1" xmlns="http://www.w3.org/2000/svg" xmlns:xlink="http://www.w3.org/1999/xlink" x="0px" y="0px"
	 viewBox="0 0 26.28 32" style="enable-background:new 0 0 26.28 32;" xml:space="preserve">
<style type="text/css">
	.st0{clip-path:url(#SVGID_00000128448574344980885640000010073574045865000619_);}
	.st1{fill:#E9E8E8;}
</style>
<g>
	<defs>
		<rect id="SVGID_1_" x="1.05" y="0.28" width="24.14" height="30.61"/>
	</defs>
	<clipPath id="SVGID_00000145778329665276365410000012293839972569941656_">
		<use xlink:href="#SVGID_1_"  style="overflow:visible;"/>
	</clipPath>
	<g id="Logo" style="clip-path:url(#SVGID_00000145778329665276365410000012293839972569941656_);">
		<path id="Path_49" class="st1" d="M3.62,14.02h2.43c0.05-0.28,0.09-0.55,0.15-0.82c0.38-1.84,2.2-3.16,4.07-2.98
			c0.89,0.09,1.68,0.4,2.36,0.97c1.16,0.98,1.54,2.22,1.25,3.69c-0.3,1.47-0.98,2.75-1.93,3.89c-0.61,0.74-1.28,1.44-1.95,2.14
			c-1.63,1.68-3.28,3.34-4.92,5.01c-0.73,0.75-1.45,1.51-2.17,2.27c-0.06,0.08-0.1,0.17-0.09,0.27c0.06,0.46-0.13,0.77-0.46,1.07
			C2,29.85,1.18,30.7,1.07,30.8c0-0.08-0.01-0.13-0.01-0.17c0-0.98-0.01-1.97,0-2.95c0.01-0.12,0.06-0.23,0.14-0.31
			c1.69-1.72,3.38-3.44,5.08-5.15c1.14-1.16,2.28-2.31,3.39-3.49c0.83-0.88,1.55-1.85,2.07-2.95c0.21-0.44,0.38-0.89,0.45-1.38
			c0.19-1.41-0.83-2.53-2.26-2.49c-1.07,0.03-1.94,0.75-2.17,1.87c-0.11,0.55-0.11,1.13-0.15,1.69c-0.01,0.08,0,0.16,0,0.25H1.68
			c0.02-0.22,0.03-0.42,0.05-0.63c0.08-0.76,0.11-1.53,0.25-2.27C2.38,10.85,3.39,9.21,5,7.99c2.38-1.8,5.05-2.35,7.87-1.36
			c2.58,0.91,4.34,2.73,5.04,5.45c0.23,0.89,0.2,1.8,0.08,2.71c-0.26,2.1-1.12,3.95-2.36,5.64c-0.7,0.96-1.44,1.9-2.28,2.75
			c-1.84,1.86-3.67,3.73-5.5,5.6c-0.06,0.06-0.37,0.4-0.37,0.4s0.68-0.02,0.92-0.02c0.92,0,1.84-0.04,2.76-0.05
			c1.74-0.02,3.48-0.04,5.22-0.05c0.05,0,0.1,0,0.16-0.01v-2.19h-5.12c0.01-0.03,0.03-0.07,0.05-0.1c0.49-0.49,0.98-0.99,1.46-1.48
			c0.11-0.11,0.25-0.17,0.4-0.16c1.55,0.01,3.09,0,4.64,0h0.24v5.69H3.46c0.09-0.09,0.13-0.14,0.18-0.2
			c1.92-1.94,3.85-3.88,5.75-5.84c1.18-1.22,2.35-2.45,3.48-3.72c1.22-1.39,2.22-2.96,2.95-4.67c0.61-1.4,0.8-2.85,0.3-4.32
			c-0.75-2.21-2.3-3.56-4.59-3.98C9.28,7.69,7.25,8.25,5.55,9.81c-1.11,1.02-1.76,2.31-1.91,3.82C3.63,13.76,3.63,13.88,3.62,14.02"
			/>
		<path id="Path_50" class="st1" d="M25.15,24.34H19.2V6.06h-5.21c0.33-0.53,0.64-1.04,0.94-1.55c0.82-1.37,1.64-2.75,2.46-4.13
			c0.06-0.11,0.14-0.11,0.23-0.11c2.03,0,4.05,0,6.08,0h1.45L25.15,24.34z M20.98,4.3v18.24h2.42V2.05
			c-0.02-0.01-0.03-0.01-0.05-0.02c-1.61,0-3.22,0-4.83,0c-0.06,0.01-0.11,0.04-0.14,0.09c-0.42,0.68-0.83,1.36-1.24,2.04
			c-0.02,0.04-0.04,0.08-0.07,0.15L20.98,4.3z"/>
		<path id="Path_51" class="st1" d="M23.4,29.09v1.8h-2.11V29.1H19.5v-2.11h1.79V25.2h2.11v1.78h1.8v2.11L23.4,29.09z"/>
	</g>
</g>
</svg>
