<?xml version="1.0" encoding="utf-8"?>
<!-- Generator: Adobe Illustrator 28.3.0, SVG Export Plug-In . SVG Version: 6.00 Build 0)  -->
<svg version="1.1" id="Layer_1" xmlns="http://www.w3.org/2000/svg" xmlns:xlink="http://www.w3.org/1999/xlink" x="0px" y="0px"
	 viewBox="0 0 256 128" style="enable-background:new 0 0 256 128;" xml:space="preserve">
<style type="text/css">
	.st0{enable-background:new    ;}
	.st1{fill:#888888;}
	.st2{clip-path:url(#SVGID_00000140736718728190426710000003556061837254520469_);}
	.st3{fill:#BC080E;}
	.st4{fill:#E6E7E8;}
</style>
<g class="st0">
	<path class="st1" d="M133.53,113.57c-0.95,0.95-2.72,1.43-5.31,1.43h-8.49c-2.56,0-4.34-0.46-5.34-1.38
		c-0.99-0.92-1.49-2.3-1.49-4.16v-8.16c0-1.86,0.5-3.24,1.49-4.16c1-0.92,2.77-1.38,5.34-1.38h8.49c2.59,0,4.35,0.48,5.31,1.43
		c0.95,0.95,1.43,2.32,1.43,4.11v1.89h-5.8c0-1.06-0.22-1.83-0.66-2.32c-0.44-0.49-1.43-0.73-2.95-0.73h-3.25
		c-1.42,0-2.36,0.27-2.83,0.8c-0.48,0.53-0.71,1.28-0.71,2.25v4.38c0,0.97,0.24,1.72,0.71,2.25c0.48,0.53,1.42,0.8,2.83,0.8h3.25
		c1.53,0,2.51-0.24,2.95-0.73c0.44-0.49,0.66-1.26,0.66-2.32h5.8v1.89C134.95,111.25,134.47,112.62,133.53,113.57z"/>
	<path class="st1" d="M162.21,112.14V115h-15.22c-2.56,0-4.34-0.46-5.34-1.38s-1.49-2.3-1.49-4.16v-13.7h5.84v11.81
		c0,0.97,0.24,1.72,0.71,2.25c0.48,0.53,1.42,0.8,2.84,0.8h12.67V112.14z"/>
	<path class="st1" d="M189.47,109.46c0,1.79-0.48,3.16-1.43,4.11c-0.95,0.95-2.72,1.43-5.31,1.43h-8.49c-2.56,0-4.34-0.46-5.34-1.38
		s-1.49-2.3-1.49-4.16v-13.7h5.84v11.81c0,0.97,0.24,1.72,0.71,2.25c0.48,0.53,1.42,0.8,2.84,0.8h3.25c1.53,0,2.51-0.24,2.95-0.73
		c0.44-0.49,0.66-1.26,0.66-2.32V95.76h5.8V109.46z"/>
	<path class="st1" d="M213.08,105.84c2.39,0.53,3.6,1.46,3.65,2.79v0.83c0,1.79-0.48,3.16-1.43,4.11c-0.95,0.95-2.72,1.43-5.31,1.43
		h-8.49h-6.8l-0.03-5.54v-8.16l0.03-5.54h6.8h8.49c2.59,0,4.35,0.48,5.31,1.43c0.95,0.95,1.43,2.32,1.43,4.11v0.83
		C216.72,103.72,215.51,104.96,213.08,105.84z M207.44,103.12c1.5,0,2.46-0.1,2.87-0.3c0.41-0.2,0.61-0.45,0.61-0.76
		c0-0.31-0.22-0.71-0.66-1.19c-0.44-0.49-1.43-0.73-2.95-0.73h-3.25h-3.58v2.98H207.44z M200.47,107.5v3.12h3.58h3.25
		c1.53,0,2.51-0.24,2.95-0.73c0.44-0.49,0.66-0.88,0.66-1.19s-0.22-0.59-0.65-0.83c-0.43-0.24-1.4-0.36-2.9-0.36H200.47z"/>
</g>
<g>
	<defs>
		<rect id="SVGID_1_" x="14.97" y="5" width="88.06" height="111.67"/>
	</defs>
	<clipPath id="SVGID_00000124843882035314466470000008358999812597462675_">
		<use xlink:href="#SVGID_1_"  style="overflow:visible;"/>
	</clipPath>
	<g id="Group_480" style="clip-path:url(#SVGID_00000124843882035314466470000008358999812597462675_);">
		<path id="Path_2069" class="st3" d="M24.34,55.13h8.86c0.18-1.01,0.33-2.01,0.54-2.99c1.56-6.81,7.89-11.44,14.85-10.87
			c3.16,0.26,6.17,1.5,8.59,3.55c4.03,3.2,5.81,8.46,4.54,13.45c-1.12,5.25-3.53,10.13-7.03,14.2c-2.24,2.71-4.67,5.27-7.13,7.79
			c-5.95,6.13-11.97,12.18-17.94,18.29c-2.67,2.73-5.29,5.51-7.9,8.3c-0.24,0.27-0.35,0.63-0.33,0.99c0.2,1.51-0.45,3-1.69,3.89
			c-1.3,1.16-4.29,4.26-4.7,4.62c-0.02-0.31-0.03-0.46-0.03-0.61c-0.01-3.59-0.03-7.18,0-10.77c0.04-0.42,0.22-0.82,0.52-1.12
			c6.16-6.27,12.34-12.53,18.52-18.78c4.15-4.22,8.32-8.41,12.38-12.72c3.06-3.17,5.61-6.79,7.55-10.75
			c0.81-1.58,1.36-3.28,1.63-5.03c0.72-4.24-2.14-8.26-6.38-8.98c-0.62-0.1-1.24-0.13-1.86-0.09c-3.94,0.08-7.26,2.95-7.9,6.84
			c-0.3,2.04-0.49,4.1-0.55,6.17c-0.02,0.29,0,0.58,0,0.91H17.25c0.07-0.79,0.11-1.54,0.19-2.28c0.29-2.77,0.4-5.58,0.93-8.29
			c1.3-7.08,5.23-13.41,11-17.72c8.67-6.57,18.43-8.59,28.73-4.96c9.19,2.93,16.17,10.47,18.37,19.86c0.72,3.24,0.83,6.6,0.31,9.88
			c-1.03,7.49-4,14.58-8.61,20.58c-2.52,3.55-5.29,6.91-8.3,10.05c-6.71,6.8-13.4,13.61-20.08,20.44c-0.22,0.23-1.35,1.45-1.35,1.45
			s2.48-0.07,3.36-0.07c3.36-0.02,6.72-0.16,10.08-0.2c6.35-0.08,12.71-0.13,19.06-0.19c0.18,0,0.36-0.02,0.59-0.03v-7.99H52.86
			c0.05-0.13,0.12-0.25,0.2-0.36c1.78-1.8,3.56-3.6,5.33-5.4c0.38-0.4,0.92-0.61,1.47-0.57c5.64,0.02,11.28,0.01,16.92,0.01h0.86
			v20.75h-53.9c0.31-0.33,0.48-0.53,0.67-0.71c7-7.09,14.04-14.15,20.99-21.3c4.31-4.44,8.59-8.93,12.68-13.56
			c4.47-5.07,8.1-10.81,10.78-17.02c2.36-4.92,2.75-10.55,1.09-15.74c-2.29-7.68-8.82-13.33-16.74-14.5
			c-7.87-1.63-16.04,0.7-21.86,6.25c-4,3.6-6.49,8.58-6.96,13.94C24.36,54.17,24.36,54.6,24.34,55.13"/>
		<path id="Path_2070" class="st3" d="M102.87,92.77H81.16V26.09H62.13c1.19-1.94,2.33-3.79,3.45-5.65c3-5.01,5.99-10.03,8.97-15.05
			C74.78,4.99,75.05,5,75.4,5h27.47V92.77z M87.65,19.68v66.56h8.82V11.45c-0.06-0.03-0.12-0.05-0.18-0.06c-5.87,0-11.74,0-17.61,0
			c-0.21,0.03-0.41,0.14-0.53,0.32c-1.52,2.47-3.02,4.95-4.51,7.43c-0.09,0.14-0.14,0.31-0.25,0.54L87.65,19.68z"/>
		<path id="Path_2071" class="st3" d="M96.48,110.1v6.57H88.8v-6.54h-6.53v-7.69h6.52v-6.53h7.68v6.49h6.56v7.7L96.48,110.1z"/>
	</g>
</g>
<path class="st4" d="M244.35,103.91h-22.18v10.94h22.18c0.98,0,1.78-0.8,1.78-1.78v-7.39C246.13,104.71,245.33,103.91,244.35,103.91
	z"/>
<g>
	<path class="st1" d="M135.98,85.49c-0.2,0.84-0.68,1.64-1.44,2.4c-0.76,0.76-1.85,1.14-3.27,1.14H112.9v-4.38h15.22
		c0.49,0,0.68-0.15,0.58-0.46s-0.23-0.5-0.38-0.56l-13-4.81c-1.61-0.55-2.42-1.68-2.42-3.38c0-0.75,0.04-1.29,0.13-1.62
		c0.2-0.35,0.37-0.83,0.51-1.44c0.14-0.61,0.81-1.19,1.99-1.74c1.18-0.55,2.58-0.83,4.19-0.83h16.25v4.51h-4.38h-11.87
		c-0.35,0-0.55,0.2-0.6,0.6c0.04,0.27,0.1,0.4,0.17,0.4l14.42,5.44c0.95,0.38,1.59,1.06,1.91,2.04
		C135.95,83.77,136.07,84.68,135.98,85.49z"/>
	<path class="st1" d="M146.36,89.04h-5.77l-0.03-5.54v-8.16l0.03-5.54h6.8h8.49c2.59,0,4.35,0.48,5.31,1.43
		c0.95,0.95,1.43,2.32,1.43,4.11v0.83v0.7c0,1.79-0.48,3.16-1.43,4.11c-0.95,0.95-2.72,1.43-5.31,1.43h-3.35h-2.59h-3.58V89.04z
		 M153.19,78.03c1.53,0,2.51-0.24,2.95-0.73c0.44-0.49,0.66-0.88,0.66-1.19c0-0.31-0.22-0.71-0.66-1.19
		c-0.44-0.49-1.43-0.73-2.95-0.73h-3.25h-3.58v3.85H153.19z"/>
	<path class="st1" d="M187.81,87.62c-0.95,0.95-2.72,1.43-5.31,1.43h-8.49c-2.56,0-4.34-0.46-5.34-1.38s-1.49-2.3-1.49-4.16v-8.16
		c0-1.86,0.5-3.24,1.49-4.16c1-0.92,2.77-1.38,5.34-1.38h8.49c2.59,0,4.35,0.48,5.31,1.43c0.95,0.95,1.43,2.32,1.43,4.11v8.16
		C189.23,85.29,188.76,86.67,187.81,87.62z M183.43,77.24c0-1.06-0.22-1.83-0.66-2.32c-0.44-0.49-1.43-0.73-2.95-0.73h-3.25
		c-1.42,0-2.36,0.27-2.84,0.8s-0.71,1.28-0.71,2.25v4.38c0,0.97,0.24,1.72,0.71,2.25c0.48,0.53,1.42,0.8,2.84,0.8h3.25
		c1.53,0,2.5-0.24,2.92-0.73c0.42-0.49,0.65-1.25,0.7-2.29V77.24z"/>
	<path class="st1" d="M216.13,89.04h-6.5l-6.43-6.63h-3.58v6.63h-5.77V69.81h6.8h8.49c2.59,0,4.35,0.48,5.31,1.43
		c0.95,0.95,1.43,2.32,1.43,4.11v0.83v0.7c0,1.79-0.48,3.16-1.43,4.11c-0.95,0.95-2.24,1.43-3.88,1.43h-0.86L216.13,89.04z
		 M206.44,78.03c1.53,0,2.51-0.24,2.95-0.73c0.44-0.49,0.66-0.88,0.66-1.19c0-0.31-0.22-0.71-0.66-1.19
		c-0.44-0.49-1.43-0.73-2.95-0.73h-3.25h-3.58v3.85H206.44z"/>
	<path class="st1" d="M228.43,74.19h-7.96v-4.38h6.7h8.49h6.83v4.38h-8.29v14.86h-5.77V74.19z"/>
</g>
<g>
	<path d="M225.3,111.8c2.01-1.78,3.11-2.82,3.11-3.81c0-0.68-0.41-1.16-1.29-1.16c-0.56,0-1.04,0.32-1.43,0.71l-0.45-0.44
		c0.54-0.54,1.13-0.9,1.97-0.9c1.19,0,1.94,0.7,1.94,1.75c0,1.12-1.12,2.23-2.73,3.69c0.37-0.03,0.75-0.05,1.11-0.05h1.95v0.66
		h-4.19V111.8z"/>
	<path d="M231.32,111.58c0-0.47,0.33-0.79,0.75-0.79s0.75,0.33,0.75,0.79c0,0.48-0.33,0.79-0.75,0.79S231.32,112.05,231.32,111.58z"
		/>
	<path d="M234.6,109.27c0-2,0.81-3.07,2.13-3.07s2.13,1.07,2.13,3.07c0,1.98-0.81,3.1-2.13,3.1S234.6,111.24,234.6,109.27z
		 M238.15,109.27c0-1.71-0.59-2.44-1.42-2.44s-1.42,0.74-1.42,2.44s0.59,2.48,1.42,2.48S238.15,110.97,238.15,109.27z M236.15,109.2
		c0-0.38,0.27-0.62,0.58-0.62s0.58,0.23,0.58,0.62c0,0.39-0.27,0.62-0.58,0.62S236.15,109.59,236.15,109.2z"/>
	<path d="M239.5,111.61h1.72v-4.36h-1.33v-0.5c0.7-0.09,1.15-0.23,1.53-0.44h0.58v5.31h1.55v0.64h-4.04V111.61z"/>
</g>
<rect x="220.69" y="107.9" transform="matrix(0.7071 0.7071 -0.7071 0.7071 142.4174 -125.0607)" class="st4" width="2.97" height="2.97"/>
<g>
	<g>
		<path class="st1" d="M225.14,98.4h0.8c-0.32,1.21-0.49,1.84-0.52,1.89c-0.04,0.15-0.14,0.31-0.29,0.48
			c-0.15,0.18-0.31,0.26-0.48,0.26h-0.45c-0.15,0-0.3-0.09-0.46-0.26c-0.16-0.18-0.26-0.33-0.3-0.47c-0.04-0.06-0.21-0.69-0.52-1.9
			h0.8l0.4,1.62c0.04,0.14,0.09,0.24,0.15,0.3c0.06,0.06,0.11,0.09,0.16,0.1c0.05-0.01,0.1-0.04,0.16-0.1
			c0.06-0.06,0.11-0.16,0.15-0.3L225.14,98.4z"/>
		<path class="st1" d="M227.68,100.01h-0.23c0,0.14,0.04,0.25,0.1,0.32c0.07,0.07,0.2,0.11,0.39,0.11h0.45h1.29v0.6h-0.92h-1.16
			c-0.35,0-0.6-0.06-0.73-0.19c-0.14-0.13-0.21-0.32-0.21-0.57v-1.12c0-0.25,0.07-0.44,0.21-0.57c0.14-0.13,0.38-0.19,0.73-0.19
			h1.16h0.92V99h-1.29h-0.45c-0.19,0-0.32,0.04-0.39,0.11c-0.06,0.07-0.1,0.17-0.1,0.3h0.23h2v0.6H227.68z"/>
		<path class="st1" d="M233.45,101.04h-0.89l-0.88-0.91h-0.49v0.91h-0.79V98.4h0.93h1.16c0.35,0,0.6,0.07,0.73,0.2
			c0.13,0.13,0.2,0.32,0.2,0.56v0.11v0.1c0,0.25-0.07,0.43-0.2,0.56c-0.13,0.13-0.31,0.2-0.53,0.2h-0.12L233.45,101.04z
			 M232.12,99.53c0.21,0,0.34-0.03,0.4-0.1c0.06-0.07,0.09-0.12,0.09-0.16s-0.03-0.1-0.09-0.16c-0.06-0.07-0.2-0.1-0.4-0.1h-0.45
			h-0.49v0.53H232.12z"/>
		<path class="st1" d="M237.29,100.55c-0.03,0.12-0.09,0.23-0.2,0.33s-0.25,0.16-0.45,0.16h-2.52v-0.6h2.09
			c0.07,0,0.09-0.02,0.08-0.06s-0.03-0.07-0.05-0.08l-1.78-0.66c-0.22-0.08-0.33-0.23-0.33-0.46c0-0.1,0.01-0.18,0.02-0.22
			c0.03-0.05,0.05-0.11,0.07-0.2c0.02-0.08,0.11-0.16,0.27-0.24s0.35-0.11,0.58-0.11h2.23v0.62h-0.6h-1.63
			c-0.05,0-0.08,0.03-0.08,0.08c0.01,0.04,0.01,0.05,0.02,0.05l1.98,0.75c0.13,0.05,0.22,0.15,0.26,0.28S237.3,100.44,237.29,100.55
			z"/>
		<path class="st1" d="M238.8,101.04h-0.79V98.4h0.79v1.62L238.8,101.04z"/>
		<path class="st1" d="M242.34,100.84c-0.13,0.13-0.37,0.2-0.73,0.2h-1.16c-0.35,0-0.6-0.06-0.73-0.19
			c-0.14-0.13-0.21-0.32-0.21-0.57v-1.12c0-0.25,0.07-0.44,0.21-0.57c0.14-0.13,0.38-0.19,0.73-0.19h1.16c0.35,0,0.6,0.07,0.73,0.2
			c0.13,0.13,0.2,0.32,0.2,0.56v1.12C242.54,100.53,242.47,100.71,242.34,100.84z M241.74,99.42c0-0.15-0.03-0.25-0.09-0.32
			c-0.06-0.07-0.2-0.1-0.4-0.1h-0.45c-0.19,0-0.32,0.04-0.39,0.11c-0.06,0.07-0.1,0.18-0.1,0.31v0.6c0,0.13,0.03,0.24,0.1,0.31
			c0.07,0.07,0.2,0.11,0.39,0.11h0.45c0.21,0,0.34-0.03,0.4-0.1c0.06-0.07,0.09-0.17,0.09-0.31V99.42z"/>
		<path class="st1" d="M246.27,101.04h-0.8v-1.62c0-0.15-0.03-0.25-0.09-0.32c-0.06-0.07-0.2-0.1-0.4-0.1h-0.45
			c-0.19,0-0.32,0.04-0.39,0.11c-0.06,0.07-0.1,0.18-0.1,0.31v1.62h-0.8v-1.88c0-0.25,0.07-0.44,0.21-0.57
			c0.14-0.13,0.38-0.19,0.73-0.19h1.16c0.35,0,0.6,0.07,0.73,0.2c0.13,0.13,0.2,0.32,0.2,0.56V101.04z"/>
	</g>
</g>
</svg>
