<?xml version="1.0" encoding="utf-8"?>
<!-- Generator: Adobe Illustrator 28.3.0, SVG Export Plug-In . SVG Version: 6.00 Build 0)  -->
<svg version="1.1" id="Layer_1" xmlns="http://www.w3.org/2000/svg" xmlns:xlink="http://www.w3.org/1999/xlink" x="0px" y="0px"
	 viewBox="0 0 64 64" style="enable-background:new 0 0 64 64;" xml:space="preserve">
<style type="text/css">
	.st0{fill:#2A2A2A;}
</style>
<g id="Group_478" transform="translate(-7.001 -4)">
	<path id="Path_2063" class="st0" d="M63.6,22.9c-0.3-5.3-4.7-9.4-10-9.4H51v-2c0-1.1-0.9-2-2-2s-2,0.9-2,2v2H31v-2c0-1.1-0.9-2-2-2
		s-2,0.9-2,2v2h-2.6c-5.3,0-9.7,4.1-10,9.4c-0.6,9.9-0.6,19.9,0,29.8c0.3,5,4.3,9,9.4,9.4c5,0.3,10.1,0.5,15.2,0.5
		s10.1-0.2,15.2-0.5c5-0.3,9-4.3,9.4-9.4C64.1,42.8,64.2,32.8,63.6,22.9L63.6,22.9z M59.5,52.4c-0.2,3-2.6,5.4-5.6,5.6
		C44,58.7,34,58.7,24.1,58c-3-0.2-5.4-2.6-5.6-5.6c-0.5-7.6-0.6-15.3-0.3-22.9h41.7C60.1,37.1,60,44.8,59.5,52.4z M29,21.5
		c1.1,0,2-0.9,2-2v-2h16v2c0,1.1,0.9,2,2,2s2-0.9,2-2v-2h2.6c3.2,0,5.8,2.5,6,5.6c0,0.8,0.1,1.6,0.1,2.4H18.3c0-0.8,0.1-1.6,0.1-2.4
		c0.2-3.2,2.8-5.6,6-5.6H27v2C27,20.6,27.9,21.5,29,21.5z"/>
	<circle id="Ellipse_37" class="st0" cx="29" cy="38.5" r="3"/>
	<circle id="Ellipse_38" class="st0" cx="39" cy="38.5" r="3"/>
	<circle id="Ellipse_39" class="st0" cx="29" cy="48.5" r="3"/>
	<circle id="Ellipse_40" class="st0" cx="49" cy="38.5" r="3"/>
	<circle id="Ellipse_41" class="st0" cx="49" cy="48.5" r="3"/>
	<circle id="Ellipse_42" class="st0" cx="39" cy="48.5" r="3"/>
</g>
</svg>
