<?xml version="1.0" encoding="utf-8"?>
<!-- Generator: Adobe Illustrator 28.3.0, SVG Export Plug-In . SVG Version: 6.00 Build 0)  -->
<svg version="1.1" id="Layer_1" xmlns="http://www.w3.org/2000/svg" xmlns:xlink="http://www.w3.org/1999/xlink" x="0px" y="0px"
	 viewBox="0 0 64 64" style="enable-background:new 0 0 64 64;" xml:space="preserve">
<style type="text/css">
	.st0{fill:#F1F2F2;}
</style>
<g id="Group_22" transform="translate(0.004 -8)">
	<path id="Path_31" class="st0" d="M63.01,40.43c-0.24-4.28-3.89-7.55-8.17-7.32c-4.1,0.23-7.31,3.61-7.33,7.71v12.93
		c0-1.43-1.16-2.59-2.59-2.59c0,0,0,0,0,0H19.07c-1.43,0-2.59,1.16-2.59,2.59l0,0V40.82c0-4.28-3.47-7.76-7.76-7.76
		c-4.28,0-7.76,3.47-7.76,7.76c0,3.29,2.07,6.22,5.17,7.31v13.37c0,1.43,1.16,2.59,2.59,2.59c0,0,0,0,0,0h2.59v5.17h5.17v-5.17
		h31.02v5.17h5.17v-5.17h2.59c1.43,0,2.59-1.15,2.59-2.58c0,0,0,0,0-0.01V48.14C61.09,46.99,63.18,43.86,63.01,40.43z"/>
	<path id="Path_32" class="st0" d="M19.07,40.82v7.76h25.85v-7.76c0.01-4.71,3.19-8.83,7.76-10.01v-5.5
		c-0.01-7.14-5.79-12.92-12.93-12.93H24.24c-7.14,0.01-12.92,5.79-12.93,12.93v5.5C15.88,32,19.07,36.11,19.07,40.82z M37.17,22.73
		c1.43,0,2.59,1.16,2.59,2.59c0,1.43-1.16,2.59-2.59,2.59c-1.43,0-2.59-1.16-2.59-2.59c0,0,0,0,0,0
		C34.58,23.89,35.74,22.73,37.17,22.73z M37.17,30.48c1.43,0,2.59,1.16,2.59,2.59c0,1.43-1.16,2.59-2.59,2.59
		c-1.43,0-2.59-1.16-2.59-2.59C34.58,31.64,35.74,30.48,37.17,30.48C37.17,30.48,37.17,30.48,37.17,30.48L37.17,30.48z M26.83,22.73
		c1.43,0,2.59,1.16,2.59,2.59c0,1.43-1.16,2.59-2.59,2.59s-2.59-1.16-2.59-2.59c0,0,0,0,0,0C24.24,23.89,25.4,22.73,26.83,22.73z
		 M26.83,30.48c1.43,0,2.59,1.16,2.59,2.59c0,1.43-1.16,2.59-2.59,2.59s-2.59-1.16-2.59-2.59C24.24,31.64,25.4,30.48,26.83,30.48
		C26.82,30.48,26.83,30.48,26.83,30.48L26.83,30.48z"/>
</g>
</svg>
