<?xml version="1.0" encoding="utf-8"?>
<!-- Generator: Adobe Illustrator 28.3.0, SVG Export Plug-In . SVG Version: 6.00 Build 0)  -->
<svg version="1.1" id="Layer_1" xmlns="http://www.w3.org/2000/svg" xmlns:xlink="http://www.w3.org/1999/xlink" x="0px" y="0px"
	 viewBox="0 0 64 64" style="enable-background:new 0 0 64 64;" xml:space="preserve">
<style type="text/css">
	.st0{fill:#BEBEBE;}
</style>
<g>
	<path class="st0" d="M50.2,15.8V7.2h1c1.8,0,3.3-1.5,3.3-3.3s-1.5-3.3-3.3-3.3H14.6c-1.8,0-3.3,1.5-3.3,3.3s1.5,3.3,3.3,3.3h1v8.6
		c0,7.4,4.7,13.8,11.3,16.2c-6.6,2.4-11.3,8.8-11.3,16.2v8.6h-1c-1.8,0-3.3,1.5-3.3,3.3c0,1.8,1.5,3.3,3.3,3.3h36.6
		c1.8,0,3.3-1.5,3.3-3.3c0-1.8-1.5-3.3-3.3-3.3h-1v-8.6c0-7.4-4.7-13.8-11.3-16.2C45.5,29.6,50.2,23.2,50.2,15.8L50.2,15.8z
		 M48.1,7.2v8c-1.7,0.9-8,3.7-14.6-0.3c-6.7-4-12.9-2.2-15.7-0.8V7.2L48.1,7.2z M48.1,48.2v2.4l-9.3-8.6c-3.3-3.1-8.4-3.1-11.7,0
		l-9.3,8.6v-2.4c0-8.4,6.8-15.2,15.2-15.2S48.1,39.9,48.1,48.2L48.1,48.2z"/>
</g>
</svg>
