<?xml version="1.0" encoding="utf-8"?>
<!-- Generator: Adobe Illustrator 28.3.0, SVG Export Plug-In . SVG Version: 6.00 Build 0)  -->
<svg version="1.1" id="Layer_1" xmlns="http://www.w3.org/2000/svg" xmlns:xlink="http://www.w3.org/1999/xlink" x="0px" y="0px"
	 viewBox="0 0 64 64" style="enable-background:new 0 0 64 64;" xml:space="preserve">
<style type="text/css">
	.st0{fill:#070707;}
</style>
<path id="Path_33" class="st0" d="M10.92,2.42H3.97c-0.96,0-1.74,0.78-1.74,1.74l0,0v7.07c-0.03,0.96,0.73,1.76,1.68,1.79
	s1.76-0.73,1.79-1.68c0-0.04,0-0.07,0-0.11V5.89h5.21c0.96,0.03,1.76-0.73,1.79-1.68c0.03-0.96-0.73-1.76-1.68-1.79
	C11,2.42,10.96,2.42,10.92,2.42z M59.82,2.42h-6.95c-0.96,0.03-1.71,0.83-1.68,1.79c0.03,0.92,0.77,1.66,1.68,1.68h5.21v5.33
	c-0.03,0.96,0.73,1.76,1.68,1.79c0.96,0.03,1.76-0.73,1.79-1.68c0-0.04,0-0.07,0-0.11V4.16C61.56,3.2,60.78,2.42,59.82,2.42z
	 M10.92,58.26H5.71v-5.33c0.03-0.96-0.73-1.76-1.68-1.79s-1.76,0.73-1.79,1.68c0,0.04,0,0.07,0,0.11V60c0,0.96,0.78,1.74,1.74,1.74
	h6.95c0.96-0.03,1.71-0.83,1.68-1.79C12.58,59.03,11.84,58.29,10.92,58.26L10.92,58.26z M59.82,51.2c-0.96,0-1.74,0.78-1.74,1.74
	v5.33h-5.21c-0.96,0.03-1.71,0.83-1.68,1.79c0.03,0.92,0.77,1.66,1.68,1.68h6.95c0.96,0,1.74-0.78,1.74-1.74v-7.07
	C61.56,51.98,60.78,51.2,59.82,51.2C59.82,51.2,59.82,51.2,59.82,51.2L59.82,51.2z M56.97,16.68L32.77,2.65
	c-0.54-0.31-1.2-0.31-1.74,0L6.81,16.68c-0.54,0.31-0.87,0.88-0.87,1.5c0,0,0,0,0,0.01v27.81c0,0.63,0.34,1.2,0.88,1.51l24.2,14.01
	c0.54,0.31,1.2,0.31,1.74,0l24.19-14.01h0.01c0.55-0.29,0.88-0.87,0.87-1.49c0,0,0-0.01,0-0.02V18.19c0,0,0,0,0-0.01
	C57.84,17.56,57.5,16.99,56.97,16.68z M30.16,57L11.17,46l14.64-8.39c0.82-0.5,1.08-1.57,0.58-2.39c-0.48-0.79-1.49-1.06-2.3-0.62
	l-14.66,8.4V21.18l20.74,11.91V57z M31.9,30.08L11.17,18.17L31.9,6.16l20.73,12.01L31.9,30.08z M54.37,42.99l-14.66-8.4
	c-0.85-0.45-1.9-0.14-2.35,0.71c-0.44,0.81-0.16,1.82,0.62,2.3L52.62,46L33.63,57V33.09l20.74-11.91V42.99z"/>
</svg>
