<?xml version="1.0" encoding="utf-8"?>
<!-- Generator: Adobe Illustrator 28.3.0, SVG Export Plug-In . SVG Version: 6.00 Build 0)  -->
<svg version="1.1" id="Layer_1" xmlns="http://www.w3.org/2000/svg" xmlns:xlink="http://www.w3.org/1999/xlink" x="0px" y="0px"
	 viewBox="0 0 26.28 32" style="enable-background:new 0 0 26.28 32;" xml:space="preserve">
<style type="text/css">
	.st0{clip-path:url(#SVGID_00000061460631134084438820000008392179300878642598_);}
	.st1{fill:#E9E8E8;}
	.st2{fill:#D2D2D2;}
</style>
<g>
	<defs>
		<line id="SVGID_1_" x1="0.61" y1="30.44" x2="0.61" y2="-0.17"/>
	</defs>
	<clipPath id="SVGID_00000024697369259944047400000012388818133463403442_">
		<use xlink:href="#SVGID_1_"  style="overflow:visible;"/>
	</clipPath>
	<g id="Logo" style="clip-path:url(#SVGID_00000024697369259944047400000012388818133463403442_);">
		<path id="Path_49_00000124123848497934266030000017723901391234214311_" class="st1" d="M3.19,13.19
			c-0.01,0.12-0.01,0.24-0.02,0.38"/>
		<path id="Path_49_00000097498297034514157890000015806622807301393314_" class="st1" d="M3.01,30.37c0.09-0.09,0.13-0.14,0.18-0.2
			"/>
		<path id="Path_49_00000033364152192747612320000004499834998452789157_" class="st1" d="M1.23,15.3c0.02-0.22,0.03-0.42,0.05-0.63
			c0.08-0.76,0.11-1.53,0.25-2.27"/>
		<path id="Path_49_00000150806283096157178230000012777040974634688138_" class="st1" d="M2.46,27.75
			c-0.06,0.08-0.1,0.17-0.09,0.27c0.06,0.46-0.13,0.77-0.46,1.07c-0.36,0.32-1.18,1.17-1.29,1.27c0-0.08-0.01-0.13-0.01-0.17
			c0-0.98-0.01-1.97,0-2.95c0.01-0.12,0.06-0.23,0.14-0.31"/>
		<path id="Path_49_00000025444799316085538400000015726604518164330172_" class="st1" d="M3.17,13.57"/>
	</g>
</g>
<path id="Path_48" class="st2" d="M24.65,3.68h-3.84v-1.4H5.47v1.4H1.63C0.96,3.63,0.39,4.19,0.35,4.92c0,0.05,0,0.11,0,0.16v3.36
	c0,3.21,2.2,5.92,5.11,6.3v0.14c-0.02,3.96,2.48,7.39,6.01,8.26l-0.9,2.94H7.64c-0.54,0.01-1.01,0.41-1.15,0.98l-1.02,3.22h15.35
	l-1.02-3.22c-0.14-0.57-0.61-0.97-1.15-0.98H15.7l-0.9-2.94c3.53-0.86,6.03-4.3,6.01-8.26v-0.14c2.92-0.38,5.11-3.08,5.11-6.3V5.08
	c0.04-0.73-0.47-1.36-1.13-1.4C24.75,3.67,24.7,3.67,24.65,3.68z M5.47,11.93C4,11.52,2.95,10.09,2.91,8.43V6.47h2.56V11.93z
	 M15.86,16.68l-2.72-1.49l-2.72,1.49l0.68-2.72l-2.04-2.72h2.85l1.22-2.72l1.22,2.72h2.85l-2.04,2.72L15.86,16.68z M23.37,8.43
	c0,1.68-1.06,3.13-2.56,3.5V6.48h2.56L23.37,8.43z"/>
</svg>
