<?xml version="1.0" encoding="utf-8"?>
<!-- Generator: Adobe Illustrator 28.3.0, SVG Export Plug-In . SVG Version: 6.00 Build 0)  -->
<svg version="1.1" id="Layer_1" xmlns="http://www.w3.org/2000/svg" xmlns:xlink="http://www.w3.org/1999/xlink" x="0px" y="0px"
	 viewBox="0 0 64 64" style="enable-background:new 0 0 64 64;" xml:space="preserve">
<style type="text/css">
	.st0{fill-rule:evenodd;clip-rule:evenodd;fill:#464646;}
	.st1{fill:#E73433;}
	.st2{fill-rule:evenodd;clip-rule:evenodd;fill:#E73433;}
</style>
<g id="Group_479" transform="translate(-1.511 -1.511)">
	<path id="Path_2064" class="st0" d="M40.1,36.8c0-3.9-3.2-7.1-7.1-7.1H14.9c-3.9,0-7.1,3.2-7.1,7.1v18.1c0,3.9,3.2,7.1,7.1,7.1
		c0,0,0,0,0,0H33c3.9,0,7.1-3.2,7.1-7.1c0,0,0,0,0,0V36.8z M36.2,36.8v18.1c0,1.8-1.4,3.2-3.2,3.2l0,0H14.9c-1.8,0-3.2-1.4-3.2-3.2
		c0,0,0,0,0,0V36.8c0-1.8,1.4-3.2,3.2-3.2l0,0H33C34.8,33.6,36.2,35,36.2,36.8L36.2,36.8z"/>
	<path id="Path_2065" class="st0" d="M45.3,44.3l1.1,0.4c3.7,1.3,7.8-0.6,9.1-4.3l6.1-17.1c1.3-3.7-0.6-7.8-4.3-9.1c0,0,0,0,0,0
		l-17-6.1c-3.7-1.3-7.8,0.6-9.1,4.3l-3.9,10.9c-0.4,1,0.1,2.1,1.1,2.5c1,0.4,2.1-0.1,2.5-1.1c0,0,0,0,0-0.1l3.9-10.9
		c0.6-1.7,2.4-2.6,4.1-2c0,0,0,0,0,0L56,18c1.7,0.6,2.6,2.5,1.9,4.1l-6.1,17.1c-0.6,1.7-2.5,2.6-4.1,1.9l-1.1-0.4
		c-1-0.4-2.1,0.1-2.5,1.1C43.7,42.8,44.2,43.9,45.3,44.3C45.2,44.3,45.3,44.3,45.3,44.3L45.3,44.3z"/>
	<circle id="Ellipse_43" class="st1" cx="23.9" cy="45.9" r="2.6"/>
	<path id="Path_2066" class="st2" d="M44.2,24c-1.3-0.5-2.8,0.2-3.3,1.6c-0.5,1.3,0.2,2.8,1.6,3.3c1.3,0.5,2.8-0.2,3.3-1.6
		c0,0,0,0,0,0C46.3,26,45.6,24.5,44.2,24C44.2,24,44.2,24,44.2,24z"/>
	<circle id="Ellipse_44" class="st1" cx="30.4" cy="39.4" r="2.6"/>
	<path id="Path_2067" class="st0" d="M33,52.3c0-1.4-1.2-2.6-2.6-2.6c-1.4,0-2.6,1.2-2.6,2.6c0,1.4,1.2,2.6,2.6,2.6c0,0,0,0,0,0
		C31.8,54.9,33,53.8,33,52.3z M49.7,35.6c0.5-1.3-0.2-2.8-1.6-3.3c-1.3-0.5-2.8,0.2-3.3,1.6c-0.5,1.3,0.2,2.8,1.6,3.3c0,0,0,0,0,0
		C47.7,37.7,49.2,37,49.7,35.6z"/>
	<circle id="Ellipse_45" class="st1" cx="17.5" cy="52.3" r="2.6"/>
	<path id="Path_2068" class="st0" d="M20.1,39.4c0-1.4-1.2-2.6-2.6-2.6s-2.6,1.2-2.6,2.6c0,1.4,1.2,2.6,2.6,2.6l0,0
		C18.9,42,20.1,40.8,20.1,39.4z M41.9,19c0.5-1.3-0.2-2.8-1.6-3.3C39,15.3,37.5,16,37,17.3c-0.5,1.3,0.2,2.8,1.6,3.3
		C39.9,21.1,41.4,20.4,41.9,19C41.9,19.1,41.9,19.1,41.9,19L41.9,19z"/>
</g>
</svg>
