<?xml version="1.0" encoding="utf-8"?>
<!-- Generator: Adobe Illustrator 28.3.0, SVG Export Plug-In . SVG Version: 6.00 Build 0)  -->
<svg version="1.1" id="Layer_1" xmlns="http://www.w3.org/2000/svg" xmlns:xlink="http://www.w3.org/1999/xlink" x="0px" y="0px"
	 viewBox="0 0 150 150" style="enable-background:new 0 0 150 150;" xml:space="preserve">
<style type="text/css">
	.st0{fill:#FFE660;}
	.st1{fill:#FFC54D;}
	.st2{fill:#E1F1FF;}
	.st3{fill:#D6E0EA;}
	.st4{fill:#142D3F;}
	.st5{fill:#F98E00;}
</style>
<g>
	<path class="st0" d="M119.2,95.1H30.8c-2.3,0-4.1,1.8-4.1,4.1v44.2c0,2.3,1.8,4.1,4.1,4.1h88.4c2.3,0,4.1-1.8,4.1-4.1V99.2
		C123.3,97,121.5,95.1,119.2,95.1L119.2,95.1z"/>
	<path class="st1" d="M123.3,143.4V99.2c0-2.3-1.8-4.1-4.1-4.1H75v52.5h44.2C121.5,147.6,123.3,145.7,123.3,143.4z"/>
	<path class="st2" d="M75,76.8c-2.3,0-4.1-1.8-4.1-4.1c0-0.1,0-11.9-3.2-23.4c-3.9-14-10.3-21.1-19.2-21.1c-7.9,0-11.5,4.7-11.5,9.4
		c0,6.4,6.4,13.3,20.3,13.3c2.3,0,4.1,1.8,4.1,4.1s-1.8,4.1-4.1,4.1c-18,0-28.6-10-28.6-21.5c0-8.8,6.8-17.7,19.7-17.7
		c9,0,21,4.7,27.2,27.4c3.4,12.5,3.5,24.9,3.5,25.4C79.1,75,77.3,76.8,75,76.8z"/>
	<path class="st3" d="M88.3,59.1c-2.3,0-4.1-1.8-4.1-4.1c0-2.3,1.8-4.1,4.1-4.1c19.7,0,26.9-10.2,26.9-17.6
		c0-7.6-6.6-13.9-18.1-13.9c-2.3,0-4.1-1.8-4.1-4.1s1.8-4.1,4.1-4.1c18.8,0,26.3,12.5,26.3,22.2C123.4,47.1,110.6,59.1,88.3,59.1
		L88.3,59.1z"/>
	<path class="st4" d="M79.4,19.4c-1.1,0-2.1-0.4-2.9-1.2l-4.4-4.4c-1.6-1.6-1.6-4.2,0-5.8c1.6-1.6,4.2-1.6,5.8,0l1.5,1.5l1.5-1.5
		c1.6-1.6,4.2-1.6,5.8,0s1.6,4.2,0,5.8l-4.4,4.4C81.6,18.9,80.5,19.4,79.4,19.4L79.4,19.4z"/>
	<path class="st1" d="M145.1,75.5c-0.6-1.5-2.1-2.5-3.8-2.5H97.1c-1.1,0-2.1,0.4-2.9,1.2L75,93.4L55.8,74.2C55,73.4,54,73,52.9,73
		H8.7c-2.3,0-4.1,1.8-4.1,4.1c0,1.1,0.4,2.1,1.2,2.9l20.9,20.9h96.7L144.2,80C145.4,78.9,145.8,77.1,145.1,75.5z"/>
	<path class="st5" d="M144.2,80c1.6-1.6,1.6-4.2,0-5.8c-0.8-0.8-1.8-1.2-2.9-1.2H97.1c-1.1,0-2.1,0.4-2.9,1.2L75,93.4v7.5h48.3
		L144.2,80z"/>
</g>
</svg>
