<?xml version="1.0" encoding="utf-8"?>
<!-- Generator: Adobe Illustrator 27.6.1, SVG Export Plug-In . SVG Version: 6.00 Build 0)  -->
<svg version="1.1" id="Layer_1" xmlns="http://www.w3.org/2000/svg" xmlns:xlink="http://www.w3.org/1999/xlink" x="0px" y="0px"
	 viewBox="0 0 150 150" style="enable-background:new 0 0 150 150;" xml:space="preserve">
<style type="text/css">
	.st0{fill:#265160;}
	.st1{fill-rule:evenodd;clip-rule:evenodd;fill:#FF3D65;}
	.st2{fill-rule:evenodd;clip-rule:evenodd;fill:#E6375A;}
	.st3{fill-rule:evenodd;clip-rule:evenodd;fill:#E6A327;}
	.st4{fill-rule:evenodd;clip-rule:evenodd;fill:#FEB62C;}
	.st5{fill-rule:evenodd;clip-rule:evenodd;fill:#4BBA6C;}
	.st6{fill-rule:evenodd;clip-rule:evenodd;fill:#F8F4F0;}
	.st7{fill-rule:evenodd;clip-rule:evenodd;fill:#265160;}
</style>
<g>
	<g>
		<g>
			<path id="SVGID_1_" class="st0" d="M120.5,145H29.2c-13.3,0-24-10.8-24-24V29.7c0-13.3,10.8-24,24-24h91.3c13.3,0,24,10.8,24,24
				V121C144.5,134.3,133.8,145,120.5,145z"/>
		</g>
	</g>
</g>
<g>
	<path class="st1" d="M118.7,56.1c0-1.9-1.6-3.5-3.5-3.5h-77c-1.9,0-3.5,1.6-3.5,3.5v14c0,1.9,1.6,3.5,3.5,3.5h77
		c1.9,0,3.5-1.6,3.5-3.5V56.1z"/>
	<path class="st2" d="M111.7,73.6h-70v45.5c0,1.9,1.6,3.5,3.5,3.5h63c1.9,0,3.5-1.6,3.5-3.5V73.6z"/>
	<path class="st3" d="M69.7,73.6h14v49h-14V73.6z"/>
	<path class="st4" d="M66.2,52.6h21v21h-21V52.6z"/>
	<path class="st5" d="M118.7,87.6c0-1.9-1.6-3.5-3.5-3.5h-77c-1.9,0-3.5,1.6-3.5,3.5v21c0,1.9,1.6,3.5,3.5,3.5h77
		c1.9,0,3.5-1.6,3.5-3.5V87.6z"/>
	<path class="st6" d="M50.4,93.9v11.2c0,1,0.8,1.8,1.8,1.8c1,0,1.8-0.8,1.8-1.8v-5.2h5.2c1,0,1.8-0.8,1.8-1.8s-0.8-1.8-1.8-1.8h-5.2
		v-2.5c0-0.6,0.5-1,1-1c0,0,0,0,0,0h4.2c1,0,1.8-0.8,1.8-1.8s-0.8-1.8-1.8-1.8H55c-1.2,0-2.4,0.5-3.2,1.3
		C50.9,91.5,50.4,92.7,50.4,93.9z M64.4,91.1v14c0,1,0.8,1.8,1.8,1.8c1,0,1.8-0.8,1.8-1.8v-5.2h2.5c0.6,0,1,0.5,1,1c0,0,0,0,0,0v4.2
		c0,1,0.8,1.8,1.8,1.8c1,0,1.8-0.8,1.8-1.8v-4.2c0-1-0.3-2-1-2.8c0.6-0.8,1-1.8,1-2.8v-1.4c0-1.2-0.5-2.4-1.3-3.2
		c-0.9-0.9-2-1.3-3.2-1.3h-4.2C65.2,89.3,64.4,90.1,64.4,91.1z M67.9,96.3v-3.5h2.5c0.6,0,1,0.5,1,1c0,0,0,0,0,0v1.4
		c0,0.6-0.5,1-1,1c0,0,0,0,0,0L67.9,96.3z M78.4,93.9v8.4c0,1.2,0.5,2.4,1.3,3.2c0.9,0.9,2,1.3,3.2,1.3h4.2c1,0,1.8-0.8,1.8-1.8
		s-0.8-1.8-1.8-1.8H83c-0.6,0-1-0.5-1.1-1c0,0,0,0,0,0v-2.5h5.2c1,0,1.8-0.8,1.8-1.8s-0.8-1.8-1.8-1.8h-5.2v-2.5c0-0.6,0.5-1,1-1
		c0,0,0,0,0,0h4.2c1,0,1.8-0.8,1.8-1.8s-0.8-1.8-1.8-1.8H83c-1.2,0-2.4,0.5-3.2,1.3C78.9,91.5,78.4,92.7,78.4,93.9z M92.4,93.9v8.4
		c0,1.2,0.5,2.4,1.3,3.2c0.9,0.9,2,1.3,3.2,1.3h4.2c1,0,1.8-0.8,1.8-1.8s-0.8-1.8-1.8-1.8H97c-0.6,0-1-0.5-1.1-1c0,0,0,0,0,0v-2.5
		h5.2c1,0,1.8-0.8,1.8-1.8s-0.8-1.8-1.8-1.8h-5.2v-2.5c0-0.6,0.5-1,1-1c0,0,0,0,0,0h4.2c1,0,1.8-0.8,1.8-1.8s-0.8-1.8-1.8-1.8H97
		c-1.2,0-2.4,0.5-3.2,1.3C92.9,91.5,92.4,92.7,92.4,93.9z"/>
	<path class="st4" d="M62.7,52.6c-7.7,0-14-6.3-14-14s6.3-14,14-14s14,6.3,14,14c0-7.7,6.3-14,14-14s14,6.3,14,14s-6.3,14-14,14
		H62.7z"/>
	<path class="st7" d="M62.7,31.6c3.9,0,7,3.1,7,7v7h-7c-3.9,0-7-3.1-7-7S58.8,31.6,62.7,31.6z M90.7,31.6c-3.9,0-7,3.1-7,7v7h7
		c3.9,0,7-3.1,7-7S94.5,31.6,90.7,31.6z"/>
</g>
</svg>
