<?xml version="1.0" encoding="utf-8"?>
<!-- Generator: Adobe Illustrator 28.3.0, SVG Export Plug-In . SVG Version: 6.00 Build 0)  -->
<svg version="1.1" id="Layer_1" xmlns="http://www.w3.org/2000/svg" xmlns:xlink="http://www.w3.org/1999/xlink" x="0px" y="0px"
	 viewBox="0 0 64 64" style="enable-background:new 0 0 64 64;" xml:space="preserve">
<style type="text/css">
	.st0{fill:url(#Path_2104_00000006708600852542749760000007885505050254217400_);}
	.st1{fill:url(#Path_2105_00000085250209932339619790000013431618032243064218_);}
	.st2{fill:url(#Path_2106_00000151519962640744232840000001666275301349815733_);}
	.st3{fill:url(#Path_2107_00000140727941431688759810000017800045335709551801_);}
	.st4{fill:url(#Path_2108_00000066496808906327682500000012811699592830975146_);}
	.st5{fill:url(#Path_2109_00000034797824624106900000000008494792200665367976_);}
	.st6{fill:url(#Path_2110_00000167360822297483848860000012767002231218950276_);}
	.st7{fill:url(#Path_2111_00000050642551110160952850000014514647593578652808_);}
	.st8{fill:url(#Path_2112_00000091723605024652994960000008128248988392560555_);}
	.st9{fill:url(#Path_2113_00000009555916327775450900000000175372437314262166_);}
	.st10{fill:url(#Path_2114_00000127024289097024051360000010833963303065182378_);}
	.st11{fill:url(#Path_2115_00000018948828059432009830000008342204386087444354_);}
	.st12{fill:url(#Path_2116_00000118397586720583087040000017628698377740246679_);}
	.st13{fill:url(#Path_2117_00000065061503464205611440000008359352132328607677_);}
	.st14{fill:url(#Path_2118_00000098940576974625591260000008092429026112248463_);}
	.st15{fill:url(#Path_2119_00000139271055914626060470000013480720772397529227_);}
	.st16{fill:url(#Path_2120_00000106851907216318218910000002087949447351888807_);}
	.st17{fill:url(#Path_2121_00000078009968615799776880000018348611455276028343_);}
	.st18{fill:url(#Path_2122_00000104692128675552024260000013902366437173221527_);}
	.st19{fill:url(#Path_2123_00000075144501331921888230000007428966398040872862_);}
	.st20{fill:url(#Path_2124_00000030474088580311907800000017003315242093674905_);}
	.st21{fill:url(#Path_2125_00000147918752467200647410000013784548383453004968_);}
	.st22{fill:url(#Path_2126_00000070107118796022359830000001837505240918466975_);}
	.st23{fill:url(#Path_2127_00000131341372737778794120000011947388540619579580_);}
	.st24{fill:url(#Path_2128_00000161599661428078226570000016900386119882951056_);}
	.st25{fill:url(#Ellipse_49_00000181786111352194168180000018445323883819696570_);}
	.st26{fill:url(#Path_2129_00000148660547555476466220000009382818028155583158_);}
</style>
<g id="Group_520" transform="translate(-12.1 -38.513)">
	
		<linearGradient id="Path_2104_00000124872933801659530120000012330467783576922297_" gradientUnits="userSpaceOnUse" x1="67.6533" y1="72.1422" x2="67.6533" y2="71.1749" gradientTransform="matrix(5.039 0 0 -11.465 -296.9169 889.2422)">
		<stop  offset="0" style="stop-color:#FCD34F"/>
		<stop  offset="1" style="stop-color:#FF6A00"/>
	</linearGradient>
	<path id="Path_2104" style="fill:url(#Path_2104_00000124872933801659530120000012330467783576922297_);" d="M41.6,68.9h4.9V80
		h-4.9V68.9z"/>
	
		<linearGradient id="Path_2105_00000014605560330385028520000011477817639267753387_" gradientUnits="userSpaceOnUse" x1="37.524" y1="42.0503" x2="37.524" y2="43.0176" gradientTransform="matrix(11.385 0 0 -5.6925 -383.2214 302.3918)">
		<stop  offset="0" style="stop-color:#FCD34F"/>
		<stop  offset="1" style="stop-color:#FF6A00"/>
	</linearGradient>
	<path id="Path_2105" style="fill:url(#Path_2105_00000014605560330385028520000011477817639267753387_);" d="M38.5,84.7
		c0-3,2.5-5.5,5.5-5.5c3,0,5.5,2.5,5.5,5.5H38.5z"/>
	
		<linearGradient id="Path_2106_00000123408214009391612860000016228163461655959702_" gradientUnits="userSpaceOnUse" x1="26.3684" y1="58.3066" x2="26.3684" y2="57.3393" gradientTransform="matrix(21.332 0 0 -7.332 -518.5002 477.7902)">
		<stop  offset="0" style="stop-color:#3D5969"/>
		<stop  offset="1" style="stop-color:#698999"/>
	</linearGradient>
	<path id="Path_2106" style="fill:url(#Path_2106_00000123408214009391612860000016228163461655959702_);" d="M36.3,84.7h15.5
		c1.4,0,2.6,1.2,2.6,2.6v4.5H33.7v-4.5C33.7,85.9,34.8,84.7,36.3,84.7z"/>
	
		<linearGradient id="Path_2107_00000166636763730238294820000005872564366469466784_" gradientUnits="userSpaceOnUse" x1="22.1133" y1="60.274" x2="22.1133" y2="59.3068" gradientTransform="matrix(31.994 0 0 -7.332 -663.5045 485.1254)">
		<stop  offset="0" style="stop-color:#FF9900"/>
		<stop  offset="1" style="stop-color:#FCD34F"/>
	</linearGradient>
	<path id="Path_2107" style="fill:url(#Path_2107_00000166636763730238294820000005872564366469466784_);" d="M32.1,91.8h23.9
		c2,0,3.5,1.6,3.5,3.5c0,2-1.6,3.5-3.5,3.5H32.1c-2,0-3.5-1.6-3.5-3.5C28.5,93.4,30.1,91.8,32.1,91.8z"/>
	
		<linearGradient id="Path_2108_00000029767275913057950850000004936910743839109523_" gradientUnits="userSpaceOnUse" x1="26.8119" y1="90.4015" x2="26.8119" y2="91.3688" gradientTransform="matrix(20.5787 0 0 -30.5816 -493.2387 2852.6973)">
		<stop  offset="0" style="stop-color:#FF9900"/>
		<stop  offset="1" style="stop-color:#FCD34F"/>
	</linearGradient>
	<path id="Path_2108" style="fill:url(#Path_2108_00000029767275913057950850000004936910743839109523_);" d="M49.2,83.6
		c-0.3,0-0.6-0.3-0.6-0.6c0-0.4,0.2-0.7,0.6-0.7c0,0,0,0,0,0c3.5-0.6,6.7-2,9.4-4.2c6-4.8,9-12.9,8.5-23.4c0-0.4,0.3-0.7,0.6-0.7
		c0.4,0,0.7,0.3,0.7,0.6c0.4,5.4-0.4,10.8-2.4,15.8c-1.4,3.4-3.7,6.4-6.6,8.7C56.4,81.5,53,83,49.2,83.6L49.2,83.6z"/>
	
		<linearGradient id="Path_2109_00000173882405910494442850000003687907665130076822_" gradientUnits="userSpaceOnUse" x1="51.4825" y1="57.0005" x2="50.8644" y2="56.3844" gradientTransform="matrix(8.492 0 0 -7.0643 -315.6093 421.5137)">
		<stop  offset="0" style="stop-color:#FF9900"/>
		<stop  offset="1" style="stop-color:#FCD34F"/>
	</linearGradient>
	<path id="Path_2109" style="fill:url(#Path_2109_00000173882405910494442850000003687907665130076822_);" d="M72.7,62.2
		c-1.6,1.2-3.5,1.8-5.5,1.7c0.5-4.1,4.1-7.1,8.2-6.8C75.1,59.1,74.1,60.8,72.7,62.2z"/>
	
		<linearGradient id="Path_2110_00000022555542699412504710000009914477601896707464_" gradientUnits="userSpaceOnUse" x1="60.9236" y1="57.0764" x2="61.7071" y2="56.2842" gradientTransform="matrix(6.466 0 0 -9.038 -295.5017 623.8459)">
		<stop  offset="0" style="stop-color:#FF9900"/>
		<stop  offset="1" style="stop-color:#FCD34F"/>
	</linearGradient>
	<path id="Path_2110" style="fill:url(#Path_2110_00000022555542699412504710000009914477601896707464_);" d="M65.9,58.3
		c1,1.7,1.5,3.6,1.3,5.6c-4.1-0.8-6.8-4.7-6.1-8.7C63,55.7,64.7,56.8,65.9,58.3z"/>
	
		<linearGradient id="Path_2111_00000050643091961080354050000005239160864319593383_" gradientUnits="userSpaceOnUse" x1="63.6239" y1="60.5893" x2="64.448" y2="59.7894" gradientTransform="matrix(5.9244 0 0 -9.545 -290.0185 683.1254)">
		<stop  offset="0" style="stop-color:#FF9900"/>
		<stop  offset="1" style="stop-color:#FCD34F"/>
	</linearGradient>
	<path id="Path_2111" style="fill:url(#Path_2111_00000050643091961080354050000005239160864319593383_);" d="M64.2,65.3
		c0.9,1.8,1.2,3.8,0.8,5.7c-4-1.1-6.3-5.2-5.4-9.2C61.5,62.4,63.1,63.6,64.2,65.3z"/>
	
		<linearGradient id="Path_2112_00000064332540783875232360000002929138667159589020_" gradientUnits="userSpaceOnUse" x1="74.1049" y1="67.6209" x2="74.5566" y2="66.673" gradientTransform="matrix(4.5472 0 0 -10.811 -274.4353 819.6385)">
		<stop  offset="0" style="stop-color:#FF9900"/>
		<stop  offset="1" style="stop-color:#FCD34F"/>
	</linearGradient>
	<path id="Path_2112" style="fill:url(#Path_2112_00000064332540783875232360000002929138667159589020_);" d="M61.4,71.8
		c0.3,2-0.1,3.9-1,5.7c-1.6-1.2-2.7-2.9-3.2-4.8c-0.3-2,0.1-3.9,1-5.7C59.8,68.3,60.9,69.9,61.4,71.8z"/>
	
		<linearGradient id="Path_2113_00000082335474244533686520000016287129326186948002_" gradientUnits="userSpaceOnUse" x1="75.4326" y1="75.8074" x2="74.9722" y2="74.8614" gradientTransform="matrix(4.6446 0 0 -10.8 -280.4815 822.9761)">
		<stop  offset="0" style="stop-color:#FF9900"/>
		<stop  offset="1" style="stop-color:#FCD34F"/>
	</linearGradient>
	<path id="Path_2113" style="fill:url(#Path_2113_00000082335474244533686520000016287129326186948002_);" d="M56.8,77
		c-0.5,1.9-1.6,3.6-3.2,4.8c-2.2-3.5-1.2-8.1,2.2-10.4C56.8,73.1,57.1,75.1,56.8,77z"/>
	
		<linearGradient id="Path_2114_00000089543438038637401470000010772192634547172014_" gradientUnits="userSpaceOnUse" x1="51.0842" y1="53.9373" x2="50.5203" y2="53.3366" gradientTransform="matrix(9.1 0 0 -6.4045 -325.8671 361.239)">
		<stop  offset="0" style="stop-color:#FF9900"/>
		<stop  offset="1" style="stop-color:#FCD34F"/>
	</linearGradient>
	<path id="Path_2114" style="fill:url(#Path_2114_00000089543438038637401470000010772192634547172014_);" d="M70.6,69.7
		c-1.7,1-3.7,1.5-5.6,1.2c0.8-4.1,4.7-6.7,8.8-6C73.3,66.9,72.2,68.5,70.6,69.7z"/>
	
		<linearGradient id="Path_2115_00000053531531892284354770000005414673528146322859_" gradientUnits="userSpaceOnUse" x1="52.2845" y1="41.5085" x2="51.8367" y2="41.1554" gradientTransform="matrix(10.278 0 0 -5.1464 -346.125 239.4475)">
		<stop  offset="0" style="stop-color:#FF9900"/>
		<stop  offset="1" style="stop-color:#FCD34F"/>
	</linearGradient>
	<path id="Path_2115" style="fill:url(#Path_2115_00000053531531892284354770000005414673528146322859_);" d="M66.1,77.6
		c-1.9,0.6-3.9,0.6-5.8-0.1c1.7-3.8,6.1-5.5,9.9-3.9C69.4,75.3,67.9,76.7,66.1,77.6z"/>
	
		<linearGradient id="Path_2116_00000163773969743292165590000018128487672819817400_" gradientUnits="userSpaceOnUse" x1="48.1863" y1="20.2414" x2="47.7946" y2="20.2666" gradientTransform="matrix(11.025 0 0 -4.4559 -362.8424 174.9668)">
		<stop  offset="0" style="stop-color:#FF9900"/>
		<stop  offset="1" style="stop-color:#FCD34F"/>
	</linearGradient>
	<path id="Path_2116" style="fill:url(#Path_2116_00000163773969743292165590000018128487672819817400_);" d="M58.9,84.1
		c-2-0.2-3.8-1-5.3-2.3c3.1-2.8,7.8-2.7,10.7,0.3C62.8,83.3,60.9,84,58.9,84.1z"/>
	
		<linearGradient id="Path_2117_00000116930268634021952780000000727834479970206608_" gradientUnits="userSpaceOnUse" x1="74.599" y1="67.002" x2="74.599" y2="66.0348" gradientTransform="matrix(4.452 0 0 -11.038 -264.3256 823.2189)">
		<stop  offset="0" style="stop-color:#FF9900"/>
		<stop  offset="1" style="stop-color:#FCD34F"/>
	</linearGradient>
	<path id="Path_2117" style="fill:url(#Path_2117_00000116930268634021952780000000727834479970206608_);" d="M69.9,53.1
		c-0.1,2-0.9,3.8-2.2,5.3c-1.3-1.5-2-3.4-2.2-5.3c0.1-2,0.9-3.8,2.1-5.3C69.1,49.3,69.8,51.1,69.9,53.1z"/>
	
		<linearGradient id="Path_2118_00000036225857002614331440000007024122305776237754_" gradientUnits="userSpaceOnUse" x1="26.8579" y1="90.4015" x2="26.8579" y2="91.3688" gradientTransform="matrix(20.5813 0 0 -30.5816 -523.3109 2852.6973)">
		<stop  offset="0" style="stop-color:#FF9900"/>
		<stop  offset="1" style="stop-color:#FCD34F"/>
	</linearGradient>
	<path id="Path_2118" style="fill:url(#Path_2118_00000036225857002614331440000007024122305776237754_);" d="M38.8,83.6
		c0.3,0,0.6-0.3,0.6-0.6c0-0.4-0.2-0.7-0.6-0.7c0,0,0,0,0,0c-3.5-0.6-6.7-2-9.4-4.2c-6-4.8-9-12.9-8.5-23.4c0-0.4-0.3-0.7-0.6-0.7
		c-0.4,0-0.7,0.3-0.7,0.6l0,0C19.2,60,20,65.4,22,70.4c1.4,3.4,3.7,6.4,6.6,8.7C31.6,81.5,35,83,38.8,83.6L38.8,83.6z"/>
	
		<linearGradient id="Path_2119_00000172428702736498401530000014473683196348791980_" gradientUnits="userSpaceOnUse" x1="54.9072" y1="60.1023" x2="54.2901" y2="59.4861" gradientTransform="matrix(8.505 0 0 -7.0426 -372.3155 419.2894)">
		<stop  offset="0" style="stop-color:#FF9900"/>
		<stop  offset="1" style="stop-color:#FCD34F"/>
	</linearGradient>
	<path id="Path_2119" style="fill:url(#Path_2119_00000172428702736498401530000014473683196348791980_);" d="M15.3,62.2
		c1.6,1.2,3.5,1.8,5.5,1.7c-0.3-1.9-1.3-3.7-2.7-5.1c-1.6-1.2-3.5-1.8-5.5-1.7C12.9,59.1,13.8,60.8,15.3,62.2z"/>
	
		<linearGradient id="Path_2120_00000109724767670330657220000003347717462698110389_" gradientUnits="userSpaceOnUse" x1="64.155" y1="54.014" x2="64.9385" y2="53.2218" gradientTransform="matrix(6.466 0 0 -9.038 -337.1459 623.8459)">
		<stop  offset="0" style="stop-color:#FF9900"/>
		<stop  offset="1" style="stop-color:#FCD34F"/>
	</linearGradient>
	<path id="Path_2120" style="fill:url(#Path_2120_00000109724767670330657220000003347717462698110389_);" d="M22.1,58.3
		c-1,1.7-1.5,3.6-1.3,5.6c4.1-0.8,6.8-4.7,6.1-8.7C25,55.7,23.3,56.8,22.1,58.3z"/>
	
		<linearGradient id="Path_2121_00000026153158860837693330000015160180019716499380_" gradientUnits="userSpaceOnUse" x1="66.9731" y1="57.573" x2="67.7982" y2="56.7731" gradientTransform="matrix(5.9197 0 0 -9.545 -327.8313 683.1254)">
		<stop  offset="0" style="stop-color:#FF9900"/>
		<stop  offset="1" style="stop-color:#FCD34F"/>
	</linearGradient>
	<path id="Path_2121" style="fill:url(#Path_2121_00000026153158860837693330000015160180019716499380_);" d="M23.8,65.3
		C22.9,67,22.6,69.1,23,71c4-1.1,6.3-5.2,5.4-9.2C26.4,62.4,24.9,63.6,23.8,65.3z"/>
	
		<linearGradient id="Path_2122_00000146493106000244945720000012532409833148018569_" gradientUnits="userSpaceOnUse" x1="74.3643" y1="65.2811" x2="74.8141" y2="64.3332" gradientTransform="matrix(4.6303 0 0 -10.811 -307.1095 819.6385)">
		<stop  offset="0" style="stop-color:#FF9900"/>
		<stop  offset="1" style="stop-color:#FCD34F"/>
	</linearGradient>
	<path id="Path_2122" style="fill:url(#Path_2122_00000146493106000244945720000012532409833148018569_);" d="M26.6,71.8
		c-0.3,2,0.1,3.9,1,5.7c3.4-2.3,4.4-7,2.1-10.5C28.2,68.2,27.1,69.9,26.6,71.8z"/>
	
		<linearGradient id="Path_2123_00000150095293463228866210000005044618278047000962_" gradientUnits="userSpaceOnUse" x1="76.3826" y1="77.4369" x2="75.9212" y2="76.49" gradientTransform="matrix(4.6445 0 0 -10.8 -302.6227 822.9761)">
		<stop  offset="0" style="stop-color:#FF9900"/>
		<stop  offset="1" style="stop-color:#FCD34F"/>
	</linearGradient>
	<path id="Path_2123" style="fill:url(#Path_2123_00000150095293463228866210000005044618278047000962_);" d="M31.1,77
		c0.5,1.9,1.6,3.6,3.2,4.8c2.2-3.5,1.2-8.1-2.2-10.4C31.2,73.1,30.8,75.1,31.1,77z"/>
	
		<linearGradient id="Path_2124_00000018955877869890098240000015326460172934522266_" gradientUnits="userSpaceOnUse" x1="53.9614" y1="56.3276" x2="53.3975" y2="55.7259" gradientTransform="matrix(9.105 0 0 -6.3477 -378.4955 355.4107)">
		<stop  offset="0" style="stop-color:#FF9900"/>
		<stop  offset="1" style="stop-color:#FCD34F"/>
	</linearGradient>
	<path id="Path_2124" style="fill:url(#Path_2124_00000018955877869890098240000015326460172934522266_);" d="M17.3,69.7
		c1.7,1,3.7,1.5,5.6,1.2c-0.5-1.9-1.6-3.6-3.2-4.8c-1.7-1-3.7-1.5-5.6-1.2C14.7,66.9,15.8,68.5,17.3,69.7z"/>
	
		<linearGradient id="Path_2125_00000052093871222861675610000012384789307179425161_" gradientUnits="userSpaceOnUse" x1="55.2131" y1="42.4031" x2="54.7653" y2="42.0501" gradientTransform="matrix(10.265 0 0 -5.055 -390.0255 230.0841)">
		<stop  offset="0" style="stop-color:#FF9900"/>
		<stop  offset="1" style="stop-color:#FCD34F"/>
	</linearGradient>
	<path id="Path_2125" style="fill:url(#Path_2125_00000052093871222861675610000012384789307179425161_);" d="M21.9,77.6
		c1.9,0.6,3.9,0.6,5.8-0.1c-0.9-1.7-2.4-3.1-4.2-3.9c-1.9-0.6-3.9-0.6-5.8,0.1C18.6,75.3,20.1,76.7,21.9,77.6z"/>
	
		<linearGradient id="Path_2126_00000140008990678345948780000009240238867544637597_" gradientUnits="userSpaceOnUse" x1="50.9075" y1="19.9886" x2="50.5158" y2="20.0147" gradientTransform="matrix(11.024 0 0 -4.453 -393.7964 174.6696)">
		<stop  offset="0" style="stop-color:#FF9900"/>
		<stop  offset="1" style="stop-color:#FCD34F"/>
	</linearGradient>
	<path id="Path_2126" style="fill:url(#Path_2126_00000140008990678345948780000009240238867544637597_);" d="M29.1,84.1
		c2-0.2,3.8-1,5.3-2.3c-1.5-1.2-3.4-1.9-5.4-2c-2,0.2-3.8,1-5.3,2.3C25.2,83.3,27.1,84,29.1,84.1z"/>
	
		<linearGradient id="Path_2127_00000012461059552498049010000012417285054673846421_" gradientUnits="userSpaceOnUse" x1="74.9611" y1="67.002" x2="74.9611" y2="66.0348" gradientTransform="matrix(4.452 0 0 -11.038 -313.5422 823.2189)">
		<stop  offset="0" style="stop-color:#FF9900"/>
		<stop  offset="1" style="stop-color:#FCD34F"/>
	</linearGradient>
	<path id="Path_2127" style="fill:url(#Path_2127_00000012461059552498049010000012417285054673846421_);" d="M18,53.1
		c0.1,2,0.9,3.8,2.2,5.3c1.3-1.5,2-3.4,2.2-5.3c-0.1-2-0.9-3.8-2.2-5.3C18.9,49.3,18.1,51.1,18,53.1z"/>
	
		<linearGradient id="Path_2128_00000092438279125161377720000007591342475600182402_" gradientUnits="userSpaceOnUse" x1="22.1513" y1="90.6537" x2="22.1513" y2="89.6864" gradientTransform="matrix(31.8517 0 0 -30.6495 -661.5712 2848.1377)">
		<stop  offset="0" style="stop-color:#FF9900"/>
		<stop  offset="0.11" style="stop-color:#FFA200"/>
		<stop  offset="0.37" style="stop-color:#FFB300"/>
		<stop  offset="0.65" style="stop-color:#FFBD00"/>
		<stop  offset="1" style="stop-color:#FFC100"/>
	</linearGradient>
	<path id="Path_2128" style="fill:url(#Path_2128_00000092438279125161377720000007591342475600182402_);" d="M47.2,44.7l2.9,5.6
		l6.3,1.1c2,0.3,3.3,2.2,3,4.2c-0.1,0.7-0.5,1.4-1,1.9L53.9,62l0.9,6.3c0.3,2-1.1,3.8-3.1,4.1c-0.7,0.1-1.5,0-2.1-0.3L44,69.3
		l-5.7,2.8c-1.8,0.9-4,0.2-4.8-1.6c-0.3-0.7-0.4-1.4-0.3-2.1l0.9-6.3l-4.4-4.5c-1.4-1.4-1.4-3.7,0.1-5.1c0.5-0.5,1.2-0.9,1.9-1
		l6.3-1.1l2.9-5.6c0.9-1.8,3.1-2.5,4.9-1.5C46.3,43.6,46.8,44.1,47.2,44.7L47.2,44.7z"/>
	
		<linearGradient id="Ellipse_49_00000040555247282724766250000013856358305468176258_" gradientUnits="userSpaceOnUse" x1="29.9451" y1="80.0202" x2="29.9451" y2="79.0529" gradientTransform="matrix(16.664 0 0 -16.664 -455.0164 1408.6766)">
		<stop  offset="0" style="stop-color:#FFE187"/>
		<stop  offset="1" style="stop-color:#FFF8E0"/>
	</linearGradient>
	
		<circle id="Ellipse_49" style="fill:url(#Ellipse_49_00000040555247282724766250000013856358305468176258_);" cx="44" cy="58.8" r="8.1"/>
	
		<linearGradient id="Path_2129_00000142147262999527009450000010132453397621559708_" gradientUnits="userSpaceOnUse" x1="55.0446" y1="67.924" x2="55.0446" y2="66.9557" gradientTransform="matrix(6.572 0 0 -10.997 -317.7583 824.9122)">
		<stop  offset="0" style="stop-color:#FD7600"/>
		<stop  offset="0.71" style="stop-color:#FDBF30"/>
	</linearGradient>
	<path id="Path_2129" style="fill:url(#Path_2129_00000142147262999527009450000010132453397621559708_);" d="M40.8,64.2v-1.5
		l1.9-0.2v-6.7l-1.9,0v-1.4l4.5-0.7v8.9l1.9,0.2v1.5H40.8z"/>
</g>
</svg>
