<?xml version="1.0" encoding="utf-8"?>
<!-- Generator: Adobe Illustrator 28.3.0, SVG Export Plug-In . SVG Version: 6.00 Build 0)  -->
<svg version="1.1" id="Layer_1" xmlns="http://www.w3.org/2000/svg" xmlns:xlink="http://www.w3.org/1999/xlink" x="0px" y="0px"
	 viewBox="0 0 64 64" style="enable-background:new 0 0 64 64;" xml:space="preserve">
<style type="text/css">
	.st0{fill:#464646;}
	.st1{fill:#E73433;}
</style>
<g id="lock-payment-card-svgrepo-com" transform="translate(1.5 1.5)">
	<path class="st0" d="M30.5,48.2H13.2c-3.6,0-6.5-2.9-6.5-6.5V19.5c0-3.6,2.9-6.5,6.5-6.5h34.5c3.6,0,6.5,2.9,6.5,6.5v6.2
		c0,0.9-0.7,1.6-1.6,1.6c-0.9,0-1.6-0.7-1.6-1.6v-6.2c0-1.8-1.5-3.3-3.3-3.3H13.2c-1.8,0-3.3,1.5-3.3,3.3v22.2
		c0,1.8,1.5,3.3,3.3,3.3h17.3c0.9,0,1.6,0.7,1.6,1.6C32.1,47.5,31.4,48.2,30.5,48.2z"/>
	<path class="st1" d="M50.6,50.7H40c-2.1,0-3.7-1.7-3.7-3.7v-6.7c0-2.1,1.7-3.7,3.7-3.7h10.6c2.1,0,3.7,1.7,3.7,3.7v6.7
		C54.3,49,52.6,50.7,50.6,50.7z M40,39.7c-0.3,0-0.5,0.2-0.5,0.5v6.7c0,0.3,0.2,0.5,0.5,0.5h10.6c0.3,0,0.5-0.2,0.5-0.5v-6.7
		c0-0.3-0.2-0.5-0.5-0.5H40z"/>
	<path class="st1" d="M48.5,39.7h-6.3c-0.9,0-1.6-0.7-1.6-1.6V35c-0.1-2.6,2-4.8,4.6-4.9c1.3,0,2.5,0.4,3.4,1.3
		c0.9,0.9,1.5,2,1.5,3.3c0,0.1,0,0.2,0,0.4l0,3.1C50.1,39,49.3,39.7,48.5,39.7z M43.7,36.5h3.1V35c0,0,0-0.2,0-0.2
		c0-0.4-0.2-0.8-0.5-1.1c-0.3-0.3-0.7-0.4-1.1-0.4c-0.9,0-1.5,0.8-1.5,1.6c0,0,0,0,0,0.1V36.5z"/>
	<path d="M51.4,26H8.3c-0.9,0-1.6-0.7-1.6-1.6c0-0.9,0.7-1.6,1.6-1.6h43.1c0.9,0,1.6,0.7,1.6,1.6C53.1,25.3,52.3,26,51.4,26z"/>
	<path d="M23.1,38.3h-4.9c-0.9,0-1.6-0.7-1.6-1.6c0-0.9,0.7-1.6,1.6-1.6h4.9c0.9,0,1.6,0.7,1.6,1.6C24.7,37.6,24,38.3,23.1,38.3z"/>
</g>
</svg>
