<?xml version="1.0" encoding="utf-8"?>
<!-- Generator: Adobe Illustrator 27.6.1, SVG Export Plug-In . SVG Version: 6.00 Build 0)  -->
<svg version="1.1" id="Layer_1" xmlns="http://www.w3.org/2000/svg" xmlns:xlink="http://www.w3.org/1999/xlink" x="0px" y="0px"
	 viewBox="0 0 150 150" style="enable-background:new 0 0 150 150;" xml:space="preserve">
<style type="text/css">
	.st0{fill:#282320;}
	.st1{fill:#FEFDFC;}
	.st2{fill:#FCB813;}
</style>
<g>
	<g>
		<defs>
			<path id="SVGID_1_" d="M122.49,145.39H30.7c-13.26,0-24.01-10.75-24.01-24.01V29.6c0-13.26,10.75-24.01,24.01-24.01h91.78
				c13.26,0,24.01,10.75,24.01,24.01v91.78C146.5,134.64,135.75,145.39,122.49,145.39z"/>
		</defs>
		<use xlink:href="#SVGID_1_"  style="overflow:visible;fill:#FDB913;"/>
		<clipPath id="SVGID_00000178197429586857962150000002876555537849084033_">
			<use xlink:href="#SVGID_1_"  style="overflow:visible;"/>
		</clipPath>
	</g>
</g>
<g>
	<path class="st0" d="M88.08,74.08c-0.66,2.85-2.21,3.95-4.59,4.39c-3.46,0.64-2.63-2.58-3.8-4.02c-1.28,3.24-2.43,3.99-5.98,3.97
		c-1.5,0-3.22,0.53-4.41-0.22c-1.1-0.71-0.97-2.58-1.74-4.02c-1.39,3.8-4.35,4.44-7.79,4.26c-1.79-0.09-3.6-0.04-5.38,0
		c-0.75,0.02-1.02-0.24-1.06-1.02c-0.18-3.91-0.22-3.88,3.71-3.91c1.04,0,2.1,0,3.13-0.02c1.32-0.02,2.12-0.79,2.16-2.01
		c0.11-2.78,0.02-5.58,0.07-8.39c0-0.79-0.49-0.71-0.99-0.71c-1.59,0-3.2,0.02-4.79,0c-0.38,0-0.9,0.22-1.08-0.24
		c-0.53-1.39-1.04-2.8-1.46-4.24c-0.18-0.55,0.4-0.46,0.71-0.46c2.74,0,5.49-0.09,8.23,0.04c3.07,0.15,4.55,1.77,4.61,4.92
		c0.09,3.29,0.13,6.58,0.07,9.86c-0.02,1.06,0.29,1.28,1.24,1.24c1.3-0.07,2.6-0.09,3.88,0c1.21,0.11,1.61-0.24,1.59-1.52
		c-0.09-4.39,0-8.78-0.07-13.17c-0.02-1.1,0.26-1.43,1.39-1.43c3.88,0.02,3.88-0.02,3.88,3.88c0,3.64,0.07,7.28-0.02,10.92
		c-0.04,1.46,0.77,1.28,1.68,1.3c0.95,0.02,1.54,0,1.52-1.28c-0.09-4.48,0-8.98-0.07-13.46c-0.02-1.02,0.24-1.37,1.3-1.37
		c3.97,0,3.97-0.04,3.97,3.95c0,3.49-0.02,6.97,0.02,10.48c0,0.6-0.55,1.63,0.79,1.66c1.15,0.02,2.1-0.33,2.32-1.61
		c0.07-0.44,0.04-0.9,0.04-1.35c0-3.95,0.02-7.88-0.02-11.83c-0.02-0.95,0.22-1.3,1.24-1.3c4.08-0.07,4.13-0.11,4.08,3.97
		c-0.04,3.88,0.24,7.79-0.18,11.65c-0.38,3.33-2.1,4.94-5.41,5.34c-0.95,0.11-1.5-0.04-1.74-1.08
		C88.94,76.38,88.55,75.47,88.08,74.08z"/>
	<path class="st1" d="M119.79,43.96c3.44,6.2,8.89,8.83,15.87,9c-0.15,0.97-0.77,1.68-1.3,2.43c-1.92,2.74-4.44,4.83-7.37,6.44
		c-0.86,0.46-1.35,0.4-1.99-0.4c-5.8-7.28-9.56-15.47-11.1-24.65c-0.71-4.1-0.68-8.23-0.6-12.38c0.02-1.37,0.57-1.74,1.85-1.83
		c6.55-0.51,12.16,1.46,16.9,6c0.66,0.64,0.68,1.13,0.29,1.92c-2.71,5.34-4.7,10.97-6.13,16.79c-0.26,1.1-0.6,1.08-1.43,0.53
		c-1.77-1.17-3.22-2.67-4.63-4.19c-0.11-0.15-0.24-0.33-0.35-0.49c-0.13-0.2-0.24-0.57-0.51-0.42c-0.4,0.26,0.11,0.44,0.18,0.68
		C119.57,43.56,119.68,43.76,119.79,43.96z"/>
	<path class="st1" d="M110.83,46.98c-0.13,1.68-0.35,3.31-0.82,4.92c-0.31,1.04-0.66,1.13-1.48,0.42c-2.78-2.3-5.85-4.17-9.16-5.58
		c-0.82-0.35-1.13-0.79-0.99-1.7c0.71-4.68,2.58-8.76,5.87-12.18c0.68-0.71,1.04-0.75,1.72,0.02c7.55,8.58,11.23,18.56,11.03,29.99
		c-0.02,1.17-0.4,1.43-1.48,1.28c-2.43-0.35-4.79-0.93-7.04-1.94c-0.93-0.42-1.17-0.71-0.49-1.68
		C110.94,56.45,112.07,51.11,110.83,46.98z"/>
	<path class="st0" d="M41.28,67.44c0,1.99,0.2,4.02-0.04,5.98c-0.38,3.07-2.49,4.92-5.56,5.03c-2.54,0.09-5.1,0-7.64,0.04
		c-0.79,0.02-0.99-0.29-1.02-1.04c-0.13-3.88-0.15-3.88,3.71-3.88c0.99,0,1.99,0.02,3,0c1.48-0.04,2.27-0.77,2.3-2.18
		c0.04-2.69,0-5.38,0.02-8.08c0-0.66-0.24-0.86-0.88-0.84c-1.66,0.02-3.29-0.02-4.94,0.02c-0.68,0.02-1.1-0.13-1.3-0.86
		c-0.29-1.06-0.62-2.1-1.04-3.11c-0.35-0.88-0.02-1.02,0.75-1.02c2.6,0.02,5.19-0.07,7.79,0.04c3.33,0.13,4.83,1.79,4.85,5.14
		C41.3,64.24,41.3,65.85,41.28,67.44C41.3,67.44,41.3,67.44,41.28,67.44z"/>
	<path class="st0" d="M45.07,65.72c0-3.8,0.02-7.59-0.02-11.39c-0.02-0.95,0.22-1.28,1.24-1.28c3.99-0.04,3.99-0.07,3.99,3.88
		c0,6.69-0.02,13.37,0.02,20.06c0,1.06-0.22,1.48-1.39,1.48c-3.84-0.02-3.84,0.04-3.84-3.77C45.07,71.7,45.07,68.72,45.07,65.72z"/>
	<path class="st0" d="M55.95,92.47c0-2.25,0.04-4.5-0.02-6.73c-0.02-0.86,0.15-1.24,1.15-1.21c2.65,0.07,5.3,0,7.94,0.04
		c1.74,0.02,2.8,1.06,2.82,2.8c0.04,2.74,0.04,5.49-0.04,8.23c-0.11,2.89-1.81,4.66-4.68,4.85c-2.1,0.13-4.19,0.02-6.29,0.09
		c-0.79,0.02-0.88-0.4-0.86-1.02C55.95,97.17,55.95,94.8,55.95,92.47z M59.06,92.42c0,0.95,0,1.9,0,2.85c0,2.52,0,2.52,2.58,2.45
		c2.16-0.07,3.05-0.97,3.09-3.16c0.02-0.95,0.04-1.9,0-2.85c-0.07-1.43,0.64-3.33-0.26-4.17c-0.97-0.88-2.85-0.18-4.33-0.26
		c-0.04,0-0.11,0-0.15,0c-0.73-0.11-0.95,0.26-0.93,0.95C59.09,89.62,59.06,91.03,59.06,92.42z"/>
	<path class="st0" d="M84.55,92.42c0-2.3,0.02-4.59-0.02-6.89c-0.02-0.77,0.22-1.04,1.02-1.02c2.65,0.04,5.3,0,7.94,0.02
		c1.77,0.02,2.91,0.95,2.96,2.71c0.09,2.93,0.26,5.89-0.13,8.83c-0.35,2.65-1.85,4.17-4.52,4.37c-2.14,0.15-4.28,0.04-6.44,0.09
		c-0.86,0.02-0.82-0.49-0.82-1.06C84.55,97.12,84.55,94.78,84.55,92.42z M87.62,92.42c0,0.79,0,1.59,0,2.41
		c0,3.16,0.24,3.35,3.33,2.87c1.41-0.22,2.27-1.04,2.32-2.49c0.07-2.34,0-4.7,0.04-7.04c0-0.64-0.2-0.88-0.86-0.86
		c-1.3,0.04-2.6,0.04-3.88,0c-0.71-0.02-0.97,0.24-0.95,0.95C87.64,89.62,87.62,91.01,87.62,92.42z"/>
	<path class="st0" d="M31.79,100.52c-0.79,0-1.59,0-2.38,0c-1.63,0-2.12-0.71-1.7-2.3c0.18-0.66,0.66-0.51,1.06-0.51
		c1.7-0.02,3.4-0.02,5.08,0c0.62,0,1.19-0.09,1.72-0.4c1.17-0.68,1.17-1.85,0.97-2.91c-0.18-0.97-1.15-0.49-1.74-0.51
		c-1.63-0.07-3.29,0-4.94-0.04c-1.88-0.04-2.74-0.93-2.8-2.76c0-0.04,0-0.11,0-0.15c-0.42-5.27,1.66-6.89,6.31-6.53
		c1.35,0.09,2.69,0.02,4.04,0.02c0.57,0,0.77,0.15,0.62,0.79c-0.35,1.35-0.75,2.41-2.54,2.1c-1.17-0.2-2.38-0.07-3.57-0.02
		c-1.63,0.04-2.52,1.26-2.14,2.82c0.15,0.71,0.66,0.49,1.06,0.49c1.74,0.02,3.49-0.02,5.23,0.02c2.38,0.04,3.33,1.02,3.35,3.4
		c0,0.64,0.02,1.3,0,1.94c-0.13,2.6-1.85,4.37-4.46,4.52C33.88,100.54,32.83,100.5,31.79,100.52
		C31.79,100.5,31.79,100.5,31.79,100.52z"/>
	<path class="st0" d="M45.07,95.27c-0.31,1.26-0.71,2.49-0.9,3.77c-0.2,1.26-0.82,1.66-2.01,1.5c-0.57-0.09-1.17-0.02-1.92-0.02
		c1.46-5.19,2.87-10.22,4.26-15.23c0.15-0.57,0.51-0.73,1.08-0.77c3.42-0.2,3.44-0.22,4.39,3.09c1.19,4.1,2.36,8.23,3.55,12.34
		c0.04,0.13,0.02,0.29,0.04,0.49c-0.38,0.02-0.73,0.02-1.06,0.09c-1.68,0.29-2.76-0.22-2.87-2.1c-0.04-0.82-0.51-1.13-1.28-1.02
		C46.64,97.7,45.4,97.25,45.07,95.27z M47.1,88.25c-0.13,0-0.24,0-0.38,0c-0.33,1.35-0.66,2.67-0.99,4.02
		c-0.57,2.34-0.24,2.67,2.23,2.27c0.57-0.09,0.62-0.31,0.49-0.77C48.01,91.91,47.57,90.08,47.1,88.25z"/>
	<path class="st0" d="M73.67,95.36c-0.38,1.48-0.71,2.71-1.04,3.97c-0.26,0.97-2.78,1.77-3.51,1.1c-0.26-0.24-0.13-0.55-0.04-0.82
		c1.35-4.74,2.69-9.47,4.02-14.21c0.2-0.68,0.53-0.82,1.15-0.84c3.4-0.15,3.4-0.18,4.35,3.16c1.1,3.88,2.18,7.75,3.38,11.61
		c0.33,1.08,0.02,1.17-0.95,1.28c-1.66,0.15-2.67-0.24-2.76-2.07c-0.02-0.77-0.44-1.06-1.26-1.08
		C74.82,97.39,74.82,97.34,73.67,95.36z M75.66,88.01c-0.09-0.02-0.18-0.04-0.26-0.04c-0.35,1.43-0.68,2.89-1.04,4.33
		c-0.55,2.34-0.24,2.63,2.16,2.25c0.55-0.09,0.66-0.31,0.55-0.77C76.59,91.85,76.12,89.93,75.66,88.01z"/>
	<path class="st2" d="M119.46,43.39c-0.07-0.24-0.57-0.42-0.18-0.68c0.24-0.18,0.38,0.22,0.51,0.42
		C119.66,43.21,119.57,43.3,119.46,43.39z"/>
	<path class="st2" d="M119.79,43.96c-0.11-0.2-0.22-0.38-0.35-0.57c0.11-0.09,0.22-0.18,0.31-0.26c0.11,0.15,0.24,0.33,0.35,0.49
		C120.01,43.72,119.9,43.83,119.79,43.96z"/>
</g>
<g>
	<path d="M30.24,114.42h-2.45c-0.2,0-0.38-0.04-0.55-0.11s-0.33-0.15-0.46-0.29c-0.04-0.04-0.11-0.11-0.15-0.18
		c-0.04-0.07-0.11-0.15-0.15-0.26c-0.04-0.09-0.09-0.2-0.11-0.33s-0.04-0.26-0.04-0.42c0-0.13,0.02-0.29,0.04-0.46
		s0.07-0.33,0.09-0.46c0.04-0.15,0.07-0.26,0.09-0.38s0.04-0.18,0.07-0.2l0.75,0.24c-0.02,0.07-0.04,0.13-0.07,0.24
		s-0.07,0.22-0.09,0.33c-0.02,0.13-0.04,0.24-0.07,0.38s-0.02,0.22-0.02,0.33c0,0.18,0.02,0.33,0.09,0.44
		c0.07,0.11,0.13,0.18,0.2,0.24s0.15,0.09,0.24,0.09c0.09,0.02,0.13,0.02,0.18,0.02h2.45c0.31,0,0.6,0,0.82-0.02
		c0.24-0.02,0.44-0.04,0.6-0.09c0.15-0.04,0.29-0.09,0.4-0.13c0.09-0.04,0.15-0.11,0.2-0.18c0.04-0.09,0.07-0.18,0.07-0.29
		c0-0.09-0.02-0.2-0.04-0.31c-0.04-0.11-0.09-0.2-0.15-0.31c-0.07-0.11-0.13-0.22-0.22-0.33l-1.3-1.83l0.15-0.68l3.73-1.7l0.31,0.71
		l-3.33,1.52l1.41,1.99c0.22,0.29,0.4,0.53,0.57,0.73c0.15,0.2,0.31,0.38,0.46,0.49c0.15,0.13,0.31,0.22,0.46,0.29
		c0.15,0.07,0.33,0.09,0.55,0.09h0.09v0.77h-0.09c-0.24,0-0.44-0.02-0.64-0.07c-0.18-0.04-0.35-0.11-0.51-0.2s-0.29-0.2-0.42-0.31
		c-0.13-0.13-0.26-0.26-0.4-0.42c-0.04,0.18-0.13,0.31-0.22,0.44c-0.09,0.13-0.22,0.22-0.35,0.29c-0.13,0.07-0.29,0.13-0.44,0.18
		s-0.33,0.07-0.51,0.09s-0.38,0.02-0.57,0.04C30.64,114.42,30.44,114.42,30.24,114.42z"/>
	<path d="M39.34,113.63v0.77h-0.73c-0.24,0-0.46-0.04-0.66-0.11c-0.2-0.07-0.35-0.18-0.46-0.33c-0.29,0.29-0.71,0.44-1.28,0.44
		h-1.41v-0.77h1.41c0.2,0,0.35-0.02,0.46-0.07c0.11-0.04,0.2-0.09,0.26-0.15c0.07-0.07,0.09-0.13,0.11-0.2s0.02-0.13,0.02-0.2v-1.39
		h0.77v1.37c0,0.11,0.02,0.18,0.04,0.26c0.02,0.07,0.07,0.13,0.11,0.18s0.11,0.09,0.15,0.11c0.04,0.02,0.11,0.04,0.18,0.07
		c0.07,0.02,0.11,0.02,0.15,0.02c0.04,0,0.07,0,0.09,0C38.56,113.63,39.34,113.63,39.34,113.63z M36.62,116.01l-0.66,0.66
		l-0.64-0.66l0.66-0.66L36.62,116.01z M38.19,116.01l-0.66,0.66l-0.64-0.66l0.66-0.66L38.19,116.01z"/>
	<path d="M41.39,111.02c0,0.02,0.02,0.07,0.02,0.13c0.02,0.07,0.04,0.15,0.07,0.26s0.04,0.22,0.07,0.35s0.04,0.26,0.07,0.4
		s0.04,0.26,0.04,0.38s0.02,0.22,0.02,0.31c0,0.26-0.04,0.49-0.13,0.68c-0.09,0.2-0.2,0.35-0.33,0.49s-0.29,0.22-0.46,0.29
		c-0.18,0.07-0.35,0.09-0.53,0.09h-1.06v-0.77h1.06c0.04,0,0.11,0,0.18-0.02s0.15-0.04,0.22-0.09s0.13-0.13,0.2-0.22
		c0.07-0.09,0.09-0.24,0.09-0.42c0-0.07,0-0.13-0.02-0.22s-0.02-0.2-0.04-0.29c-0.02-0.11-0.04-0.22-0.04-0.33
		c-0.02-0.11-0.04-0.22-0.07-0.31s-0.04-0.18-0.04-0.26c-0.02-0.09-0.02-0.13-0.04-0.18L41.39,111.02z M40.02,109.33l0.71-0.71
		l0.73,0.73l-0.71,0.71L40.02,109.33z"/>
	<path d="M42.8,115.9c0.42,0,0.77-0.02,1.06-0.09c0.29-0.07,0.51-0.15,0.68-0.29c0.13-0.11,0.24-0.26,0.31-0.44
		c0.07-0.18,0.11-0.4,0.11-0.66h-0.77c-0.2,0-0.4-0.02-0.6-0.09c-0.2-0.07-0.38-0.15-0.53-0.29s-0.29-0.31-0.4-0.53
		c-0.11-0.22-0.15-0.46-0.15-0.77c0-0.18,0.02-0.35,0.04-0.49c0.02-0.15,0.07-0.29,0.11-0.4s0.11-0.22,0.15-0.31
		c0.07-0.09,0.11-0.15,0.18-0.22c0.15-0.15,0.33-0.26,0.53-0.35c0.2-0.09,0.4-0.13,0.62-0.13c0.2,0,0.38,0.02,0.55,0.09
		c0.18,0.07,0.33,0.15,0.46,0.26c0.38,0.35,0.55,0.88,0.55,1.63v1.57c0,0.4-0.07,0.73-0.18,1.02c-0.11,0.29-0.29,0.53-0.53,0.71
		c-0.24,0.2-0.55,0.33-0.9,0.42c-0.35,0.09-0.79,0.13-1.32,0.13v-0.77H42.8z M44.15,111.62c-0.26,0-0.49,0.09-0.64,0.29
		c-0.15,0.2-0.22,0.46-0.22,0.82c0,0.35,0.11,0.6,0.33,0.73c0.04,0.04,0.11,0.07,0.15,0.09c0.04,0.02,0.11,0.04,0.15,0.04
		s0.11,0.02,0.13,0.02c0.04,0,0.09,0,0.11,0h0.77v-0.77c0-0.2-0.02-0.38-0.04-0.51s-0.07-0.26-0.11-0.35
		c-0.04-0.09-0.11-0.15-0.15-0.2s-0.11-0.09-0.18-0.11s-0.11-0.04-0.18-0.04C44.23,111.62,44.19,111.62,44.15,111.62z"/>
	<path d="M50.15,114.4h-0.18c-0.26,0-0.51-0.04-0.73-0.15c0,0.38-0.04,0.73-0.15,1.04c-0.11,0.31-0.26,0.55-0.46,0.77
		s-0.46,0.38-0.77,0.49c-0.31,0.11-0.64,0.15-1.04,0.15h-0.57v-0.77h0.57c0.29,0,0.53-0.04,0.73-0.11s0.38-0.18,0.51-0.31
		c0.13-0.13,0.24-0.33,0.31-0.53s0.09-0.49,0.09-0.77v-2.58h0.77v1.37c0,0.15,0.02,0.26,0.09,0.35s0.13,0.15,0.22,0.2
		s0.18,0.07,0.24,0.07c0.09,0,0.13,0.02,0.15,0.02h0.18v0.77H50.15z"/>
	<path d="M54.5,113.63v0.77h-0.73c-0.24,0-0.46-0.04-0.66-0.11c-0.2-0.07-0.35-0.18-0.46-0.33c-0.29,0.29-0.71,0.44-1.28,0.44h-1.41
		v-0.77h1.41c0.2,0,0.35-0.02,0.46-0.07s0.2-0.09,0.26-0.15s0.09-0.13,0.11-0.2c0.02-0.07,0.02-0.13,0.02-0.2v-1.39H53v1.37
		c0,0.11,0.02,0.18,0.04,0.26c0.02,0.07,0.07,0.13,0.11,0.18c0.04,0.04,0.11,0.09,0.15,0.11c0.04,0.02,0.11,0.04,0.18,0.07
		s0.11,0.02,0.15,0.02s0.07,0,0.09,0C53.72,113.63,54.5,113.63,54.5,113.63z M51.58,110.58l-0.66-0.66l0.64-0.66l0.66,0.66
		L51.58,110.58z M53.17,110.61l-0.66-0.66l0.64-0.66l0.66,0.66L53.17,110.61z"/>
	<path d="M59.62,114.4h-0.07c-0.24,0-0.46-0.02-0.66-0.07s-0.38-0.11-0.53-0.2s-0.31-0.2-0.44-0.31s-0.26-0.26-0.4-0.42
		c0,0.02,0,0.02-0.02,0.04s-0.02,0.02-0.02,0.04c-0.07,0.15-0.18,0.29-0.33,0.42s-0.31,0.22-0.49,0.31
		c-0.15,0.07-0.35,0.13-0.55,0.15s-0.4,0.04-0.62,0.04h-1.21v-0.77h1.21c0.15,0,0.31,0,0.44-0.04s0.26-0.07,0.38-0.09
		c0.11-0.04,0.2-0.09,0.29-0.15s0.13-0.13,0.18-0.2c0.04-0.07,0.04-0.15,0.04-0.24c0-0.07-0.02-0.18-0.07-0.33
		c-0.04-0.13-0.15-0.33-0.31-0.55c-0.24-0.35-0.46-0.64-0.62-0.88c-0.18-0.24-0.31-0.44-0.42-0.6c-0.13-0.18-0.22-0.33-0.31-0.44
		l0.15-0.57l3.8-1.74l0.33,0.71l-3.4,1.54l1.63,2.27c0.18,0.22,0.31,0.42,0.44,0.57s0.26,0.31,0.4,0.4
		c0.13,0.09,0.29,0.18,0.44,0.24c0.15,0.04,0.35,0.09,0.57,0.09h0.07v0.77H59.62z"/>
	<path d="M59.44,113.63h0.13c0.24,0,0.44-0.02,0.6-0.07c0.13-0.04,0.24-0.09,0.33-0.18c0.04-0.04,0.09-0.13,0.13-0.22
		c0.04-0.09,0.04-0.22,0.04-0.38v-4.3h0.77v4.3c0,0.09,0,0.2-0.02,0.29c0,0.09-0.02,0.2-0.04,0.31s-0.07,0.2-0.11,0.31
		c-0.04,0.09-0.13,0.2-0.22,0.26s-0.18,0.13-0.26,0.2s-0.2,0.09-0.31,0.13c-0.11,0.04-0.24,0.07-0.4,0.09
		c-0.15,0.02-0.31,0.02-0.49,0.02h-0.13v-0.77H59.44z"/>
	<path d="M63.52,114.4h-0.77v-5.89h0.77V114.4z"/>
	<path d="M76.52,113.63v0.77h-0.13c-0.2,0-0.4-0.02-0.57-0.09c-0.18-0.07-0.33-0.15-0.49-0.26c-0.02-0.02-0.04-0.02-0.04-0.04
		s-0.04-0.02-0.04-0.04c-0.29,0.29-0.71,0.44-1.28,0.44h-4.7c-0.2,0-0.38-0.02-0.55-0.09c-0.18-0.07-0.33-0.15-0.46-0.29
		c-0.04-0.04-0.11-0.11-0.18-0.18c-0.04-0.07-0.11-0.15-0.15-0.24s-0.09-0.2-0.11-0.33s-0.04-0.26-0.04-0.42
		c0-0.13,0.02-0.29,0.04-0.46c0.02-0.15,0.07-0.33,0.09-0.46c0.04-0.15,0.07-0.26,0.09-0.38c0.02-0.11,0.04-0.18,0.07-0.2l0.75,0.24
		c-0.02,0.07-0.04,0.13-0.07,0.24c-0.02,0.11-0.07,0.22-0.09,0.35c-0.02,0.11-0.04,0.24-0.07,0.38c-0.02,0.13-0.02,0.22-0.02,0.31
		c0,0.18,0.02,0.33,0.09,0.44c0.07,0.11,0.13,0.18,0.2,0.24c0.09,0.04,0.15,0.09,0.24,0.09c0.09,0.02,0.13,0.02,0.18,0.02h4.66
		c0.2,0,0.35-0.02,0.49-0.07c0.11-0.04,0.22-0.09,0.26-0.15c0.07-0.07,0.11-0.13,0.11-0.2c0.02-0.09,0.02-0.15,0.02-0.22v-1.43h0.77
		v1.41c0,0.15,0.04,0.29,0.11,0.38c0.07,0.09,0.15,0.15,0.24,0.2s0.18,0.07,0.26,0.09c0.09,0,0.13,0.02,0.18,0.02h0.15V113.63z
		 M70.87,111.22l-0.66-0.66l0.64-0.66l0.66,0.66L70.87,111.22z M72.46,111.25l-0.66-0.66l0.64-0.66l0.66,0.66L72.46,111.25z"/>
	<path d="M81.9,112.75c-0.02,0-0.09,0.07-0.22,0.15c-0.13,0.09-0.29,0.2-0.51,0.31s-0.46,0.26-0.73,0.4
		c-0.29,0.13-0.57,0.26-0.9,0.4c-0.33,0.11-0.66,0.22-1.02,0.29c-0.35,0.09-0.71,0.11-1.06,0.11h-1.13v-0.77h1.13
		c0.31,0,0.62-0.04,0.93-0.11c0.31-0.07,0.62-0.15,0.9-0.26c0.29-0.11,0.57-0.22,0.82-0.35c0.26-0.13,0.49-0.24,0.68-0.35
		c-0.26-0.11-0.53-0.22-0.79-0.31c-0.26-0.11-0.51-0.2-0.73-0.26c-0.22-0.09-0.42-0.13-0.57-0.2c-0.15-0.04-0.26-0.09-0.31-0.09
		s-0.09,0-0.15,0.02c-0.04,0-0.11,0.02-0.15,0.07s-0.09,0.11-0.15,0.2s-0.09,0.2-0.13,0.38l-0.75-0.2c0.22-0.82,0.66-1.24,1.35-1.24
		c0.02,0,0.04,0,0.07,0s0.07,0,0.11,0.02s0.13,0.02,0.22,0.07s0.2,0.07,0.33,0.11s0.31,0.11,0.51,0.18c0.2,0.07,0.44,0.15,0.71,0.26
		l1.46,0.55L81.9,112.75z M77.51,109.19l0.71-0.71l0.73,0.73l-0.71,0.71L77.51,109.19z"/>
	<path d="M83.8,114.4h-0.77v-5.89h0.77V114.4z"/>
	<path d="M86.87,114.47c-0.13,0-0.29,0-0.42-0.02c-0.15-0.02-0.29-0.02-0.42-0.07c-0.13-0.02-0.26-0.07-0.4-0.11
		s-0.24-0.09-0.33-0.15l-0.35-0.2l0.4-0.68l0.35,0.2c0.09,0.04,0.22,0.09,0.35,0.13s0.29,0.07,0.44,0.07
		c0.13,0.02,0.26,0.02,0.4,0.02c0.02,0,0.09,0,0.18,0s0.2,0,0.33-0.02c0.15-0.02,0.29-0.07,0.4-0.11s0.18-0.09,0.2-0.15
		c0-0.02,0.02-0.07,0.02-0.09c0-0.04-0.02-0.11-0.04-0.2s-0.09-0.2-0.18-0.33l-1.5-2.27l0.66-0.44c0.04,0.07,0.07,0.11,0.11,0.18
		c0.04,0.07,0.09,0.13,0.13,0.2c0.04,0.09,0.11,0.18,0.18,0.26c0.07,0.11,0.15,0.24,0.24,0.38c0.09,0.13,0.22,0.33,0.35,0.53
		s0.29,0.42,0.46,0.68c0.07,0.11,0.13,0.22,0.18,0.33s0.09,0.22,0.13,0.35c0.02,0.11,0.04,0.2,0.04,0.31c0,0,0,0.04,0,0.11
		s-0.02,0.15-0.09,0.26c-0.18,0.4-0.57,0.62-1.19,0.73c-0.09,0.02-0.2,0.02-0.31,0.02S86.98,114.47,86.87,114.47z"/>
	<path d="M93,114.4h-0.18c-0.26,0-0.51-0.04-0.73-0.15c0,0.38-0.04,0.73-0.15,1.04c-0.11,0.31-0.26,0.55-0.46,0.77
		s-0.46,0.38-0.77,0.49c-0.31,0.11-0.64,0.15-1.04,0.15H89.1v-0.77h0.57c0.29,0,0.53-0.04,0.73-0.11s0.38-0.18,0.51-0.31
		c0.13-0.13,0.24-0.33,0.31-0.53s0.09-0.49,0.09-0.77v-2.58h0.77v1.37c0,0.15,0.02,0.26,0.09,0.35c0.07,0.09,0.13,0.15,0.22,0.2
		c0.09,0.04,0.18,0.07,0.24,0.07c0.09,0,0.13,0.02,0.15,0.02h0.18v0.77H93z"/>
	<path d="M95.72,111.02c0,0.02,0.02,0.07,0.02,0.13s0.04,0.15,0.07,0.26s0.04,0.22,0.07,0.35s0.04,0.26,0.07,0.4
		s0.04,0.26,0.04,0.38c0.02,0.13,0.02,0.24,0.02,0.33c0,0.26-0.04,0.49-0.13,0.68s-0.2,0.35-0.33,0.49s-0.29,0.22-0.46,0.29
		c-0.18,0.07-0.35,0.09-0.53,0.09h-1.72v-0.77h1.72c0.04,0,0.11,0,0.18-0.02c0.07-0.02,0.15-0.04,0.22-0.09
		c0.07-0.04,0.13-0.13,0.2-0.22c0.07-0.09,0.09-0.24,0.09-0.42c0-0.07,0-0.13-0.02-0.22c0-0.09-0.02-0.2-0.04-0.29
		s-0.02-0.22-0.04-0.33s-0.04-0.22-0.07-0.31c-0.02-0.09-0.04-0.18-0.04-0.26c-0.02-0.09-0.02-0.13-0.04-0.18L95.72,111.02z
		 M94.66,115.88L94,116.54l-0.64-0.66l0.66-0.66L94.66,115.88z M94.81,117.67l-0.6-0.6l0.57-0.57l0.6,0.57L94.81,117.67z
		 M96.25,115.88l-0.66,0.66l-0.64-0.66l0.66-0.66L96.25,115.88z"/>
</g>
</svg>
