<?xml version="1.0" encoding="utf-8"?>
<!-- Generator: Adobe Illustrator 27.6.1, SVG Export Plug-In . SVG Version: 6.00 Build 0)  -->
<svg version="1.1" id="Layer_1" xmlns="http://www.w3.org/2000/svg" xmlns:xlink="http://www.w3.org/1999/xlink" x="0px" y="0px"
	 viewBox="0 0 150 150" style="enable-background:new 0 0 150 150;" xml:space="preserve">
<style type="text/css">
	.st0{fill:#E67E22;}
	.st1{fill:#66142E;}
	.st2{fill:#FFFFFF;}
	.st3{opacity:0.55;}
	.st4{fill:none;stroke:#66142E;stroke-width:0;stroke-miterlimit:10;}
	.st5{opacity:0.3;}
	.st6{fill:#D3623B;}
	.st7{fill:#1EBC61;}
	.st8{fill:#4EEC91;}
	.st9{fill:#F7C714;}
	.st10{fill:#F89E1D;}
	.st11{fill:#F9DD6A;}
	.st12{opacity:0.27;}
	.st13{fill:#FCE5E5;}
	.st14{opacity:0.27;clip-path:url(#SVGID_00000083079260355057839800000009950775428000519339_);}
</style>
<g>
	<g>
		<defs>
			<path id="SVGID_1_" d="M120.51,145H29.2c-13.26,0-24.01-10.75-24.01-24.01v-91.3c0-13.26,10.75-24.01,24.01-24.01h91.3
				c13.26,0,24.01,10.75,24.01,24.01v91.3C144.52,134.25,133.77,145,120.51,145z"/>
		</defs>
		<use xlink:href="#SVGID_1_"  style="overflow:visible;fill:#265160;"/>
		<clipPath id="SVGID_00000054987332463113641160000016071102561851628708_">
			<use xlink:href="#SVGID_1_"  style="overflow:visible;"/>
		</clipPath>
	</g>
</g>
<g>
	<g>
		<g>
			<g>
				<g>
					<path class="st0" d="M95.43,124.56c-0.36,0-0.73-0.04-1.09-0.11c-0.05-0.01-0.11-0.02-0.16-0.04L36.3,110.8
						c-1.31-0.31-2.47-1.07-3.27-2.15l-0.04-0.05c-0.72-0.99-1.1-2.15-1.1-3.38V55.29c0-1.02,0.3-2.01,0.87-2.86l0.2,0.11
						c-0.39,0.91-0.4,1.78-0.03,2.52c0.44,0.87,1.4,1.52,2.7,1.82l61.04,14.01c2.45,0.58,4.16,2.74,4.16,5.26v43.03
						C100.82,122.14,98.4,124.56,95.43,124.56z"/>
				</g>
				<g>
					<path class="st1" d="M32.85,52.49c-0.96,2.24,0.38,3.94,2.74,4.49c0.01,0,0.01,0,0.02,0l61.02,14
						c2.39,0.56,4.08,2.69,4.08,5.15v43.03c0,2.99-2.44,5.29-5.28,5.29c-0.35,0-0.71-0.04-1.07-0.11c-0.05-0.01-0.1-0.02-0.16-0.03
						l-57.89-13.62c-1.34-0.31-2.47-1.1-3.24-2.15h0c-0.68-0.94-1.08-2.08-1.08-3.31V55.29C32,54.26,32.31,53.29,32.85,52.49
						 M32.66,52.37c-0.58,0.87-0.89,1.88-0.89,2.93v49.94c0,1.25,0.39,2.44,1.12,3.44l0.07,0.09h0c0.82,1.08,1.99,1.83,3.3,2.14
						l57.89,13.62c0.05,0.01,0.11,0.03,0.17,0.04c0.36,0.07,0.74,0.11,1.11,0.11c3.03,0,5.5-2.47,5.5-5.51V76.13
						c0-2.57-1.75-4.78-4.25-5.37l-61.02-14l-0.01,0l-0.02,0l0,0c-1.26-0.29-2.19-0.92-2.62-1.76c-0.35-0.7-0.34-1.54,0.04-2.42
						L32.66,52.37L32.66,52.37z"/>
				</g>
			</g>
			<g>
				<g>
					<path class="st2" d="M33.14,60.24c-0.08,0-0.15-0.02-0.22-0.06c-0.48-0.28-0.89-0.6-1.25-0.99c-0.17-0.18-0.16-0.47,0.03-0.63
						c0.18-0.17,0.47-0.16,0.63,0.02c0.3,0.32,0.63,0.59,1.03,0.82c0.22,0.12,0.29,0.4,0.17,0.61
						C33.45,60.16,33.3,60.24,33.14,60.24z"/>
				</g>
				<g>
					<path class="st2" d="M94.46,121.13c-0.03,0-0.07,0-0.1-0.01l-2.83-0.67c-0.24-0.06-0.39-0.3-0.33-0.54
						c0.06-0.24,0.3-0.39,0.54-0.33l2.83,0.67c0.24,0.06,0.39,0.3,0.33,0.54C94.85,120.99,94.67,121.13,94.46,121.13z M96.96,120.33
						c-0.06,0-0.13-0.01-0.19-0.04c-0.23-0.1-0.32-0.37-0.22-0.6c0.07-0.16,0.11-0.34,0.11-0.53V117c0-0.25,0.2-0.45,0.45-0.45
						c0.25,0,0.45,0.2,0.45,0.45v2.17c0,0.32-0.07,0.63-0.2,0.91C97.29,120.23,97.13,120.33,96.96,120.33z M88.8,119.79
						c-0.03,0-0.07,0-0.1-0.01l-2.83-0.67c-0.24-0.06-0.39-0.3-0.33-0.54c0.06-0.24,0.3-0.39,0.54-0.33l2.83,0.67
						c0.24,0.06,0.39,0.3,0.33,0.54C89.19,119.66,89.01,119.79,88.8,119.79z M83.15,118.46c-0.03,0-0.07,0-0.1-0.01l-2.83-0.67
						c-0.24-0.06-0.39-0.3-0.33-0.54c0.06-0.24,0.3-0.39,0.54-0.33l2.83,0.67c0.24,0.06,0.39,0.3,0.33,0.54
						C83.53,118.32,83.35,118.46,83.15,118.46z M77.49,117.13c-0.03,0-0.07,0-0.1-0.01l-2.83-0.67c-0.24-0.06-0.39-0.3-0.33-0.54
						c0.06-0.24,0.3-0.39,0.54-0.33l2.83,0.67c0.24,0.06,0.39,0.3,0.33,0.54C77.88,116.99,77.69,117.13,77.49,117.13z M71.83,115.8
						c-0.03,0-0.07,0-0.1-0.01l-2.83-0.67c-0.24-0.06-0.39-0.3-0.33-0.54c0.06-0.24,0.3-0.39,0.54-0.33l2.83,0.67
						c0.24,0.06,0.39,0.3,0.33,0.54C72.22,115.66,72.03,115.8,71.83,115.8z M97.12,114.54c-0.25,0-0.45-0.2-0.45-0.45v-2.91
						c0-0.25,0.2-0.45,0.45-0.45c0.25,0,0.45,0.2,0.45,0.45v2.91C97.57,114.34,97.37,114.54,97.12,114.54z M66.17,114.47
						c-0.03,0-0.07,0-0.1-0.01l-2.83-0.67c-0.24-0.06-0.39-0.3-0.33-0.54c0.06-0.24,0.3-0.39,0.54-0.33l2.83,0.67
						c0.24,0.06,0.39,0.3,0.33,0.54C66.56,114.33,66.38,114.47,66.17,114.47z M60.51,113.14c-0.03,0-0.07,0-0.1-0.01l-2.83-0.67
						c-0.24-0.06-0.39-0.3-0.33-0.54c0.06-0.24,0.3-0.39,0.54-0.33l2.83,0.67c0.24,0.06,0.39,0.3,0.33,0.54
						C60.9,113,60.72,113.14,60.51,113.14z M54.86,111.81c-0.03,0-0.07,0-0.1-0.01l-2.83-0.67c-0.24-0.06-0.39-0.3-0.33-0.54
						c0.06-0.24,0.3-0.39,0.54-0.33l2.83,0.67c0.24,0.06,0.39,0.3,0.33,0.54C55.24,111.67,55.06,111.81,54.86,111.81z M49.2,110.48
						c-0.03,0-0.07,0-0.1-0.01l-2.83-0.67c-0.24-0.06-0.39-0.3-0.33-0.54c0.06-0.24,0.3-0.39,0.54-0.33l2.83,0.67
						c0.24,0.06,0.39,0.3,0.33,0.54C49.59,110.34,49.4,110.48,49.2,110.48z M43.54,109.14c-0.03,0-0.07,0-0.1-0.01l-2.83-0.67
						c-0.24-0.06-0.39-0.3-0.33-0.54c0.06-0.24,0.3-0.39,0.54-0.33l2.83,0.67c0.24,0.06,0.39,0.3,0.33,0.54
						C43.93,109.01,43.74,109.14,43.54,109.14z M97.12,108.73c-0.25,0-0.45-0.2-0.45-0.45v-2.91c0-0.25,0.2-0.45,0.45-0.45
						c0.25,0,0.45,0.2,0.45,0.45v2.91C97.57,108.53,97.37,108.73,97.12,108.73z M37.88,107.81c-0.03,0-0.07,0-0.1-0.01l-0.74-0.17
						c-0.8-0.15-1.51-0.33-2.13-0.56c-0.23-0.08-0.35-0.34-0.27-0.57c0.08-0.23,0.34-0.35,0.57-0.27c0.57,0.21,1.23,0.38,2.01,0.52
						l0.76,0.18c0.24,0.06,0.39,0.3,0.33,0.54C38.27,107.67,38.09,107.81,37.88,107.81z M97.12,102.91c-0.25,0-0.45-0.2-0.45-0.45
						v-2.91c0-0.25,0.2-0.45,0.45-0.45c0.25,0,0.45,0.2,0.45,0.45v2.91C97.57,102.71,97.37,102.91,97.12,102.91z M97.12,97.1
						c-0.25,0-0.45-0.2-0.45-0.45v-2.91c0-0.25,0.2-0.45,0.45-0.45c0.25,0,0.45,0.2,0.45,0.45v2.91
						C97.57,96.9,97.37,97.1,97.12,97.1z M97.12,91.29c-0.25,0-0.45-0.2-0.45-0.45v-2.91c0-0.25,0.2-0.45,0.45-0.45
						c0.25,0,0.45,0.2,0.45,0.45v2.91C97.57,91.09,97.37,91.29,97.12,91.29z M97.12,85.48c-0.25,0-0.45-0.2-0.45-0.45v-2.91
						c0-0.25,0.2-0.45,0.45-0.45c0.25,0,0.45,0.2,0.45,0.45v2.91C97.57,85.28,97.37,85.48,97.12,85.48z M97.12,79.66
						c-0.25,0-0.45-0.2-0.45-0.45v-2.91c0-0.25,0.2-0.45,0.45-0.45c0.25,0,0.45,0.2,0.45,0.45v2.91
						C97.57,79.46,97.37,79.66,97.12,79.66z M95.36,74.83c-0.03,0-0.07,0-0.1-0.01l-2.83-0.65c-0.24-0.06-0.39-0.3-0.34-0.54
						c0.06-0.24,0.3-0.39,0.54-0.34l2.83,0.65c0.24,0.06,0.39,0.3,0.34,0.54C95.75,74.69,95.57,74.83,95.36,74.83z M89.7,73.53
						c-0.03,0-0.07,0-0.1-0.01l-2.83-0.65c-0.24-0.06-0.39-0.3-0.34-0.54c0.06-0.24,0.3-0.39,0.54-0.34l2.83,0.65
						c0.24,0.06,0.39,0.3,0.34,0.54C90.09,73.39,89.9,73.53,89.7,73.53z M84.03,72.23c-0.03,0-0.07,0-0.1-0.01l-2.83-0.65
						c-0.24-0.06-0.39-0.3-0.34-0.54c0.06-0.24,0.3-0.39,0.54-0.34l2.83,0.65c0.24,0.06,0.39,0.3,0.34,0.54
						C84.42,72.09,84.24,72.23,84.03,72.23z M78.37,70.93c-0.03,0-0.07,0-0.1-0.01l-2.83-0.65c-0.24-0.06-0.39-0.3-0.34-0.54
						c0.06-0.24,0.3-0.39,0.54-0.34l2.83,0.65c0.24,0.06,0.39,0.3,0.34,0.54C78.76,70.79,78.57,70.93,78.37,70.93z M72.7,69.63
						c-0.03,0-0.07,0-0.1-0.01l-2.83-0.65c-0.24-0.06-0.39-0.3-0.34-0.54s0.3-0.39,0.54-0.34l2.83,0.65
						c0.24,0.06,0.39,0.3,0.34,0.54C73.09,69.49,72.91,69.63,72.7,69.63z M67.04,68.33c-0.03,0-0.07,0-0.1-0.01l-2.83-0.65
						c-0.24-0.06-0.39-0.3-0.34-0.54c0.06-0.24,0.3-0.39,0.54-0.34l2.83,0.65c0.24,0.06,0.39,0.3,0.34,0.54
						C67.43,68.19,67.24,68.33,67.04,68.33z M61.37,67.03c-0.03,0-0.07,0-0.1-0.01l-2.83-0.65c-0.24-0.06-0.39-0.3-0.34-0.54
						c0.06-0.24,0.3-0.39,0.54-0.34l2.83,0.65c0.24,0.06,0.39,0.3,0.34,0.54C61.76,66.89,61.58,67.03,61.37,67.03z M55.71,65.73
						c-0.03,0-0.07,0-0.1-0.01l-2.83-0.65c-0.24-0.06-0.39-0.3-0.34-0.54c0.06-0.24,0.3-0.39,0.54-0.34l2.83,0.65
						c0.24,0.06,0.39,0.3,0.34,0.54C56.1,65.59,55.91,65.73,55.71,65.73z M50.04,64.43c-0.03,0-0.07,0-0.1-0.01l-2.83-0.65
						c-0.24-0.06-0.39-0.3-0.34-0.54c0.06-0.24,0.3-0.39,0.54-0.34l2.83,0.65c0.24,0.06,0.39,0.3,0.34,0.54
						C50.43,64.29,50.25,64.43,50.04,64.43z M44.38,63.13c-0.03,0-0.07,0-0.1-0.01l-2.83-0.65c-0.24-0.06-0.39-0.3-0.34-0.54
						c0.06-0.24,0.3-0.39,0.54-0.34l2.83,0.65c0.24,0.06,0.39,0.3,0.34,0.54C44.77,62.99,44.58,63.13,44.38,63.13z M38.71,61.83
						c-0.03,0-0.07,0-0.1-0.01l-2.83-0.65c-0.24-0.06-0.39-0.3-0.34-0.54c0.06-0.24,0.3-0.39,0.54-0.34l2.83,0.65
						c0.24,0.06,0.39,0.3,0.34,0.54C39.1,61.69,38.92,61.83,38.71,61.83z"/>
				</g>
				<g>
					<path class="st2" d="M32.65,105.54c-0.13,0-0.26-0.06-0.35-0.17c-0.36-0.44-0.6-0.93-0.73-1.47c-0.06-0.24,0.09-0.48,0.33-0.54
						c0.24-0.06,0.48,0.09,0.54,0.33c0.1,0.41,0.29,0.79,0.56,1.12c0.16,0.19,0.13,0.48-0.06,0.63
						C32.85,105.51,32.75,105.54,32.65,105.54z"/>
				</g>
			</g>
			<g class="st3">
				<g>
					<path class="st2" d="M32.64,54.63C32.23,55.36,32,56.2,32,57.09v-1.8c0-1.04,0.31-2,0.85-2.8C32.51,53.28,32.46,54,32.64,54.63
						z"/>
				</g>
				<g>
					<path class="st4" d="M32.64,54.63C32.23,55.36,32,56.2,32,57.09v-1.8c0-1.04,0.31-2,0.85-2.8C32.51,53.28,32.46,54,32.64,54.63
						z"/>
				</g>
			</g>
			<g class="st3">
				<path class="st2" d="M100.71,76.14v1.8c0-2.45-1.69-4.59-4.08-5.15l-61.02-14c-0.01,0-0.01,0-0.02,0
					c-2.19-0.51-3.5-2.01-2.91-4.01c0.37,1.09,1.44,1.87,2.91,2.22c0.01,0,0.01,0,0.02,0l61.02,14
					C99.02,71.55,100.71,73.68,100.71,76.14z"/>
			</g>
			<g class="st3">
				<g>
					<path class="st2" d="M32.85,54.29c-0.07,0.16-0.13,0.32-0.17,0.48c-0.02-0.04-0.03-0.09-0.04-0.13
						C32.7,54.52,32.77,54.4,32.85,54.29z"/>
				</g>
				<g>
					<path class="st4" d="M32.85,54.29c-0.07,0.16-0.13,0.32-0.17,0.48c-0.02-0.04-0.03-0.09-0.04-0.13
						C32.7,54.52,32.77,54.4,32.85,54.29z"/>
				</g>
			</g>
			<g>
				<path class="st1" d="M95.43,125.12c-0.4,0-0.8-0.04-1.2-0.12c-0.05-0.01-0.12-0.02-0.19-0.04l-57.87-13.62
					c-2.85-0.67-4.84-3.18-4.84-6.11V55.29c0-1.14,0.33-2.23,0.96-3.18c0.19-0.29,0.58-0.38,0.88-0.22c0.31,0.17,0.44,0.54,0.3,0.86
					c-0.33,0.77-0.35,1.45-0.05,2.04c0.36,0.72,1.19,1.26,2.32,1.53c0.01,0,0.01,0,0.02,0l61.02,14c2.71,0.64,4.6,3.02,4.6,5.8
					v43.03c0,1.8-0.8,3.48-2.19,4.62C98.11,124.66,96.79,125.12,95.43,125.12z M32.67,56.09v49.14c0,2.3,1.56,4.28,3.8,4.8
					l57.89,13.62c0.05,0.01,0.08,0.02,0.12,0.03c1.38,0.28,2.78-0.06,3.86-0.94c1.08-0.88,1.7-2.18,1.7-3.57V76.13
					c0-2.15-1.46-4-3.56-4.49l-61.02-14c-0.01,0-0.01,0-0.02-0.01l0,0C34.25,57.36,33.3,56.82,32.67,56.09z"/>
			</g>
			<g>
				<g>
					<path class="st0" d="M104.64,72.63c0-1.4-0.55-2.72-1.56-3.7c-0.67-0.66-1.51-1.12-2.43-1.34L36.73,53.49h67.97
						c1.65,0,3.19,0.74,4.22,2.03c0.77,0.96,1.18,2.13,1.18,3.37v43.32c0,0.6-0.1,1.19-0.29,1.75c-0.52,1.51-1.68,2.71-3.17,3.28
						c-0.6,0.23-1.24,0.35-1.89,0.36l-0.11,0V72.63z"/>
				</g>
				<g>
					<g>
						<path class="st1" d="M104.7,53.6c1.67,0,3.16,0.78,4.13,1.99c0.73,0.9,1.16,2.05,1.16,3.3v43.32c0,0.6-0.1,1.18-0.29,1.72
							c-0.51,1.48-1.65,2.66-3.1,3.22c-0.57,0.22-1.2,0.34-1.85,0.35V72.63c0-1.46-0.6-2.81-1.59-3.78
							c-0.67-0.66-1.52-1.14-2.49-1.37L37.76,53.6H104.7 M104.7,53.37H37.76H35.7l2.01,0.44l62.91,13.89
							c0.9,0.21,1.72,0.66,2.38,1.31c0.98,0.96,1.52,2.25,1.52,3.62v34.85v0.23l0.23,0c0.66-0.01,1.31-0.13,1.93-0.37
							c1.53-0.58,2.7-1.81,3.24-3.35c0.2-0.57,0.3-1.18,0.3-1.79V58.89c0-1.27-0.42-2.46-1.21-3.44
							C107.95,54.13,106.39,53.37,104.7,53.37L104.7,53.37z"/>
					</g>
				</g>
			</g>
			<g class="st5">
				<path class="st1" d="M109.99,58.89v43.32c0,0.6-0.1,1.18-0.29,1.72c-0.51,1.48-1.65,2.66-3.1,3.22
					c-0.57,0.22-1.2,0.34-1.85,0.35V72.63c0-1.46-0.6-2.81-1.59-3.78v-9.48l1.2-0.67c2.86-0.08,5.05-0.62,4.47-3.11
					C109.56,56.49,109.99,57.64,109.99,58.89z"/>
			</g>
			<g>
				<path class="st1" d="M104.75,108.16c-0.18,0-0.35-0.07-0.47-0.19c-0.13-0.13-0.2-0.3-0.2-0.48V72.63c0-2.15-1.46-4-3.56-4.49
					l-62.9-13.89c-0.34-0.07-0.56-0.39-0.52-0.73c0.04-0.34,0.33-0.6,0.67-0.6h66.94c3.29,0,5.96,2.67,5.96,5.96v43.32
					c0,0.66-0.11,1.32-0.32,1.94c-0.57,1.67-1.85,2.99-3.5,3.62C106.18,108.02,105.48,108.15,104.75,108.16
					C104.76,108.16,104.75,108.16,104.75,108.16z M43.94,54.27l56.88,12.56c2.71,0.64,4.6,3.02,4.6,5.8v34.12
					c0.32-0.05,0.63-0.13,0.93-0.25c1.28-0.49,2.26-1.51,2.71-2.81c0.17-0.48,0.25-0.99,0.25-1.5V58.89c0-2.54-2.07-4.61-4.61-4.61
					H43.94z"/>
			</g>
			<g class="st5">
				<polygon class="st1" points="38.89,53.85 52.2,53.85 52.74,56.57 				"/>
			</g>
			<g class="st5">
				<path class="st1" d="M60.87,58.7h0.65h3.46h28.86h3.46h6.33c5.05,0.1,6.04-1.63,4.81-3.55c-1.58-2.03-5.47-1.87-10.03-1.07
					L60.87,58.7z"/>
			</g>
			<g>
				<g>
					<path class="st6" d="M96.93,124.76c-0.84,0-1.71-0.1-2.59-0.3l0.05-0.22c0.35,0.07,0.7,0.11,1.05,0.11
						c2.85,0,5.16-2.32,5.16-5.18V76.13c0-0.8-0.19-1.6-0.55-2.32c-0.69-1.38-1.94-2.37-3.44-2.72L35.55,57.09
						c-1.35-0.31-2.36-1-2.83-1.93c-0.4-0.79-0.39-1.73,0.03-2.71c0.97-1.46,2.58-2.32,4.31-2.32h71.17c2.98,0,5.4,2.42,5.4,5.4
						v43.32c0.08,5.69-2.3,7.29-7,8.4l-0.07-0.21c1.43-0.55,2.54-1.7,3.04-3.15c0.19-0.54,0.28-1.11,0.28-1.68V58.89
						c0-0.47-0.06-0.94-0.19-1.38l0-0.01v0c-0.62-2.23-2.67-3.78-4.98-3.78H38.79l61.91,13.67c1.71,0.4,3.12,1.62,3.78,3.25
						c0.26,0.64,0.39,1.31,0.39,2.01v42.82c0.19,2.89-0.54,5.31-2.11,6.98C101.33,123.95,99.31,124.76,96.93,124.76z"/>
				</g>
				<g>
					<g>
						<path class="st1" d="M108.22,50.24c2.92,0,5.29,2.37,5.29,5.29v43.32c0.08,5.72-2.41,7.23-6.91,8.29
							c1.45-0.56,2.6-1.74,3.1-3.22c0.19-0.54,0.29-1.12,0.29-1.72V58.89c0-0.49-0.07-0.96-0.19-1.41v0
							c-0.62-2.23-2.67-3.88-5.1-3.88H37.76l62.91,13.89c1.72,0.4,3.07,1.62,3.7,3.18c0.25,0.61,0.38,1.28,0.38,1.96v42.82
							c0.38,5.88-3.07,9.19-7.82,9.19c-0.82,0-1.68-0.1-2.57-0.3c0.36,0.07,0.72,0.11,1.07,0.11c2.84,0,5.28-2.3,5.28-5.29V76.13
							c0-0.84-0.2-1.65-0.56-2.37c-0.68-1.37-1.95-2.41-3.52-2.78l-61.02-14c-0.01,0-0.01,0-0.02,0c-2.36-0.55-3.7-2.25-2.74-4.49
							c0.9-1.36,2.45-2.25,4.2-2.25H108.22 M108.22,50.02H37.05c-1.77,0-3.41,0.88-4.39,2.35l-0.01,0.02l-0.01,0.02
							c-0.43,1.01-0.44,1.98-0.02,2.8c0.49,0.96,1.52,1.67,2.91,1.99l0.01,0l0.02,0l0,0l61.02,14c1.47,0.34,2.69,1.31,3.37,2.66
							c0.35,0.7,0.54,1.48,0.54,2.27v43.03c0,2.79-2.27,5.06-5.05,5.06c-0.34,0-0.68-0.04-1.02-0.1l-0.09,0.44
							c0.89,0.2,1.77,0.31,2.62,0.31c2.41,0,4.46-0.82,5.91-2.36c1.59-1.69,2.33-4.13,2.14-7.06V72.63c0-0.71-0.13-1.4-0.4-2.05
							c-0.67-1.67-2.11-2.91-3.85-3.32L39.82,53.82h64.88c2.26,0,4.26,1.51,4.87,3.68v0l0.01,0.03c0.12,0.43,0.18,0.88,0.18,1.35
							v43.32c0,0.56-0.09,1.12-0.28,1.64c-0.49,1.42-1.57,2.54-2.97,3.08l0.13,0.43c1.96-0.46,3.95-1.08,5.28-2.46
							c1.27-1.32,1.84-3.24,1.8-6.05V55.53C113.73,52.49,111.26,50.02,108.22,50.02L108.22,50.02z"/>
					</g>
				</g>
			</g>
			<g class="st3">
				<g>
					<path class="st2" d="M100.71,119.16v1.4c0,1.53-0.64,2.89-1.65,3.84c-1.41,0.33-3,0.32-4.69-0.06
						C97.63,125.01,100.71,122.52,100.71,119.16z"/>
				</g>
				<g>
					<path class="st4" d="M100.71,119.16v1.4c0,1.53-0.64,2.89-1.65,3.84c-1.41,0.33-3,0.32-4.69-0.06
						C97.63,125.01,100.71,122.52,100.71,119.16z"/>
				</g>
			</g>
			<g class="st3">
				<g>
					<path class="st2" d="M104.75,115.45c0.04,0.55,0.04,1.07,0.01,1.57c0-0.06,0-0.11-0.01-0.17V115.45z"/>
				</g>
				<g>
					<path class="st4" d="M104.75,115.45c0.04,0.55,0.04,1.07,0.01,1.57c0-0.06,0-0.11-0.01-0.17V115.45z"/>
				</g>
			</g>
			<g class="st3">
				<g>
					<path class="st2" d="M109.7,103.92c0.19-0.54,0.29-1.12,0.29-1.72v1.4c0,0.6-0.1,1.18-0.29,1.72
						c-0.12,0.36-0.29,0.71-0.48,1.03c-0.78,0.31-1.65,0.56-2.62,0.79C108.05,106.58,109.2,105.4,109.7,103.92z"/>
				</g>
				<g>
					<path class="st4" d="M109.7,103.92c0.19-0.54,0.29-1.12,0.29-1.72v1.4c0,0.6-0.1,1.18-0.29,1.72
						c-0.12,0.36-0.29,0.71-0.48,1.03c-0.78,0.31-1.65,0.56-2.62,0.79C108.05,106.58,109.2,105.4,109.7,103.92z"/>
				</g>
			</g>
			<g class="st3">
				<path class="st2" d="M113.51,55.53v1.4c0-2.92-2.37-5.29-5.29-5.29H37.05c-1.75,0-3.3,0.89-4.2,2.25
					c-0.1,0.24-0.18,0.46-0.23,0.69c-0.16-0.62-0.1-1.32,0.23-2.09c0.9-1.36,2.45-2.25,4.2-2.25h71.17
					C111.14,50.24,113.51,52.61,113.51,55.53z"/>
			</g>
			<g class="st5">
				<path class="st1" d="M104.75,115.45c0.44,6.9-4.38,10.26-10.39,8.89c3.26,0.67,6.34-1.83,6.34-5.18V76.14
					c0-0.84-0.2-1.65-0.56-2.37c-0.49-3.39,2.04-4.82,4.22-3.1c0.25,0.61,0.38,1.28,0.38,1.96V115.45z"/>
			</g>
			<g>
				<path class="st1" d="M96.95,125.32c-0.88,0-1.79-0.11-2.73-0.32c-0.36-0.08-0.59-0.44-0.51-0.8c0.08-0.36,0.43-0.59,0.79-0.52
					c1.36,0.28,2.76-0.07,3.84-0.95c1.08-0.88,1.7-2.18,1.7-3.57V76.13c0-2.15-1.46-4-3.56-4.49l-61.02-14c-0.01,0-0.01,0-0.02-0.01
					l0,0c-1.53-0.36-2.67-1.15-3.22-2.23c-0.48-0.95-0.47-2.05,0.01-3.18c0.02-0.04,0.04-0.07,0.06-0.11
					c1.07-1.6,2.85-2.55,4.76-2.55h71.17c3.29,0,5.96,2.67,5.96,5.96v43.32c0.08,6-2.66,7.82-7.43,8.95
					c-0.34,0.08-0.69-0.12-0.8-0.46c-0.1-0.34,0.07-0.7,0.4-0.83c1.28-0.49,2.26-1.51,2.71-2.81c0.17-0.48,0.25-0.99,0.25-1.5V58.89
					c0-2.54-2.07-4.61-4.61-4.61H43.94l56.88,12.56c2.71,0.64,4.6,3.02,4.6,5.8v42.8c0.21,3.38-0.8,6.2-2.87,7.96
					C101.06,124.66,99.13,125.32,96.95,125.32z M35.76,56.33l61.02,14c2.71,0.64,4.6,3.02,4.6,5.8v43.03c0,1.72-0.73,3.33-2,4.46
					c0.86-0.27,1.64-0.69,2.31-1.26c1.76-1.5,2.59-3.87,2.39-6.87c0-0.01,0-0.03,0-0.04V72.63c0-2.15-1.46-4-3.56-4.49l-62.9-13.89
					c-0.34-0.07-0.56-0.39-0.52-0.73c0.04-0.34,0.33-0.6,0.67-0.6h66.94c3.29,0,5.96,2.67,5.96,5.96v43.32
					c0,0.66-0.11,1.32-0.32,1.94c-0.15,0.43-0.35,0.85-0.59,1.23c2.12-1.09,3.13-2.87,3.08-6.51l0-43.33c0-2.54-2.07-4.61-4.61-4.61
					H37.05c-1.45,0-2.79,0.71-3.61,1.9c-0.31,0.74-0.31,1.41-0.02,1.98c0.36,0.72,1.19,1.26,2.32,1.53
					C35.74,56.32,35.75,56.33,35.76,56.33L35.76,56.33z"/>
			</g>
			<g>
				<path class="st1" d="M104.03,59.38c-0.14,0-0.27,0-0.42,0l-42.75,0c-0.37,0-0.67-0.3-0.67-0.67c0-0.37,0.3-0.67,0.67-0.67h42.76
					c3.48,0.06,4.32-0.74,4.51-1.1c0.25-0.44-0.01-1.01-0.27-1.42c-0.2-0.31-0.11-0.73,0.2-0.93s0.73-0.11,0.93,0.21
					c0.83,1.3,0.63,2.24,0.31,2.8C108.65,58.78,106.88,59.38,104.03,59.38z"/>
			</g>
			<g>
				<g>
					<g>
						<path class="st7" d="M88.87,58.7l-24.1,0.17l-0.04-0.01l-5.42-1.2l-2.94-0.65l-3.61-0.8L52.2,53.6l-0.71-3.36l-3.25-15.27
							c-0.07-0.31,0.13-0.62,0.45-0.69l17.08-3.64l2.6-0.55l7.22-1.54l3.33-0.71h0l2.68-0.57c0.31-0.07,0.62,0.13,0.69,0.45
							l0.21,0.98l0.34,1.58l4.25,19.95l0.71,3.36L88.87,58.7z"/>
					</g>
					<g>
						<path class="st1" d="M64.75,58.98l-0.05-0.01l-12.04-2.66l-1.29-6.05L48.12,35c-0.08-0.37,0.16-0.74,0.53-0.82l30.24-6.43
							l2.66-0.57c0.37-0.08,0.74,0.16,0.82,0.53l6.62,31.11l-0.14,0L64.75,58.98z M52.85,56.12l11.93,2.63l23.95-0.17l-6.57-30.84
							c-0.03-0.12-0.1-0.23-0.2-0.3c-0.11-0.07-0.23-0.09-0.35-0.06l-32.9,7c-0.25,0.05-0.41,0.3-0.36,0.56L52.85,56.12z"/>
					</g>
				</g>
				<g class="st3">
					<path class="st2" d="M82.39,28.29l-2.01,0.43h0l-10.54,2.24l-19.67,4.19c-0.31,0.07-0.52,0.38-0.45,0.69l3.25,15.27l0.71,3.36
						l0.43,2.05l-1.37-0.3L52.2,53.6l-0.71-3.36l-3.25-15.27c-0.07-0.31,0.13-0.62,0.45-0.69l19.67-4.19l10.54-2.24h0l2.68-0.57
						c0.31-0.07,0.62,0.13,0.69,0.45L82.39,28.29z"/>
				</g>
				<g>
					<g>
						<path class="st8" d="M85.42,58.7l-20.7,0.16l-8.36-1.85l-0.73-3.42l-0.71-3.36L52.74,40c1.66-0.35,2.71-1.98,2.36-3.64
							l12.38-2.63l9.07-1.93c0.35,1.66,1.98,2.71,3.64,2.36l3.42,16.09l0.71,3.36L85.42,58.7z"/>
					</g>
					<g>
						<path class="st1" d="M64.71,58.97l-0.01,0l-8.43-1.86l-1.46-6.85l-2.2-10.35l0.11-0.02c1.59-0.34,2.61-1.91,2.28-3.51
							l-0.02-0.11l0.11-0.02l21.56-4.59l0.02,0.11c0.34,1.59,1.91,2.61,3.51,2.28l0.11-0.02l0.02,0.11l5.25,24.68L64.71,58.97z
							 M56.46,56.92l8.28,1.83l20.55-0.16l-5.17-24.3c-1.64,0.29-3.24-0.74-3.64-2.36l-21.23,4.52c0.29,1.64-0.74,3.24-2.36,3.64
							L56.46,56.92z"/>
					</g>
				</g>
				<g class="st5">
					<polygon class="st1" points="88.87,58.7 64.76,58.87 64.73,58.86 59.3,57.66 65.76,30.64 68.35,30.09 75.57,28.56 82.82,30.29 
						87.07,50.24 87.78,53.6 					"/>
				</g>
				<g>
					<path class="st1" d="M88.87,59.37c-0.31,0-0.59-0.22-0.66-0.53l-6.58-30.89l-2.59,0.55c-0.01,0-0.02,0-0.03,0.01l-30.1,6.41
						l4.66,21.88c0.08,0.36-0.15,0.72-0.52,0.8c-0.36,0.08-0.72-0.15-0.8-0.52l-4.68-21.97c-0.14-0.68,0.29-1.35,0.96-1.49
						l30.22-6.43c0.01,0,0.02,0,0.02,0l2.66-0.57c0.33-0.07,0.66-0.01,0.94,0.17c0.28,0.18,0.48,0.46,0.55,0.79l6.59,30.98
						c0.08,0.36-0.15,0.72-0.52,0.8C88.96,59.37,88.91,59.37,88.87,59.37z"/>
				</g>
				<g>
					<path class="st1" d="M85.42,59.26c-0.26,0-0.49-0.18-0.55-0.44l-5.12-24.04c-1.57,0.09-3.03-0.86-3.59-2.33L55.73,36.8
						c0.09,1.57-0.86,3.03-2.33,3.59l3.67,17.23c0.06,0.3-0.13,0.6-0.43,0.67c-0.3,0.06-0.6-0.13-0.67-0.43L52.2,40.11
						c-0.03-0.15,0-0.3,0.08-0.42c0.08-0.12,0.21-0.21,0.35-0.24c1.35-0.29,2.22-1.62,1.93-2.98c-0.06-0.3,0.13-0.6,0.43-0.67
						l21.45-4.56c0.15-0.03,0.3,0,0.42,0.08c0.12,0.08,0.21,0.21,0.24,0.35c0.29,1.35,1.62,2.22,2.98,1.93
						c0.3-0.06,0.6,0.13,0.67,0.43l5.23,24.55c0.06,0.3-0.13,0.6-0.43,0.67C85.5,59.26,85.46,59.26,85.42,59.26z"/>
				</g>
			</g>
			<g>
				<path class="st7" d="M103.15,34.24l-3.5,14.64L97.3,58.7H61.52l7.77-32.55c0.07-0.31,0.39-0.51,0.7-0.43l32.72,7.82
					C103.03,33.61,103.22,33.93,103.15,34.24z"/>
			</g>
			<g class="st3">
				<path class="st2" d="M103.15,34.24l-0.16,0.68l-32.01-7.65c-0.31-0.07-0.63,0.12-0.7,0.43l-7.4,30.99h-1.35l7.77-32.55
					c0.07-0.31,0.39-0.51,0.7-0.43l32.72,7.82C103.03,33.61,103.22,33.93,103.15,34.24z"/>
			</g>
			<g>
				<path class="st1" d="M97.3,59.37H61.52c-0.21,0-0.4-0.09-0.53-0.26c-0.13-0.16-0.17-0.37-0.13-0.57L68.64,26
					c0.16-0.67,0.84-1.09,1.51-0.93l32.72,7.82c0.67,0.16,1.09,0.84,0.93,1.51c0,0,0,0,0,0l-5.84,24.46
					C97.89,59.16,97.62,59.37,97.3,59.37z M62.37,58.03h34.4l5.7-23.85L69.93,26.4L62.37,58.03z M103.15,34.24L103.15,34.24
					L103.15,34.24z"/>
			</g>
			<g class="st5">
				<path class="st1" d="M113.51,56.11v42.74c0.08,5.72-2.41,7.23-6.91,8.29c1.45-0.56,2.6-1.74,3.1-3.22
					c0.19-0.54,0.29-1.12,0.29-1.72V58.89c0-0.49-0.07-0.96-0.19-1.41v0C109.99,53.81,112.44,51.31,113.51,56.11z"/>
			</g>
			<g>
				<path class="st8" d="M98.51,39.15L93.84,58.7H64.98l6.23-26.07c1.65,0.39,3.31-0.62,3.7-2.27l21.33,5.09
					C95.84,37.1,96.86,38.76,98.51,39.15z"/>
			</g>
			<g>
				<path class="st7" d="M82.12,48.33c-4.3-0.82-8.45,2-9.28,6.3c-0.27,1.41-0.14,2.8,0.29,4.07h14.99c0.12-0.35,0.22-0.72,0.29-1.1
					C89.24,53.3,86.42,49.15,82.12,48.33z"/>
			</g>
			<g>
				<path class="st8" d="M78.49,58.62c-1.03-0.2-1.83-0.97-1.98-2.3l-1.25-0.24l0.3-1.6l1.06,0.2c0.19-0.88,0.58-1.69,0.91-2.08
					l1.46,0.67c-0.35,0.45-0.75,1.16-0.9,1.95c-0.16,0.85,0.1,1.36,0.64,1.47c0.51,0.1,0.87-0.24,1.41-1.15
					c0.73-1.27,1.65-2.01,2.84-1.78c1.13,0.21,1.89,1.15,1.95,2.51l1.26,0.24l-0.3,1.6l-1.17-0.22c-0.18,0.63-0.43,1.1-0.68,1.45
					l-1.41-0.7c0.22-0.3,0.56-0.84,0.72-1.64c0.15-0.8-0.14-1.26-0.56-1.34c-0.52-0.1-0.84,0.32-1.44,1.3
					C80.53,58.3,79.64,58.84,78.49,58.62z"/>
			</g>
			<g>
				<circle class="st7" cx="83.72" cy="39.94" r="2.26"/>
			</g>
			<g class="st5">
				<path class="st1" d="M101.67,48.78l-2.34,9.81H84.64c-0.64-1.3-1-2.77-1-4.32c0-5.44,4.41-9.85,9.85-9.85
					C96.9,44.43,99.9,46.16,101.67,48.78z"/>
			</g>
			<g>
				<path class="st1" d="M93.84,59.26H64.98c-0.17,0-0.33-0.08-0.44-0.21c-0.11-0.13-0.15-0.31-0.11-0.48l6.23-26.07
					c0.07-0.3,0.37-0.49,0.68-0.42c1.35,0.32,2.7-0.51,3.02-1.86c0.03-0.14,0.13-0.27,0.25-0.35c0.13-0.08,0.28-0.1,0.42-0.07
					l21.33,5.09c0.3,0.07,0.49,0.37,0.42,0.68c-0.32,1.35,0.51,2.7,1.86,3.02c0.14,0.03,0.27,0.13,0.35,0.25
					c0.08,0.13,0.1,0.28,0.07,0.42l-4.67,19.55C94.32,59.08,94.1,59.26,93.84,59.26z M65.69,58.14h27.7l4.45-18.61
					c-1.45-0.6-2.37-2.08-2.24-3.65l-20.32-4.85c-0.6,1.45-2.08,2.37-3.65,2.24L65.69,58.14z"/>
			</g>
			<g class="st5">
				<path class="st1" d="M98.91,79.56v39.6c0,1.93-1.56,3.49-3.48,3.49c-0.24,0-0.47-0.02-0.71-0.07l-0.05-0.01l-57.94-13.63
					c-0.25-0.06-0.49-0.14-0.73-0.25C60.84,109.53,85.6,99.42,98.91,79.56z"/>
			</g>
		</g>
		<g>
			<g>
				<g>
					<path class="st9" d="M107.81,55.65c-1.25,5.7-6.89,9.31-12.59,8.06c-1.68-0.37-3.17-1.11-4.42-2.13
						c-0.92-0.75-1.71-1.66-2.33-2.66c-0.3-0.49-0.56-1-0.78-1.53c-0.76-1.85-1-3.93-0.59-6.03c0.02-0.08,0.03-0.16,0.05-0.24
						c1.25-5.71,6.89-9.32,12.59-8.07c0.6,0.13,1.17,0.31,1.72,0.53c1.95,0.79,3.58,2.13,4.72,3.8c0.32,0.47,0.61,0.97,0.86,1.49
						c0.5,1.06,0.83,2.21,0.95,3.41C108.12,53.38,108.06,54.52,107.81,55.65z"/>
				</g>
				<g>
					<path class="st4" d="M107.81,55.65c-1.25,5.7-6.89,9.31-12.59,8.06c-1.68-0.37-3.17-1.11-4.42-2.13
						c-0.92-0.75-1.71-1.66-2.33-2.66c-0.3-0.49-0.56-1-0.78-1.53c-0.76-1.85-1-3.93-0.59-6.03c0.02-0.08,0.03-0.16,0.05-0.24
						c1.25-5.71,6.89-9.32,12.59-8.07c0.6,0.13,1.17,0.31,1.72,0.53c1.95,0.79,3.58,2.13,4.72,3.8c0.32,0.47,0.61,0.97,0.86,1.49
						c0.5,1.06,0.83,2.21,0.95,3.41C108.12,53.38,108.06,54.52,107.81,55.65z"/>
				</g>
			</g>
			<g class="st3">
				<path class="st2" d="M107.81,55.65c-0.06,0.26-0.12,0.51-0.2,0.76c0.78-5.43-2.76-10.62-8.2-11.82
					c-5.45-1.19-10.83,2.05-12.39,7.3c0.04-0.26,0.08-0.52,0.14-0.77c1.25-5.71,6.89-9.32,12.59-8.07
					C105.45,44.31,109.06,49.95,107.81,55.65z"/>
			</g>
			<g>
				<path class="st10" d="M107.81,55.65c-1.25,5.7-6.89,9.31-12.59,8.06c-5.7-1.25-9.31-6.89-8.06-12.59
					c0.11-0.49,0.25-0.97,0.42-1.43c-0.39,5.17,3.07,9.97,8.28,11.11c5.21,1.14,10.36-1.77,12.17-6.63
					C107.99,54.67,107.92,55.16,107.81,55.65z"/>
			</g>
			<g>
				<g>
					<path class="st11" d="M95.91,60.59c-3.97-0.87-6.49-4.81-5.62-8.78c0.87-3.97,4.81-6.49,8.78-5.62s6.49,4.81,5.62,8.78
						C103.82,58.94,99.88,61.46,95.91,60.59z"/>
				</g>
				<g>
					<path class="st4" d="M95.91,60.59c-3.97-0.87-6.49-4.81-5.62-8.78c0.87-3.97,4.81-6.49,8.78-5.62s6.49,4.81,5.62,8.78
						C103.82,58.94,99.88,61.46,95.91,60.59z"/>
				</g>
			</g>
			<g class="st3">
				<path class="st2" d="M104.69,54.97c-0.04,0.19-0.09,0.38-0.15,0.57c0.52-3.77-1.95-7.37-5.73-8.2
					c-3.78-0.83-7.52,1.42-8.63,5.05c0.03-0.19,0.06-0.39,0.1-0.58c0.87-3.97,4.81-6.49,8.78-5.62S105.56,51,104.69,54.97z"/>
			</g>
			<g>
				<path class="st1" d="M99.71,55.53c-0.21,0.94-0.94,1.66-2.16,1.77l-0.25,1.15l-1.46-0.32l0.21-0.97
					c-0.81-0.2-1.54-0.58-1.89-0.89l0.65-1.32c0.4,0.33,1.05,0.72,1.78,0.88c0.78,0.17,1.26-0.06,1.37-0.55
					c0.1-0.47-0.2-0.81-1.02-1.33c-1.15-0.71-1.81-1.57-1.57-2.66c0.23-1.03,1.1-1.71,2.36-1.74l0.25-1.15l1.46,0.32l-0.23,1.07
					c0.58,0.18,1,0.42,1.32,0.66l-0.68,1.28c-0.27-0.21-0.76-0.54-1.49-0.7c-0.73-0.16-1.16,0.09-1.25,0.48
					c-0.1,0.48,0.27,0.78,1.16,1.36C99.47,53.65,99.94,54.48,99.71,55.53z"/>
			</g>
			<g class="st12">
				<path class="st13" d="M106.19,47.39l-18.49,10c-0.76-1.85-1-3.93-0.59-6.03l14.36-7.77C103.43,44.39,105.05,45.73,106.19,47.39z
					"/>
			</g>
			<g class="st12">
				<path class="st13" d="M107.82,51.16l-17.39,10c-0.92-0.75-1.34-1.23-1.96-2.24l18.57-10.04
					C107.55,49.94,107.7,49.96,107.82,51.16z"/>
			</g>
			<g>
				<path class="st1" d="M97.49,61.32c-0.56,0-1.13-0.06-1.7-0.18c-2.07-0.45-3.84-1.69-4.98-3.47c-1.14-1.79-1.52-3.91-1.07-5.98
					c0.45-2.07,1.69-3.84,3.47-4.98c1.79-1.14,3.91-1.52,5.98-1.07c2.07,0.45,3.84,1.69,4.98,3.47c1.14,1.79,1.52,3.91,1.07,5.98
					C104.42,58.79,101.13,61.32,97.49,61.32z M97.48,46.58c-1.29,0-2.55,0.37-3.66,1.08c-1.53,0.98-2.59,2.5-2.98,4.27
					c-0.39,1.77-0.06,3.6,0.92,5.13c0.98,1.53,2.5,2.59,4.27,2.98c0.49,0.11,0.98,0.16,1.46,0.16c3.13,0,5.96-2.17,6.65-5.35
					c0.39-1.77,0.06-3.6-0.92-5.13c-0.98-1.53-2.5-2.59-4.27-2.98C98.46,46.63,97.97,46.58,97.48,46.58z"/>
			</g>
			<g>
				<path class="st1" d="M97.49,64.64c-0.79,0-1.6-0.08-2.41-0.26c-1.74-0.38-3.32-1.14-4.7-2.27c-0.98-0.8-1.81-1.75-2.48-2.83
					c-0.32-0.51-0.59-1.06-0.83-1.63c-0.84-2.03-1.05-4.25-0.63-6.42c0.02-0.09,0.03-0.17,0.05-0.25c1.33-6.06,7.33-9.91,13.39-8.58
					c0.63,0.14,1.24,0.33,1.83,0.57c2.03,0.82,3.77,2.22,5.02,4.04c0.34,0.5,0.65,1.03,0.91,1.58c0.54,1.15,0.89,2.37,1.02,3.63
					c0.13,1.19,0.06,2.39-0.2,3.58C107.32,61.05,102.66,64.64,97.49,64.64z M97.49,43.49c-4.55,0-8.66,3.16-9.67,7.78
					c-0.02,0.07-0.03,0.14-0.04,0.21c-0.38,1.91-0.18,3.87,0.55,5.66c0.2,0.5,0.45,0.98,0.73,1.43c0.59,0.95,1.32,1.79,2.18,2.5
					c1.21,0.99,2.6,1.66,4.14,1.99c0.71,0.16,1.42,0.23,2.12,0.23c4.55,0,8.66-3.16,9.67-7.78l0,0c0.23-1.05,0.29-2.11,0.18-3.15
					c-0.11-1.11-0.41-2.18-0.89-3.19c-0.23-0.48-0.5-0.95-0.8-1.39c-1.1-1.6-2.63-2.83-4.42-3.55c-0.52-0.21-1.06-0.38-1.61-0.5
					C98.89,43.56,98.18,43.49,97.49,43.49z"/>
			</g>
		</g>
		<g>
			<g>
				<g>
					<path class="st9" d="M122.56,95.74l-1.96-1.65c-0.47-0.39-0.54-1.08-0.18-1.56c0.01-0.02,0.03-0.03,0.04-0.05l9.46-11.26
						c0.4-0.48,1.12-0.55,1.61-0.14l1.96,1.65c0.48,0.41,0.54,1.13,0.14,1.61l-9.46,11.26C123.76,96.08,123.04,96.15,122.56,95.74z"
						/>
				</g>
				<g>
					<path class="st1" d="M123.29,96.12c-0.28,0-0.57-0.1-0.8-0.29l-1.96-1.65c-0.51-0.43-0.6-1.18-0.2-1.71
						c0.01-0.02,0.03-0.04,0.04-0.06l9.46-11.26c0.44-0.53,1.24-0.6,1.77-0.15l1.96,1.65c0.53,0.44,0.6,1.24,0.15,1.77l-9.46,11.26
						C124.01,95.97,123.65,96.12,123.29,96.12z M122.63,95.66c0.43,0.36,1.08,0.31,1.45-0.13l9.46-11.26
						c0.36-0.43,0.31-1.08-0.13-1.45l-1.96-1.65c-0.43-0.36-1.08-0.31-1.45,0.13l-9.46,11.26c-0.01,0.01-0.02,0.03-0.04,0.04
						c-0.33,0.44-0.26,1.05,0.16,1.4L122.63,95.66z"/>
				</g>
			</g>
			<g>
				
					<rect x="121.57" y="88.73" transform="matrix(0.6433 -0.7657 0.7657 0.6433 -25.2855 128.0292)" class="st10" width="6.36" height="4.84"/>
			</g>
			<g class="st3">
				
					<rect x="128.74" y="82.13" transform="matrix(0.6433 -0.7657 0.7657 0.6433 -18.2625 129.9179)" class="st13" width="3.09" height="4.84"/>
			</g>
			<g>
				<path class="st1" d="M123.29,96.68c-0.43,0-0.83-0.15-1.16-0.43l-1.96-1.65c-0.37-0.31-0.6-0.75-0.64-1.23
					c-0.04-0.48,0.11-0.95,0.42-1.32l9.46-11.26c0.64-0.77,1.79-0.87,2.56-0.22l1.96,1.65c0.37,0.31,0.6,0.75,0.64,1.23
					c0.04,0.48-0.11,0.95-0.42,1.32l-9.46,11.26c-0.31,0.37-0.75,0.6-1.23,0.64C123.4,96.68,123.34,96.68,123.29,96.68z
					 M130.79,81.5c-0.13,0-0.27,0.06-0.36,0.17l-9.46,11.26l0,0c-0.08,0.1-0.12,0.22-0.11,0.34c0.01,0.12,0.07,0.24,0.16,0.32
					l1.96,1.65c0.1,0.08,0.22,0.12,0.34,0.11c0.12-0.01,0.24-0.07,0.32-0.16l9.46-11.26c0.08-0.1,0.12-0.22,0.11-0.34
					c-0.01-0.12-0.07-0.24-0.16-0.32l-1.96-1.65C131,81.53,130.9,81.5,130.79,81.5z M120.46,92.49L120.46,92.49L120.46,92.49z"/>
			</g>
		</g>
		<g>
			<g>
				<g>
					<path class="st9" d="M34.32,79.57c-3.73-4.05-8.06-6.25-10.21-5.29l0,0c0,0-2.99,0.65-4.05,3.98
						c-1.26,2.17,0.53,6.61,4.34,10.75c2.92,3.17,6.21,5.21,8.53,5.48l0,0c0,0,3.58,0.99,5.75-4.2
						C39.93,88.28,38.11,83.69,34.32,79.57z"/>
				</g>
				<g>
					<path class="st1" d="M33.62,94.67c-0.43,0-0.71-0.07-0.72-0.07c-2.43-0.29-5.72-2.4-8.58-5.51c-3.84-4.18-5.63-8.65-4.36-10.87
						c1.04-3.24,3.91-3.99,4.12-4.04c2.24-0.98,6.58,1.25,10.33,5.32l0,0c3.78,4.11,5.66,8.78,4.37,10.85
						C37.18,94.16,34.8,94.67,33.62,94.67z M25.27,74.17c-0.42,0-0.79,0.07-1.11,0.21l-0.02,0.01c-0.03,0.01-2.94,0.67-3.97,3.9
						l-0.01,0.02c-1.24,2.14,0.54,6.51,4.32,10.62c2.78,3.03,6.1,5.17,8.46,5.45c0.05,0.01,3.53,0.9,5.63-4.14
						c1.25-2.01-0.62-6.55-4.34-10.6C31.16,76.31,27.58,74.17,25.27,74.17z"/>
				</g>
			</g>
			<g>
				<path class="st10" d="M29.02,87.29l-3.07,3.45l5.58,3.95c0,0,3.09-2.55,3.34-3.17C34.86,91.53,28.86,88.78,29.02,87.29z"/>
			</g>
			<g class="st3">
				<polygon class="st13" points="23.69,79.28 20.73,83.84 23.04,87.51 25.83,84 				"/>
			</g>
			<g class="st3">
				<path class="st2" d="M23.11,76.6c0,0-1.78,0.7-2.05,3.12c0,0-0.79,2.33,0.58,4.47c0,0-1.84-3.77-1.97-4.08
					c-0.12-0.31,1.25-4.26,1.25-4.26l1.32-0.67L23.11,76.6z"/>
			</g>
			<g class="st3">
				<path class="st2" d="M29.29,76.31c0,0-2.02-0.8-3.69-0.81c-0.92-0.01-1.66,0.73-1.63,1.65c0.04,1.21,0.45,3.29,2.14,6.46
					l-2.96-5.05c0,0-0.31-3.38,0.57-4.2C23.71,74.36,27.34,73.76,29.29,76.31z"/>
			</g>
			<g>
				<g>
					
						<ellipse transform="matrix(0.7345 -0.6786 0.6786 0.7345 -47.7373 42.6277)" class="st11" cx="30.61" cy="82.33" rx="2.36" ry="6.75"/>
				</g>
				<g>
					<path class="st1" d="M34.44,87.65c-1.33,0-3.56-1.4-5.64-3.65c-2.61-2.83-3.86-5.78-2.84-6.72c1.02-0.94,3.86,0.54,6.47,3.36
						c2.61,2.83,3.86,5.78,2.84,6.72C35.06,87.56,34.78,87.65,34.44,87.65z M26.79,77.23c-0.28,0-0.51,0.07-0.67,0.22
						c-0.89,0.83,0.41,3.76,2.85,6.4c2.44,2.64,5.26,4.18,6.15,3.35c0.89-0.83-0.41-3.76-2.85-6.4
						C30.27,78.65,28.03,77.23,26.79,77.23z"/>
				</g>
			</g>
			<g>
				<path class="st1" d="M34.44,87.89c-1.55,0-3.95-1.71-5.81-3.73c-2.33-2.53-4.12-5.85-2.83-7.05c1.29-1.19,4.47,0.85,6.8,3.38
					c2.33,2.53,4.12,5.85,2.83,7.05C35.17,87.78,34.83,87.89,34.44,87.89z M26.79,77.46c-0.22,0-0.4,0.05-0.52,0.16
					c-0.7,0.65,0.31,3.3,2.87,6.07c2.49,2.69,5.13,3.98,5.82,3.34c0.7-0.65-0.31-3.3-2.87-6.07C30.03,78.73,27.86,77.46,26.79,77.46
					z"/>
			</g>
			<g>
				<path class="st1" d="M32.2,81.83c0.44,0.47,0.64,1.08,0.38,1.7l0.56,0.6l-0.56,0.59l-0.48-0.52c-0.33,0.32-0.76,0.53-1.03,0.57
					l-0.55-0.9c0.31-0.06,0.71-0.21,1-0.49c0.31-0.3,0.31-0.61,0.08-0.86c-0.22-0.24-0.49-0.24-1-0.08
					c-0.72,0.24-1.4,0.18-1.92-0.39c-0.48-0.53-0.56-1.2-0.17-1.75l-0.52-0.56l0.62-0.46l0.48,0.51c0.26-0.16,0.51-0.23,0.72-0.27
					l0.46,0.77c-0.18,0.03-0.49,0.1-0.79,0.34c-0.31,0.25-0.3,0.53-0.12,0.73c0.22,0.24,0.5,0.2,1.06,0.04
					C31.16,81.19,31.71,81.31,32.2,81.83z"/>
			</g>
			<g>
				<defs>
					
						<ellipse id="SVGID_00000127722634671185851170000003285355308141944727_" transform="matrix(0.7361 -0.6768 0.6768 0.7361 -47.788 42.7632)" cx="30.95" cy="82.67" rx="4.58" ry="10.92"/>
				</defs>
				<clipPath id="SVGID_00000084506726343414622740000006378593839887722898_">
					<use xlink:href="#SVGID_00000127722634671185851170000003285355308141944727_"  style="overflow:visible;"/>
				</clipPath>
				<g style="opacity:0.27;clip-path:url(#SVGID_00000084506726343414622740000006378593839887722898_);">
					<path class="st13" d="M38.91,84.19l-18.02-1.67c0.34-1.69,1.16-3.29,2.46-4.6l14,1.3C38.36,80.72,38.88,82.45,38.91,84.19z"/>
				</g>
				<g style="opacity:0.27;clip-path:url(#SVGID_00000084506726343414622740000006378593839887722898_);">
					<path class="st13" d="M38.28,87.67l-17.23-1.15c-0.3-0.98-0.37-1.52-0.33-2.54l18.1,1.68C38.66,86.67,38.76,86.75,38.28,87.67z
						"/>
				</g>
			</g>
			<g>
				<path class="st1" d="M36.64,91.85c-0.89,0-1.93-0.26-3.08-0.79c-2.1-0.96-4.37-2.7-6.39-4.9c-4.36-4.74-6.11-9.98-3.98-11.93
					c2.12-1.95,7.2,0.23,11.55,4.97c2.02,2.2,3.57,4.61,4.35,6.78c0.84,2.33,0.71,4.16-0.37,5.15
					C38.19,91.61,37.48,91.85,36.64,91.85z M25.25,74.63c-0.56,0-1,0.14-1.3,0.42c-1.4,1.29-0.08,5.85,4.05,10.34
					c1.92,2.09,4.07,3.74,6.03,4.64c1.79,0.82,3.22,0.91,3.93,0.26c0.71-0.65,0.74-2.09,0.07-3.94c-0.73-2.03-2.2-4.31-4.12-6.4l0,0
					C30.67,76.44,27.25,74.63,25.25,74.63z"/>
			</g>
			<g>
				<path class="st1" d="M33.6,95.34c-0.38,0-0.66-0.04-0.79-0.07c-2.59-0.32-6.03-2.51-8.98-5.73c-2.33-2.54-3.88-4.96-4.6-7.2
					c-1.13-3.52,0.65-7.31,4.06-8.62c0.27-0.1,0.47-0.16,0.57-0.19c2.55-1.06,7.07,1.19,11.04,5.51c4.01,4.36,5.89,9.23,4.48,11.61
					C37.64,94.76,34.97,95.34,33.6,95.34z M33.13,93.73c0.14,0.04,2.97,0.67,4.82-3.75c0.02-0.04,0.04-0.08,0.06-0.11
					c0.91-1.47-0.46-5.62-4.27-9.77c-3.73-4.05-7.73-5.81-9.31-5.11c-0.04,0.02-0.09,0.03-0.14,0.05l0,0c0,0-0.18,0.04-0.45,0.15
					c-2.63,1.01-4.01,3.94-3.13,6.67c0.65,2.02,2.08,4.25,4.26,6.62c2.68,2.92,5.84,4.97,8.04,5.23
					C33.06,93.72,33.1,93.72,33.13,93.73z"/>
			</g>
		</g>
	</g>
</g>
</svg>
