<?xml version="1.0" encoding="utf-8"?>
<!-- Generator: Adobe Illustrator 28.3.0, SVG Export Plug-In . SVG Version: 6.00 Build 0)  -->
<svg version="1.1" id="Layer_1" xmlns="http://www.w3.org/2000/svg" xmlns:xlink="http://www.w3.org/1999/xlink" x="0px" y="0px"
	 viewBox="0 0 64 64" style="enable-background:new 0 0 64 64;" xml:space="preserve">
<style type="text/css">
	.st0{fill:#464646;}
	.st1{fill:#E73433;}
</style>
<g id="Group_423">
	<g id="Group_422">
		<path id="Path_2048" class="st0" d="M48,11.2H16.9c-3.5,0-6.3,2.8-6.3,6.3c0,0,0,0,0,0v31.1c0,3.5,2.8,6.3,6.3,6.3c0,0,0,0,0,0H27
			c1,0,1.8-0.8,1.8-1.8S28,51.2,27,51.2H16.9c-1.5,0-2.6-1.2-2.6-2.6l0,0V17.5c0-1.5,1.2-2.6,2.6-2.6l0,0h8.3v9.1
			c0,1,0.8,1.8,1.8,1.8c0.4,0,0.7-0.1,1-0.3l4.4-3l4.4,3c0.8,0.6,2,0.3,2.5-0.5c0.2-0.3,0.3-0.6,0.3-1v-9.1H48
			c1.5,0,2.6,1.2,2.6,2.6c0,0,0,0,0,0v6.4c0,1,0.8,1.8,1.8,1.8s1.8-0.8,1.8-1.8v-6.4C54.3,14,51.4,11.2,48,11.2z M36.1,20.5
			l-2.6-1.8c-0.6-0.4-1.4-0.4-2,0l-2.6,1.8v-5.7h7.3L36.1,20.5z"/>
		<path id="Path_2049" class="st1" d="M43.4,40.3v-3.6c0-1-0.8-1.8-1.8-1.8c-1,0-1.8,0.8-1.8,1.8v5.5c0,1,0.8,1.8,1.8,1.8H47
			c1,0,1.8-0.8,1.8-1.8c0-1-0.8-1.8-1.8-1.8c0,0,0,0,0,0L43.4,40.3z"/>
		<path id="Path_2050" class="st1" d="M41.5,29.4c-7,0-12.7,5.7-12.7,12.7s5.7,12.7,12.7,12.7s12.7-5.7,12.7-12.7c0,0,0,0,0,0
			C54.3,35.1,48.6,29.4,41.5,29.4z M41.5,51.2c-5,0-9.1-4.1-9.1-9.1s4.1-9.1,9.1-9.1s9.1,4.1,9.1,9.1l0,0
			C50.6,47.1,46.6,51.2,41.5,51.2C41.5,51.2,41.5,51.2,41.5,51.2L41.5,51.2z"/>
	</g>
</g>
</svg>
