<?xml version="1.0" encoding="utf-8"?>
<!-- Generator: Adobe Illustrator 28.3.0, SVG Export Plug-In . SVG Version: 6.00 Build 0)  -->
<svg version="1.1" id="Layer_1" xmlns="http://www.w3.org/2000/svg" xmlns:xlink="http://www.w3.org/1999/xlink" x="0px" y="0px"
	 viewBox="0 0 150 119.9" style="enable-background:new 0 0 150 119.9;" xml:space="preserve">
<style type="text/css">
	.st0{fill:#D8CFBC;}
	.st1{fill:#F2EBDA;}
	.st2{fill:#E2D9C5;}
	.st3{fill:#A3D8A3;}
	.st4{fill:#87C489;}
	.st5{fill:#69B96D;}
	.st6{fill:#FF801D;}
	.st7{fill:#EFB635;}
</style>
<g>
	<path class="st0" d="M53.8,16.1h91.3c-0.1-7.7-5.6-13.2-12.5-13.2H41.3C48.2,2.9,53.7,8.4,53.8,16.1z"/>
	<path class="st1" d="M120.2,15.4c0-6.9,5.6-12.5,12.5-12.5H41.3c-6.9,0-12.5,5.6-12.5,12.5v102.4h78.9c6.9,0,12.5-5.6,12.5-12.5
		V15.4z"/>
	<path class="st2" d="M117.2,2.9c-6.9,0-12.5,5.6-12.5,12.5v89.9c0,6.9-5.6,12.5-12.5,12.5h15.4c6.9,0,12.5-5.6,12.5-12.5V15.4
		c0-6.9,5.6-12.5,12.5-12.5H117.2z"/>
	<path class="st2" d="M95,104.6H3.6c0.1,7.7,5.6,13.2,12.5,13.2h91.3C100.6,117.8,95.1,112.3,95,104.6z"/>
	<path class="st3" d="M86.6,80.9c2.6-8,4.9-16.1,10.3-22.3C108.8,45,132.7,41,150,41.5c-5.4,4.5-10.1,9-15.6,14.9
		c-6.1,6.6-19.5,15.5-26,17.5C98.4,76.9,93.8,77.4,86.6,80.9z"/>
	<path class="st4" d="M86.6,80.9c2.6-8,46.1-39.9,63.4-39.5c-5.4,4.5-10.1,9-15.6,14.9c-6.1,6.6-19.5,15.5-26,17.5
		C98.4,76.9,93.8,77.4,86.6,80.9z"/>
	<path class="st5" d="M75.5,96c0,0,2-6.8,2.4-7.4c2-3.3,4.2-5.5,6.9-8.7c9.2-11,39.4-30.4,40-29.3c0.6,1.1-28.1,20.7-36.9,31.3
		c-2.5,3-4.3,5.9-6.3,9.1C81.2,91.6,75.5,96,75.5,96L75.5,96z"/>
	<path class="st6" d="M108.2,29.6H45.4c-1.2,0-2.1-1-2.1-2.1c0-1.2,1-2.1,2.1-2.1h62.8c1.2,0,2.1,1,2.1,2.1
		C110.4,28.7,109.4,29.6,108.2,29.6L108.2,29.6z"/>
	<path class="st7" d="M67.8,95.3H45.4c-1.2,0-2.1-1-2.1-2.1c0-1.2,1-2.1,2.1-2.1h22.4c1.2,0,2.1,1,2.1,2.1
		C70,94.4,69,95.3,67.8,95.3z"/>
	<path class="st6" d="M76.8,73.4H45.4c-1.2,0-2.1-1-2.1-2.1s1-2.1,2.1-2.1h31.4c1.2,0,2.1,1,2.1,2.1S78,73.4,76.8,73.4z"/>
	<path class="st7" d="M92.1,51.5H45.4c-1.2,0-2.1-1-2.1-2.1s1-2.1,2.1-2.1h46.7c1.2,0,2.1,1,2.1,2.1S93.3,51.5,92.1,51.5z"/>
</g>
</svg>
