<?xml version="1.0" encoding="utf-8"?>
<!-- Generator: Adobe Illustrator 28.3.0, SVG Export Plug-In . SVG Version: 6.00 Build 0)  -->
<svg version="1.1" id="Layer_1" xmlns="http://www.w3.org/2000/svg" xmlns:xlink="http://www.w3.org/1999/xlink" x="0px" y="0px"
	 viewBox="0 0 64 64" style="enable-background:new 0 0 64 64;" xml:space="preserve">
<style type="text/css">
	.st0{fill:#BEBEBE;}
</style>
<g>
	<path class="st0" d="M14.5,16.7v30.7c-0.8-0.4-1.8-0.6-2.8-0.6c-3.5,0-6.4,2.9-6.4,6.4v3.7c0,3.5,2.9,6.4,6.4,6.4
		c0.2,0,0.4,0,0.6-0.1c0.1,0,0.2,0.1,0.3,0.1h40.4c3,0,5.5-2.5,5.5-5.5V6.3c0-3-2.5-5.5-5.5-5.5H12.7c-0.1,0-0.2,0-0.3,0.1
		c-0.2,0-0.4-0.1-0.6-0.1c-3.5,0-6.4,2.9-6.4,6.4v3.7c0,3.5,2.9,6.4,6.4,6.4C12.7,17.3,13.6,17.1,14.5,16.7z M14.5,10.9
		c0,1.5-1.2,2.8-2.8,2.8S9,12.4,9,10.9V7.2c0-1.5,1.2-2.8,2.8-2.8s2.8,1.2,2.8,2.8V10.9z M51.2,22.8c0,1-0.8,1.8-1.8,1.8H23.7
		c-1,0-1.8-0.8-1.8-1.8c0-1,0.8-1.8,1.8-1.8h25.7C50.4,21,51.2,21.8,51.2,22.8z M49.4,15.5H23.7c-1,0-1.8-0.8-1.8-1.8
		s0.8-1.8,1.8-1.8h25.7c1,0,1.8,0.8,1.8,1.8S50.4,15.5,49.4,15.5z M51.2,32c0,1-0.8,1.8-1.8,1.8H23.7c-1,0-1.8-0.8-1.8-1.8
		s0.8-1.8,1.8-1.8h25.7C50.4,30.2,51.2,31,51.2,32z M51.2,41.2c0,1-0.8,1.8-1.8,1.8H23.7c-1,0-1.8-0.8-1.8-1.8s0.8-1.8,1.8-1.8h25.7
		C50.4,39.3,51.2,40.2,51.2,41.2z M51.2,50.4c0,1-0.8,1.8-1.8,1.8H23.7c-1,0-1.8-0.8-1.8-1.8c0-1,0.8-1.8,1.8-1.8h25.7
		C50.4,48.5,51.2,49.4,51.2,50.4z M14.5,53.1v3.7c0,1.5-1.2,2.8-2.8,2.8S9,58.3,9,56.8v-3.7c0-1.5,1.2-2.8,2.8-2.8
		S14.5,51.6,14.5,53.1z"/>
</g>
</svg>
