<?xml version="1.0" encoding="utf-8"?>
<!-- Generator: Adobe Illustrator 28.3.0, SVG Export Plug-In . SVG Version: 6.00 Build 0)  -->
<svg version="1.1" id="Layer_1" xmlns="http://www.w3.org/2000/svg" xmlns:xlink="http://www.w3.org/1999/xlink" x="0px" y="0px"
	 viewBox="0 0 64 64" style="enable-background:new 0 0 64 64;" xml:space="preserve">
<style type="text/css">
	.st0{fill:#6A6A6A;}
</style>
<path id="_12" class="st0" d="M56.93,53.63l-7.07-7.05c8.27-10.22,6.69-25.2-3.52-33.47s-25.21-6.7-33.48,3.52
	s-6.69,25.2,3.52,33.47c8.73,7.06,21.21,7.06,29.94,0l7.05,7.08c0.98,0.98,2.58,0.98,3.56,0C57.91,56.21,57.91,54.62,56.93,53.63z
	 M12.66,31.67c0-10.36,8.4-18.74,18.74-18.74s18.75,8.39,18.75,18.74s-8.4,18.74-18.75,18.74S12.66,42.02,12.66,31.67L12.66,31.67z"
	/>
</svg>
