<?xml version="1.0" encoding="utf-8"?>
<!-- Generator: Adobe Illustrator 28.3.0, SVG Export Plug-In . SVG Version: 6.00 Build 0)  -->
<svg version="1.1" id="Layer_1" xmlns="http://www.w3.org/2000/svg" xmlns:xlink="http://www.w3.org/1999/xlink" x="0px" y="0px"
	 viewBox="0 0 64 64" style="enable-background:new 0 0 64 64;" xml:space="preserve">
<style type="text/css">
	.st0{fill:#6A6A6A;}
</style>
<g id="Group_20" transform="translate(0.155)">
	<g>
		<g id="Group_19" transform="translate(0 0)">
			<path id="Path_22" class="st0" d="M32.36,18.33c7.38,0,13.37,5.98,13.37,13.37s-5.98,13.37-13.37,13.37S18.99,39.08,18.99,31.7
				l0,0C19,24.32,24.98,18.34,32.36,18.33 M32.36,13.43c-10.09,0-18.27,8.18-18.27,18.27s8.18,18.27,18.27,18.27
				s18.27-8.18,18.27-18.27S42.45,13.43,32.36,13.43L32.36,13.43"/>
			<path id="Path_23" class="st0" d="M32.88,53.22h-0.17c-1.39,0-2.52,1.13-2.52,2.52l0,0v4.24c0,1.39,1.13,2.52,2.52,2.52l0,0h0.17
				c1.39,0,2.52-1.13,2.52-2.52l0,0v-4.24C35.4,54.35,34.27,53.22,32.88,53.22L32.88,53.22"/>
			<path id="Path_24" class="st0" d="M17.28,50.63L17.28,50.63z M15.59,46.42c-0.67,0-1.31,0.27-1.78,0.74l-3,3
				c-0.98,0.98-0.99,2.58,0,3.56c0,0,0,0,0,0l0.13,0.13c0.98,0.98,2.58,0.99,3.56,0c0,0,0,0,0,0l3-3c0.98-0.98,0.99-2.58,0-3.56
				c0,0,0,0,0,0l-0.13-0.13C16.9,46.69,16.26,46.42,15.59,46.42"/>
			<path id="Path_25" class="st0" d="M8.31,29.52H4.07c-1.39,0-2.52,1.13-2.52,2.52c0,0,0,0,0,0v0.17c0,1.39,1.13,2.52,2.52,2.52
				h4.24c1.39,0,2.52-1.13,2.52-2.52v-0.17C10.83,30.65,9.7,29.52,8.31,29.52"/>
			<path id="Path_26" class="st0" d="M13.79,13.62L13.79,13.62z M12.11,9.42c-0.67,0-1.31,0.27-1.78,0.74l-0.13,0.13
				c-0.98,0.98-0.99,2.58,0,3.56c0,0,0,0,0,0l3,3c0.98,0.98,2.58,0.99,3.56,0c0,0,0,0,0,0l0.13-0.13c0.98-0.98,0.99-2.58,0-3.56
				c0,0,0,0,0,0l-3-3C13.42,9.68,12.78,9.41,12.11,9.42"/>
			<path id="Path_27" class="st0" d="M32.01,0.88h-0.17c-1.39,0-2.52,1.13-2.52,2.52v4.24c0,1.39,1.13,2.52,2.52,2.52h0.17
				c1.39,0,2.52-1.13,2.52-2.52V3.4C34.53,2.01,33.4,0.88,32.01,0.88"/>
			<path id="Path_28" class="st0" d="M53.67,13L53.67,13z M51.99,8.8c-0.67,0-1.31,0.27-1.78,0.74l-3,3c-0.98,0.98-0.99,2.58,0,3.56
				c0,0,0,0,0,0l0.13,0.13c0.98,0.98,2.58,0.99,3.56,0c0,0,0,0,0,0l3-3c0.98-0.98,0.99-2.58,0-3.56c0,0,0,0,0,0l-0.13-0.13
				C53.3,9.07,52.66,8.8,51.99,8.8"/>
			<path id="Path_29" class="st0" d="M60.64,28.65H56.4c-1.39,0-2.52,1.13-2.52,2.52l0,0v0.17c0,1.39,1.13,2.52,2.52,2.52l0,0h4.24
				c1.39,0,2.52-1.13,2.52-2.52l0,0v-0.17C63.16,29.78,62.03,28.65,60.64,28.65L60.64,28.65"/>
			<path id="Path_30" class="st0" d="M51.41,50.01L51.41,50.01z M49.73,45.81c-0.67,0-1.31,0.27-1.78,0.74l-0.13,0.13
				c-0.98,0.98-0.99,2.58,0,3.56c0,0,0,0,0,0l3,3c0.98,0.98,2.58,0.99,3.56,0c0,0,0,0,0,0l0.13-0.13c0.98-0.98,0.99-2.58,0-3.56
				c0,0,0,0,0,0l-3-3C51.04,46.07,50.4,45.81,49.73,45.81"/>
		</g>
	</g>
</g>
</svg>
