<?xml version="1.0" encoding="utf-8"?>
<!-- Generator: Adobe Illustrator 28.3.0, SVG Export Plug-In . SVG Version: 6.00 Build 0)  -->
<svg version="1.1" id="Layer_1" xmlns="http://www.w3.org/2000/svg" xmlns:xlink="http://www.w3.org/1999/xlink" x="0px" y="0px"
	 viewBox="0 0 64 64" style="enable-background:new 0 0 64 64;" xml:space="preserve">
<style type="text/css">
	.st0{clip-path:url(#SVGID_00000011000970586839792240000015698380952631087005_);}
	.st1{fill:#6A6A6A;}
</style>
<g>
	<g>
		<defs>
			<rect id="SVGID_1_" x="3.64" y="4.67" width="56.73" height="57.74"/>
		</defs>
		<clipPath id="SVGID_00000013193344213091924970000005958305020863888534_">
			<use xlink:href="#SVGID_1_"  style="overflow:visible;"/>
		</clipPath>
		<g id="Group_17" style="clip-path:url(#SVGID_00000013193344213091924970000005958305020863888534_);">
			<path id="Path_18" class="st1" d="M31.99,4.67h-0.05c-1.31,0-2.36,1.06-2.36,2.36l0,0v3.76c0,1.31,1.06,2.36,2.36,2.36l0,0h0.05
				c1.31,0,2.36-1.06,2.36-2.36l0,0V7.04C34.35,5.73,33.3,4.67,31.99,4.67L31.99,4.67"/>
			<path id="Path_19" class="st1" d="M31.94,35.12c-4.96,0.01-8.97-4.01-8.98-8.96c-0.01-4.96,4.01-8.97,8.96-8.98h0.03
				c4.96-0.01,8.97,4.01,8.98,8.96c0.01,4.96-4.01,8.97-8.96,8.98C31.95,35.12,31.95,35.12,31.94,35.12 M31.96,32.95L31.96,32.95z
				 M31.94,21.52h-0.02c-2.55,0-4.62,2.08-4.62,4.63s2.08,4.62,4.63,4.62h0.01c2.55,0,4.62-2.08,4.62-4.63S34.49,21.51,31.94,21.52"
				/>
			<path id="Path_20" class="st1" d="M16.12,57.06c-0.06,0-0.11,0-0.17,0c-1.2-0.09-2.09-1.13-2-2.33c0-0.04,0-0.08,0.01-0.11
				c0.88-9.29,8.68-16.39,18.01-16.42h0.05c9.32,0,17.12,7.07,18.05,16.35c0.09,1.2-0.8,2.24-1.99,2.34
				c-1.16,0.09-2.18-0.75-2.33-1.91c-0.67-7.07-6.63-12.46-13.73-12.44h-0.04c-7.12-0.01-13.06,5.42-13.7,12.5v0.04
				C18.18,56.21,17.24,57.06,16.12,57.06 M18.27,55.16L18.27,55.16 M18.27,55.16L18.27,55.16 M18.28,55.05L18.28,55.05"/>
			<path id="Path_21" class="st1" d="M32.02,62.42c-2.86,0-5.7-0.43-8.42-1.26C8.64,56.52,0.27,40.63,4.91,25.67
				c1.32-4.24,3.61-8.13,6.7-11.32c0.82-0.88,2.18-0.94,3.07-0.12c0.88,0.82,0.94,2.18,0.12,3.07c-0.02,0.02-0.04,0.05-0.07,0.07
				c-9.22,9.54-8.96,24.75,0.58,33.96c5.38,5.2,12.89,7.6,20.3,6.47c10.68-1.62,18.97-10.19,20.25-20.91c0-0.02,0-0.04,0-0.06
				c0.89-7.44-1.76-14.87-7.16-20.06c-0.91-0.78-1.02-2.15-0.23-3.06c0.78-0.91,2.15-1.02,3.06-0.23c0.07,0.06,0.12,0.11,0.18,0.17
				c3.2,3.08,5.63,6.86,7.08,11.06c1.4,4.02,1.87,8.32,1.4,12.56c0,0.02,0,0.04,0,0.07C58.52,51.64,46.41,62.43,32.02,62.42"/>
		</g>
	</g>
</g>
</svg>
