<?xml version="1.0" encoding="utf-8"?>
<!-- Generator: Adobe Illustrator 28.3.0, SVG Export Plug-In . SVG Version: 6.00 Build 0)  -->
<svg version="1.1" id="Layer_1" xmlns="http://www.w3.org/2000/svg" xmlns:xlink="http://www.w3.org/1999/xlink" x="0px" y="0px"
	 viewBox="0 0 64 64" style="enable-background:new 0 0 64 64;" xml:space="preserve">
<style type="text/css">
	.st0{fill:#BEBEBE;}
</style>
<g>
	<path class="st0" d="M55.5,25.3c-0.3,0-0.5,0-0.8,0c-4.1,0.6-7.1,4.1-7,8.3v7.8H16.3v-7.8c0.1-4.1-2.9-7.7-7-8.3
		c-4.3-0.4-8.2,2.7-8.6,7c-0.4,4,2.3,7.7,6.2,8.5v6.4c0,3.3,2.5,6,5.7,6.3v1.9c0,1.5,1.2,2.8,2.8,2.8h5.5c1.5,0,2.8-1.2,2.8-2.8
		v-1.8h16.6v1.8c0,1.5,1.2,2.8,2.8,2.8h5.5c1.5,0,2.8-1.2,2.8-2.8v-1.9c3.2-0.3,5.7-3,5.7-6.3v-6.4c3.7-0.7,6.3-4,6.3-7.7
		C63.4,28.8,59.9,25.3,55.5,25.3z"/>
	<path class="st0" d="M10,22.7c5.3,0.9,9.1,5.6,9,10.9v5h25.9v-5c-0.1-5.4,3.8-10,9-10.9l0.5-1.5c0.4-1.2,0.6-2.4,0.6-3.6
		c0-6.1-5-14.7-11.1-14.7H20c-1.2,0-2.4,0.2-3.6,0.6c-5.8,2-8.9,11.9-6.9,17.7L10,22.7z"/>
</g>
</svg>
