<?xml version="1.0" encoding="utf-8"?>
<!-- Generator: Adobe Illustrator 28.3.0, SVG Export Plug-In . SVG Version: 6.00 Build 0)  -->
<svg version="1.1" id="Layer_1" xmlns="http://www.w3.org/2000/svg" xmlns:xlink="http://www.w3.org/1999/xlink" x="0px" y="0px"
	 viewBox="0 0 150 150" style="enable-background:new 0 0 150 150;" xml:space="preserve">
<style type="text/css">
	.st0{fill:#FFDB0A;}
	.st1{fill:#2A2852;}
</style>
<g>
	<g>
		<g>
			<path id="SVGID_1_" class="st0" d="M122.5,145.4H30.7c-13.3,0-24-10.8-24-24V29.6c0-13.3,10.8-24,24-24h91.8
				c13.3,0,24,10.8,24,24v91.8C146.5,134.6,135.8,145.4,122.5,145.4z"/>
		</g>
	</g>
</g>
<path class="st1" d="M35.7,129.6c-3.8-0.5-7.2-3.4-8.1-7.2c-0.2-0.9-0.2-0.9-0.2-4.1v-3.2l0.2-0.5c0.7-1.1,2-1.6,3.2-0.9l0,0
	c0.5,0.2,0.7,0.5,0.9,1.1c0.2,0.2,0.2,0.7,0.2,3.2c0,2.9,0,2.9,0.2,3.6c0.2,0.7,0.7,1.4,1.4,2c0.9,1.1,2.5,1.6,3.8,1.4
	c0.9,0,1.8-0.2,2.5-0.9c0.9-0.7,1.8-1.6,2-2.7l0.2-0.7v-5c0-2.7,0-6.8,0-9.1c0-4.1,0-4.1,0.2-4.5c0.5-0.7,1.1-1.4,2-1.4
	s1.6,0.5,2,1.1c0.2,0.5,0.2,0.5,0.2,2.3c0.2,3.8,0.2,16.1,0,16.7c-0.5,4.1-3.6,7.5-7.7,8.1C38.2,129.6,36.4,129.8,35.7,129.6
	L35.7,129.6z"/>
<path class="st1" d="M80.5,129.6c-4.5-0.7-8.1-4.1-8.8-8.6c0-1.1,0-2.3,0-3.2v-2.5l0.2-0.5c0.7-1.1,2-1.6,3.2-0.9l0,0
	c0.5,0.2,0.7,0.5,0.9,1.1c0.2,0.2,0.2,0.7,0.2,3.2c0,2.5,0,2.9,0.2,3.4c0.2,0.9,0.7,1.6,1.4,2.3c1.1,1.1,2.3,1.6,3.8,1.6
	c1.8,0,3.2-0.5,4.3-1.6c0.7-0.7,1.1-1.4,1.4-2c0.2-0.5,0.2-0.7,0.2-5c0-5,0-4.8,0.7-5.4c0.9-0.9,2.3-0.9,3.2-0.2
	c0.5,0.5,0.7,0.9,0.7,1.8v0.5h5c5.7,0,5.4,0,6.1,0.7c0.9,0.9,0.9,2.3,0.2,3.2c-0.7,0.7-0.2,0.7-6.1,0.7H92v1.8
	c0,2.3-0.2,2.9-1.1,4.5c-0.5,0.9-1.1,1.6-1.8,2.3c-1.4,1.4-3.2,2.5-5.2,2.9C83,129.6,81.6,129.8,80.5,129.6L80.5,129.6z"/>
<path class="st1" d="M112,129.6c-0.7-0.2-1.1-0.7-1.4-1.1l-0.2-0.5v-6.6c0-6.1,0-6.6,0.2-6.8c0.2-0.5,0.5-0.9,0.9-1.1
	c1.1-0.7,2.5-0.2,3.2,0.9l0,0l0.2,0.5v6.3c0,7,0,6.8-0.5,7.5C114,129.6,112.6,129.8,112,129.6L112,129.6z"/>
<path class="st1" d="M121.9,129.6c-0.7-0.2-1.4-0.9-1.6-1.6c0-0.2,0-2,0-6.8v-6.3l0.2-0.5c0.7-1.1,2-1.6,3.2-0.9l0,0
	c0.5,0.2,0.7,0.5,0.9,1.1c0.2,0.2,0.2,0.7,0.2,6.8v6.6l-0.2,0.5c-0.2,0.5-0.7,0.9-1.1,1.1C123,129.6,122.6,129.8,121.9,129.6
	L121.9,129.6z"/>
<path class="st1" d="M57.4,129.3c-1.1-0.5-1.6-1.6-1.1-2.7c0.2-0.5,0.5-0.7,0.9-0.9c0.9-0.5,1.8-0.2,2.5,0.5
	c0.5,0.5,0.7,0.9,0.7,1.6c0,0.7-0.2,1.1-0.7,1.6C59.2,129.6,58.3,129.6,57.4,129.3L57.4,129.3z"/>
<path class="st1" d="M96.1,124.8c-0.7-0.2-1.1-0.7-1.4-1.1c-0.2-0.9,0.2-1.8,1.1-2l0,0c0.7-0.2,6.3-0.2,7,0s1.4,0.9,1.4,1.6
	c0,0.5-0.2,0.9-0.5,1.1c-0.5,0.5-0.5,0.5-4.1,0.5C98.6,125,97.2,125,96.1,124.8L96.1,124.8z"/>
<path class="st1" d="M54.7,124.1c-0.9-0.5-1.4-1.4-0.9-2.3c0.2-0.5,0.5-0.7,0.7-0.9l0.5-0.2h3.4c3.6,0,3.8,0,4.3,0.5
	c0.5,0.5,0.5,0.7,0.5,1.1s-0.2,1.1-0.7,1.4l-0.5,0.2h-3.6C55.6,124.1,54.9,124.1,54.7,124.1z"/>
<path class="st1" d="M52,117.8c-0.5-0.2-0.9-0.7-1.1-1.1l-0.2-0.5v-3.4c0-2.3,0-4.5,0-6.8c0-3.2,0-3.2,0.2-3.6
	c0.5-0.7,1.1-1.1,2-1.4c0.9,0,1.8,0.7,2,1.4c0.2,0.5,0.2,0.5,0.2,5.4v5.2v0.2h4.3c2.5,0,4.3,0,4.5,0c0.9,0.2,1.6,0.9,1.6,1.8
	c0,0.9-0.5,1.8-1.1,2.3l-0.5,0.2h-5.7C52.7,117.8,52.2,117.8,52,117.8L52,117.8z"/>
<path class="st1" d="M81.2,117.6c-1.1-0.5-1.6-1.6-1.4-2.5c0.2-0.5,0.9-1.1,1.4-1.4c0.7-0.2,1.4,0,1.8,0.2c0.9,0.5,1.1,1.6,0.7,2.5
	c-0.2,0.5-0.7,0.9-1.4,1.1C82.1,117.8,81.6,117.8,81.2,117.6L81.2,117.6z"/>
<g>
	<path class="st1" d="M54.8,87.5c-4.6-0.9-7.6-5.5-6.7-10.1c0.2-0.7,0.5-1.4,0.7-2.1c0.5-0.9,5.5-6,23-23.7
		C93.3,29.9,94.4,28.8,96,28.1c1.4-0.7,1.6-0.7,3.7-0.7c1.8,0,2.3,0,3.5,0.7c4.1,2.1,6.2,6.9,4.1,11.3c0,0.2,0,0.2-0.2,0.5
		c-0.5,0.9-6,6.5-22.6,23c-7.6,7.6-15.2,15.2-23,22.8C59.6,87.3,57.1,88,54.8,87.5L54.8,87.5z"/>
	<path class="st1" d="M88.6,87.3c-0.5-0.2-0.7-0.7-0.7-1.2c0-0.7,0.9-1.6,8.5-9.4c4.8-4.8,8.8-8.8,9.2-9c0.7-0.2,1.6,0.2,2.1,0.9
		c0.2,0.5,0.2,3.7,0.2,9.2c0,8.1,0,8.8-0.5,9.2l-0.5,0.5h-9C89.3,87.8,89.3,87.8,88.6,87.3L88.6,87.3z"/>
	<path class="st1" d="M48.3,46.7c-0.2-0.2-0.5-1.6-0.5-9.7v-9.2l0.5-0.5c0.5-0.5,0.9-0.5,9.4-0.5c8.3,0,9,0,9.4,0.5
		c0.2,0.2,0.5,0.7,0.7,0.9c0.2,0.5-0.2,1.2-5.5,6.5c-3.2,3.2-7.1,7.4-9,9c-2.8,2.8-3.2,3.2-3.9,3.2C49,47.2,48.6,47,48.3,46.7
		L48.3,46.7z"/>
</g>
<path class="st1" d="M121.9,110.8c-1.1-0.5-1.6-1.6-1.4-2.5c0-0.2,0-0.2,0.2-0.5c0.5-0.9,1.8-1.4,2.9-0.9c0.5,0.2,0.7,0.7,0.9,1.1
	c0.2,0.9-0.2,2-0.9,2.5C123,110.8,122.6,111,121.9,110.8L121.9,110.8z"/>
</svg>
