<?xml version="1.0" encoding="utf-8"?>
<!-- Generator: Adobe Illustrator 28.3.0, SVG Export Plug-In . SVG Version: 6.00 Build 0)  -->
<svg version="1.1" id="Layer_1" xmlns="http://www.w3.org/2000/svg" xmlns:xlink="http://www.w3.org/1999/xlink" x="0px" y="0px"
	 viewBox="0 0 64 64" style="enable-background:new 0 0 64 64;" xml:space="preserve">
<style type="text/css">
	.st0{fill:#6A6A6A;}
</style>
<path id="_12" class="st0" d="M58.27,54.77l-7.46-7.43c8.73-10.78,7.05-26.59-3.72-35.3s-26.59-7.06-35.31,3.72
	s-7.05,26.59,3.72,35.3c9.21,7.45,22.38,7.45,31.59,0l7.43,7.47c1.03,1.03,2.72,1.03,3.75,0C59.3,57.49,59.3,55.82,58.27,54.77z
	 M11.56,31.6c0-10.93,8.86-19.77,19.77-19.77s19.78,8.85,19.78,19.77s-8.86,19.77-19.78,19.77S11.56,42.52,11.56,31.6L11.56,31.6z"
	/>
</svg>
