<?xml version="1.0" encoding="utf-8"?>
<!-- Generator: Adobe Illustrator 28.3.0, SVG Export Plug-In . SVG Version: 6.00 Build 0)  -->
<svg version="1.1" id="Layer_1" xmlns="http://www.w3.org/2000/svg" xmlns:xlink="http://www.w3.org/1999/xlink" x="0px" y="0px"
	 viewBox="0 0 64 64" style="enable-background:new 0 0 64 64;" xml:space="preserve">
<style type="text/css">
	.st0{clip-path:url(#SVGID_00000032648412694638589030000015049471982152184510_);}
	.st1{fill:#6A6A6A;}
</style>
<g>
	<defs>
		<rect id="SVGID_1_" x="2.12" y="1.58" width="59.76" height="60.83"/>
	</defs>
	<clipPath id="SVGID_00000083059894888569579830000007354556429226067872_">
		<use xlink:href="#SVGID_1_"  style="overflow:visible;"/>
	</clipPath>
	<g id="Group_17" style="clip-path:url(#SVGID_00000083059894888569579830000007354556429226067872_);">
		<path id="Path_18" class="st1" d="M31.99,1.58h-0.05c-1.38,0-2.49,1.12-2.49,2.49c0,0,0,0,0,0v3.96c0,1.38,1.12,2.49,2.49,2.49
			l0,0h0.05c1.38,0,2.49-1.12,2.49-2.49c0,0,0,0,0,0V4.08C34.48,2.7,33.37,1.58,31.99,1.58C31.99,1.58,31.99,1.58,31.99,1.58"/>
		<path id="Path_19" class="st1" d="M31.94,33.66c-5.22,0.01-9.45-4.22-9.46-9.44c-0.01-5.22,4.22-9.45,9.44-9.46h0.03
			c5.22-0.01,9.45,4.22,9.46,9.44c0.01,5.22-4.22,9.45-9.44,9.46C31.95,33.66,31.95,33.66,31.94,33.66 M31.96,31.37L31.96,31.37z
			 M31.94,19.33h-0.02c-2.69,0-4.87,2.19-4.87,4.88c0,2.69,2.19,4.87,4.88,4.87h0.01c2.69,0,4.87-2.19,4.87-4.88
			S34.62,19.32,31.94,19.33"/>
		<path id="Path_20" class="st1" d="M15.27,56.77c-0.06,0-0.12,0-0.18,0c-1.26-0.09-2.2-1.19-2.11-2.45c0-0.04,0-0.08,0.01-0.12
			c0.93-9.79,9.14-17.27,18.97-17.3h0.05c9.82,0,18.04,7.45,19.02,17.22c0.1,1.26-0.84,2.36-2.1,2.46c-1.22,0.09-2.3-0.79-2.45-2.01
			c-0.71-7.45-6.98-13.13-14.46-13.1h-0.04c-7.5-0.01-13.76,5.71-14.43,13.17v0.04C17.44,55.88,16.45,56.77,15.27,56.77
			 M17.54,54.77L17.54,54.77 M17.54,54.77L17.54,54.77 M17.55,54.66L17.55,54.66"/>
		<path id="Path_21" class="st1" d="M32.02,62.42c-3.01,0-6-0.45-8.87-1.33C7.39,56.2-1.43,39.47,3.46,23.71
			c1.39-4.47,3.8-8.56,7.06-11.92c0.86-0.93,2.3-0.99,3.23-0.13c0.93,0.86,0.99,2.3,0.13,3.23c-0.02,0.02-0.04,0.05-0.07,0.07
			C4.1,25.01,4.37,41.03,14.42,50.74c5.67,5.48,13.58,8.01,21.38,6.82c11.25-1.71,19.98-10.73,21.33-22.03c0-0.02,0-0.04,0-0.06
			c0.94-7.84-1.85-15.66-7.54-21.13c-0.96-0.82-1.07-2.27-0.24-3.22c0.82-0.96,2.27-1.07,3.22-0.24c0.07,0.06,0.13,0.12,0.19,0.18
			c3.37,3.24,5.93,7.23,7.46,11.65c1.47,4.24,1.97,8.76,1.47,13.23c0,0.02,0,0.04,0,0.07C59.94,51.06,47.18,62.43,32.02,62.42"/>
	</g>
</g>
</svg>
